SplineFontDB: 2.0
FontName: THNiramitAS
FullName: THNiramitAS
FamilyName: TH Niramit AS
Weight: Book
Copyright: Copyright (c) 2006 by Department of Intellectual Property (DIP), Ministry of Commerce and Software Industry Promotion Agency (Public Organization) (SIPA). All rights reserved.
Version: 1.1
ItalicAngle: 0
UnderlinePosition: -35
UnderlineWidth: 30
Ascent: 800
Descent: 200
Order2: 1
XUID: [1021 375 425136265 12552537]
FSType: 0
OS2Version: 3
OS2_WeightWidthSlopeOnly: 0
OS2_UseTypoMetrics: 1
CreationTime: 1157457519
ModificationTime: 1196155711
PfmFamily: 17
TTFWeight: 400
TTFWidth: 5
LineGap: 60
VLineGap: 0
Panose: 2 0 5 6 0 0 0 2 0 4
OS2TypoAscent: 0
OS2TypoAOffset: 1
OS2TypoDescent: 0
OS2TypoDOffset: 1
OS2TypoLinegap: 0
OS2WinAscent: 17
OS2WinAOffset: 1
OS2WinDescent: 9
OS2WinDOffset: 1
HheadAscent: -39
HheadAOffset: 1
HheadDescent: 276
HheadDOffset: 1
OS2SubXSize: 700
OS2SubYSize: 650
OS2SubXOff: 0
OS2SubYOff: 140
OS2SupXSize: 700
OS2SupYSize: 650
OS2SupXOff: 0
OS2SupYOff: 477
OS2StrikeYSize: 30
OS2StrikeYPos: 250
OS2FamilyClass: 773
OS2Vendor: 'IPTH'
Lookup: 4 0 0 "'frac' Diagonal Fractions in Latin lookup 0"  {"'frac' Diagonal Fractions in Latin lookup 0 subtable"  } ['frac' ('latn' <'dflt' > ) ]
Lookup: 6 0 0 "'liga' Standard Ligatures in Latin lookup 1"  {"'liga' Standard Ligatures in Latin lookup 1 subtable"  } ['liga' ('latn' <'dflt' > ) ]
Lookup: 6 0 0 "'liga' Standard Ligatures in Latin lookup 2"  {"'liga' Standard Ligatures in Latin lookup 2 subtable"  } ['liga' ('latn' <'dflt' > ) ]
Lookup: 6 0 0 "'liga' Standard Ligatures in Latin lookup 3"  {"'liga' Standard Ligatures in Latin lookup 3 subtable"  } ['liga' ('latn' <'dflt' > ) ]
Lookup: 6 0 0 "'liga' Standard Ligatures in Latin lookup 4"  {"'liga' Standard Ligatures in Latin lookup 4 subtable"  } ['liga' ('latn' <'dflt' > ) ]
Lookup: 6 0 0 "'liga' Standard Ligatures in Latin lookup 5"  {"'liga' Standard Ligatures in Latin lookup 5 subtable"  } ['liga' ('latn' <'dflt' > ) ]

StartChar: .notdef
Encoding: 65536 -1 0
Width: 747
VWidth: 1494
Flags: W
HStem: 0 52<145 601> 987 52<145 601>
VStem: 94 51<52 987> 601 51<52 987>
Fore
601 52 m 1,0,-1
 601 987 l 1,1,-1
 145 987 l 1,2,-1
 145 52 l 1,3,-1
 601 52 l 1,0,-1
652 0 m 1,4,-1
 94 0 l 1,5,-1
 94 1039 l 1,6,-1
 652 1039 l 1,7,-1
 652 0 l 1,4,-1
EndSplineSet
EndChar
StartChar: numbersign
Encoding: 35 35 4
Width: 509
VWidth: 1494
Flags: W
HStem: 0 21G<96 150.422 271 326.5> 223 46<27 123 181 299 356 459> 435 48<48 149 206 326 383 480>
VStem: 27 453<223 483 63.1062 223>
Fore
377 435 m 1,0,1
 372 393 372 393 366 352.5 c 128,-1,2
 360 312 360 312 356 269 c 1,3,-1
 459 269 l 1,4,-1
 459 223 l 1,5,-1
 351 223 l 1,6,7
 344 166 344 166 337 111.5 c 128,-1,8
 330 57 330 57 323 0 c 1,9,-1
 271 0 l 1,10,-1
 299 223 l 1,11,-1
 175 223 l 1,12,-1
 148 0 l 1,13,-1
 96 0 l 1,14,-1
 123 223 l 1,15,-1
 27 223 l 1,16,-1
 27 269 l 1,17,-1
 129 269 l 1,18,19
 133 312 133 312 139 352.5 c 128,-1,20
 145 393 145 393 149 435 c 1,21,-1
 48 435 l 1,22,-1
 48 483 l 1,23,-1
 155 483 l 1,24,25
 163 535 163 535 169.5 590.5 c 128,-1,26
 176 646 176 646 184 698 c 1,27,-1
 233 698 l 1,28,-1
 206 483 l 1,29,-1
 332 483 l 1,30,31
 339 535 339 535 345 590.5 c 128,-1,32
 351 646 351 646 357 698 c 1,33,-1
 410 698 l 1,34,-1
 383 483 l 1,35,-1
 480 483 l 1,36,-1
 480 435 l 1,37,-1
 377 435 l 1,0,1
200 435 m 1,38,39
 197 393 197 393 191 352.5 c 128,-1,40
 185 312 185 312 181 269 c 1,41,-1
 305 269 l 1,42,43
 309 312 309 312 315 352.5 c 128,-1,44
 321 393 321 393 326 435 c 1,45,-1
 200 435 l 1,38,39
EndSplineSet
EndChar
StartChar: dollar
Encoding: 36 36 5
Width: 568
VWidth: 1494
Flags: W
HStem: -18 54<175.018 256 308 389.51> 665 58<184.876 256 308 391.357>
VStem: 61 63<478.361 582.058> 256 52<-90 -18 37 311 399 665 723 800> 469 60<100.578 229.51>
Fore
256 665 m 1,0,1
 194 659 194 659 159 624.5 c 128,-1,2
 124 590 124 590 124 543 c 0,3,4
 124 498 124 498 158.5 463 c 128,-1,5
 193 428 193 428 256 399 c 1,6,-1
 256 665 l 1,0,1
256 800 m 1,7,-1
 308 800 l 1,8,-1
 308 723 l 1,9,10
 356 719 356 719 404.5 703.5 c 128,-1,11
 453 688 453 688 484 664 c 1,12,-1
 454 613 l 1,13,14
 429 629 429 629 392.5 645 c 128,-1,15
 356 661 356 661 308 665 c 1,16,-1
 308 377 l 1,17,18
 356 360 356 360 396 343 c 128,-1,19
 436 326 436 326 466 303 c 128,-1,20
 496 280 496 280 512.5 249 c 128,-1,21
 529 218 529 218 529 176 c 0,22,23
 529 96 529 96 474.5 43 c 128,-1,24
 420 -10 420 -10 308 -18 c 1,25,-1
 308 -90 l 1,26,-1
 256 -90 l 1,27,-1
 256 -18 l 1,28,29
 176 -13 176 -13 124.5 17.5 c 128,-1,30
 73 48 73 48 43 75 c 1,31,-1
 91 121 l 1,32,33
 115 97 115 97 154 70 c 128,-1,34
 193 43 193 43 256 36 c 1,35,-1
 256 330 l 1,36,37
 161 365 161 365 113.5 418 c 128,-1,38
 66 471 66 471 61 532 c 0,39,40
 58 567 58 567 69.5 599.5 c 128,-1,41
 81 632 81 632 105.5 658.5 c 128,-1,42
 130 685 130 685 168 702.5 c 128,-1,43
 206 720 206 720 256 723 c 1,44,-1
 256 800 l 1,7,-1
308 37 m 1,45,46
 378 43 378 43 423.5 77.5 c 128,-1,47
 469 112 469 112 469 161 c 0,48,49
 469 212 469 212 433.5 244.5 c 128,-1,50
 398 277 398 277 308 311 c 1,51,-1
 308 37 l 1,45,46
EndSplineSet
EndChar
StartChar: percent
Encoding: 37 37 6
Width: 874
VWidth: 1494
Flags: W
HStem: 3 43<585.939 681.413> 330 45<585.512 681.413> 341 45<190.75 288.181> 668 45<191.587 287.348>
VStem: 99 49<484.055 570.126> 332 48<484.607 569.586> 493 48<145.335 231.233> 726 48<144.728 231.873>
Fore
640 725 m 1,0,-1
 269 -16 l 1,1,-1
 218 -16 l 1,2,-1
 587 725 l 1,3,-1
 640 725 l 1,0,-1
634 375 m 0,4,5
 667 375 667 375 693 359.5 c 128,-1,6
 719 344 719 344 737 318.5 c 128,-1,7
 755 293 755 293 764.5 258.5 c 128,-1,8
 774 224 774 224 774 188 c 256,9,10
 774 152 774 152 764.5 118.5 c 128,-1,11
 755 85 755 85 737 59.5 c 128,-1,12
 719 34 719 34 693 18.5 c 128,-1,13
 667 3 667 3 634 3 c 0,14,15
 599 3 599 3 573 18.5 c 128,-1,16
 547 34 547 34 529 59.5 c 128,-1,17
 511 85 511 85 502 118.5 c 128,-1,18
 493 152 493 152 493 188 c 256,19,20
 493 224 493 224 502 258.5 c 128,-1,21
 511 293 511 293 529 318.5 c 128,-1,22
 547 344 547 344 573 359.5 c 128,-1,23
 599 375 599 375 634 375 c 0,4,5
634 46 m 0,24,25
 659 46 659 46 677 59.5 c 128,-1,26
 695 73 695 73 706.5 94 c 128,-1,27
 718 115 718 115 722 139.5 c 128,-1,28
 726 164 726 164 726 188 c 256,29,30
 726 212 726 212 722 237.5 c 128,-1,31
 718 263 718 263 706.5 283 c 128,-1,32
 695 303 695 303 677 316.5 c 128,-1,33
 659 330 659 330 634 330 c 0,34,35
 607 330 607 330 590 316.5 c 128,-1,36
 573 303 573 303 561.5 283 c 128,-1,37
 550 263 550 263 545.5 237.5 c 128,-1,38
 541 212 541 212 541 188 c 256,39,40
 541 164 541 164 545.5 139.5 c 128,-1,41
 550 115 550 115 561.5 94 c 128,-1,42
 573 73 573 73 590 59.5 c 128,-1,43
 607 46 607 46 634 46 c 0,24,25
380 528 m 0,44,45
 380 490 380 490 370 456.5 c 128,-1,46
 360 423 360 423 342 397 c 128,-1,47
 324 371 324 371 298 356 c 128,-1,48
 272 341 272 341 239 341 c 256,49,50
 206 341 206 341 180 356 c 128,-1,51
 154 371 154 371 136 397 c 128,-1,52
 118 423 118 423 108.5 456.5 c 128,-1,53
 99 490 99 490 99 528 c 0,54,55
 99 564 99 564 108.5 597.5 c 128,-1,56
 118 631 118 631 136 656.5 c 128,-1,57
 154 682 154 682 180 697.5 c 128,-1,58
 206 713 206 713 239 713 c 256,59,60
 272 713 272 713 298 697.5 c 128,-1,61
 324 682 324 682 342 656.5 c 128,-1,62
 360 631 360 631 370 597.5 c 128,-1,63
 380 564 380 564 380 528 c 0,44,45
148 528 m 0,64,65
 148 502 148 502 152.5 477.5 c 128,-1,66
 157 453 157 453 167.5 432 c 128,-1,67
 178 411 178 411 196 398.5 c 128,-1,68
 214 386 214 386 239 386 c 0,69,70
 266 386 266 386 283 398.5 c 128,-1,71
 300 411 300 411 311.5 432 c 128,-1,72
 323 453 323 453 327.5 477.5 c 128,-1,73
 332 502 332 502 332 528 c 0,74,75
 332 552 332 552 327.5 576.5 c 128,-1,76
 323 601 323 601 311.5 621 c 128,-1,77
 300 641 300 641 283 654.5 c 128,-1,78
 266 668 266 668 239 668 c 0,79,80
 214 668 214 668 196 654.5 c 128,-1,81
 178 641 178 641 167.5 621 c 128,-1,82
 157 601 157 601 152.5 576.5 c 128,-1,83
 148 552 148 552 148 528 c 0,64,65
EndSplineSet
EndChar
StartChar: ampersand
Encoding: 38 38 7
Width: 641
VWidth: 1494
Flags: W
HStem: -10 58<216.067 362.328> 668 60<218.679 306.98>
VStem: 46 63<137.446 264.624> 121 63<523.541 650.557> 342 62<569.406 649.359>
Fore
634 4 m 1,0,-1
 550 4 l 1,1,-1
 475 97 l 1,2,3
 435 45 435 45 388.5 17.5 c 128,-1,4
 342 -10 342 -10 280 -10 c 0,5,6
 232 -10 232 -10 189 4 c 128,-1,7
 146 18 146 18 115 45 c 128,-1,8
 84 72 84 72 65 110.5 c 128,-1,9
 46 149 46 149 46 199 c 0,10,11
 46 239 46 239 60.5 271 c 128,-1,12
 75 303 75 303 97.5 328.5 c 128,-1,13
 120 354 120 354 147.5 376 c 128,-1,14
 175 398 175 398 202 419 c 1,15,16
 203 422 203 422 204 422 c 128,-1,17
 205 422 205 422 206 423 c 1,18,19
 176 460 176 460 148.5 503 c 128,-1,20
 121 546 121 546 121 599 c 0,21,22
 121 632 121 632 133 656 c 128,-1,23
 145 680 145 680 165 696 c 128,-1,24
 185 712 185 712 210.5 720 c 128,-1,25
 236 728 236 728 262 728 c 128,-1,26
 288 728 288 728 313.5 720.5 c 128,-1,27
 339 713 339 713 359.5 697.5 c 128,-1,28
 380 682 380 682 392 658.5 c 128,-1,29
 404 635 404 635 404 602 c 0,30,31
 404 571 404 571 393.5 544 c 128,-1,32
 383 517 383 517 366.5 494.5 c 128,-1,33
 350 472 350 472 329 452.5 c 128,-1,34
 308 433 308 433 287 416 c 1,35,-1
 474 194 l 1,36,37
 492 241 492 241 502.5 300.5 c 128,-1,38
 513 360 513 360 514 416 c 1,39,-1
 573 413 l 1,40,41
 565 344 565 344 554.5 276.5 c 128,-1,42
 544 209 544 209 513 151 c 1,43,-1
 634 4 l 1,0,-1
184 598 m 256,44,45
 184 559 184 559 207 521 c 128,-1,46
 230 483 230 483 253 457 c 1,47,48
 266 472 266 472 281.5 487 c 128,-1,49
 297 502 297 502 310.5 518.5 c 128,-1,50
 324 535 324 535 333 554.5 c 128,-1,51
 342 574 342 574 342 598 c 0,52,53
 342 634 342 634 318 651 c 128,-1,54
 294 668 294 668 263 668 c 0,55,56
 233 668 233 668 208.5 652.5 c 128,-1,57
 184 637 184 637 184 598 c 256,44,45
275 48 m 0,58,59
 327 48 327 48 367 72.5 c 128,-1,60
 407 97 407 97 441 141 c 1,61,-1
 242 378 l 1,62,63
 226 366 226 366 203.5 347.5 c 128,-1,64
 181 329 181 329 160 306.5 c 128,-1,65
 139 284 139 284 124 260 c 128,-1,66
 109 236 109 236 109 212 c 0,67,68
 109 173 109 173 123.5 143.5 c 128,-1,69
 138 114 138 114 161 92 c 128,-1,70
 184 70 184 70 214 59 c 128,-1,71
 244 48 244 48 275 48 c 0,58,59
EndSplineSet
EndChar
StartChar: quotesingle
Encoding: 39 39 8
Width: 267
VWidth: 1494
Flags: W
HStem: 459 242<114 155>
VStem: 99 70<557.133 701>
Fore
169 587 m 1,0,-1
 155 459 l 1,1,-1
 114 459 l 1,2,-1
 99 587 l 1,3,-1
 99 701 l 1,4,-1
 169 701 l 1,5,-1
 169 587 l 1,0,-1
EndSplineSet
EndChar
StartChar: parenleft
Encoding: 40 40 9
Width: 298
VWidth: 1494
Flags: W
VStem: 55 57<141.376 471.384>
Fore
247 -120 m 1,0,-1
 202 -120 l 1,1,2
 127 -16 127 -16 91 93.5 c 128,-1,3
 55 203 55 203 55 306 c 256,4,5
 55 410 55 410 89 513.5 c 128,-1,6
 123 617 123 617 202 738 c 1,7,-1
 244 738 l 1,8,9
 176 632 176 632 144 520 c 128,-1,10
 112 408 112 408 112 303 c 0,11,12
 112 196 112 196 145 87.5 c 128,-1,13
 178 -21 178 -21 247 -120 c 1,0,-1
EndSplineSet
EndChar
StartChar: parenright
Encoding: 41 41 10
Width: 298
VWidth: 1494
Flags: W
VStem: 187 57<142.895 473.063>
Fore
52 -118 m 1,0,1
 121 -19 121 -19 154 89 c 128,-1,2
 187 197 187 197 187 305 c 0,3,4
 187 410 187 410 155 522 c 128,-1,5
 123 634 123 634 55 740 c 1,6,-1
 97 740 l 1,7,8
 176 619 176 619 210 515 c 128,-1,9
 244 411 244 411 244 308 c 256,10,11
 244 205 244 205 208 95 c 128,-1,12
 172 -15 172 -15 97 -118 c 1,13,-1
 52 -118 l 1,0,1
EndSplineSet
EndChar
StartChar: asterisk
Encoding: 42 42 11
Width: 527
VWidth: 1494
Flags: W
HStem: 510 54<395.288 427.509>
VStem: 87 352<529.292 543.743 528 543 528 528>
Fore
278 528 m 1,0,-1
 362 417 l 2,1,2
 368 407 368 407 363.5 395 c 128,-1,3
 359 383 359 383 347 380 c 0,4,5
 323 372 323 372 315 392 c 2,6,-1
 265 519 l 1,7,8
 260 507 260 507 251 487.5 c 128,-1,9
 242 468 242 468 234 448 c 128,-1,10
 226 428 226 428 218.5 410.5 c 128,-1,11
 211 393 211 393 208 387 c 1,12,13
 202 380 202 380 192 379 c 128,-1,14
 182 378 182 378 175 381 c 0,15,16
 166 386 166 386 163 395.5 c 128,-1,17
 160 405 160 405 164 413 c 0,18,19
 167 419 167 419 178.5 433.5 c 128,-1,20
 190 448 190 448 203.5 466 c 128,-1,21
 217 484 217 484 230.5 501.5 c 128,-1,22
 244 519 244 519 251 529 c 1,23,-1
 114 508 l 1,24,25
 105 505 105 505 96.5 512.5 c 128,-1,26
 88 520 88 520 87 528 c 0,27,28
 84 540 84 540 92 552 c 128,-1,29
 100 564 100 564 112 562 c 2,30,-1
 248 544 l 1,31,-1
 166 655 l 2,32,33
 158 664 158 664 163.5 676.5 c 128,-1,34
 169 689 169 689 182 692 c 1,35,36
 191 697 191 697 200 692.5 c 128,-1,37
 209 688 209 688 212 680 c 2,38,-1
 263 553 l 1,39,40
 268 564 268 564 277 583 c 128,-1,41
 286 602 286 602 294 623 c 128,-1,42
 302 644 302 644 309.5 661.5 c 128,-1,43
 317 679 317 679 320 685 c 1,44,45
 326 692 326 692 335.5 693.5 c 128,-1,46
 345 695 345 695 353 691 c 1,47,48
 360 688 360 688 364.5 677.5 c 128,-1,49
 369 667 369 667 363 659 c 1,50,51
 360 653 360 653 349 638 c 128,-1,52
 338 623 338 623 324.5 605 c 128,-1,53
 311 587 311 587 298.5 571 c 128,-1,54
 286 555 286 555 278 544 c 1,55,-1
 414 564 l 1,56,57
 425 564 425 564 432 559.5 c 128,-1,58
 439 555 439 555 439 543 c 2,59,60
 445 531 445 531 436.5 519.5 c 128,-1,61
 428 508 428 508 416 510 c 2,62,-1
 278 528 l 1,0,-1
EndSplineSet
EndChar
StartChar: plus
Encoding: 43 43 12
Width: 576
VWidth: 1494
Flags: W
HStem: 0 21G<262 315> 215 59<70 262 315 507>
VStem: 262 53<0 215 274 487 0 487 1.53064e-18 1.53064e-18>
Fore
262 487 m 1,0,-1
 315 487 l 1,1,-1
 315 274 l 1,2,-1
 507 274 l 1,3,-1
 507 215 l 1,4,-1
 315 215 l 1,5,-1
 315 0 l 1,6,-1
 262 0 l 1,7,-1
 262 215 l 1,8,-1
 70 215 l 1,9,-1
 70 274 l 1,10,-1
 262 274 l 1,11,-1
 262 487 l 1,0,-1
EndSplineSet
EndChar
StartChar: comma
Encoding: 44 44 13
Width: 298
VWidth: 1494
Flags: W
HStem: -112 220<105 146 146 146>
VStem: 82 130<-78 39 -78 -78> 90 122<8.81836 87.8912>
Fore
82 -78 m 1,0,1
 112 -66 112 -66 134.5 -42.5 c 128,-1,2
 157 -19 157 -19 160 1 c 1,3,4
 135 -9 135 -9 112.5 8 c 128,-1,5
 90 25 90 25 90 52 c 0,6,7
 90 69 90 69 105 88.5 c 128,-1,8
 120 108 120 108 146 108 c 0,9,10
 178 108 178 108 195 89 c 128,-1,11
 212 70 212 70 212 39 c 0,12,13
 212 9 212 9 201.5 -15 c 128,-1,14
 191 -39 191 -39 175.5 -58.5 c 128,-1,15
 160 -78 160 -78 140.5 -91.5 c 128,-1,16
 121 -105 121 -105 105 -112 c 1,17,18
 102 -107.5 l 2,19,20
 99 -103 99 -103 94.5 -96.5 c 128,-1,21
 90 -90 90 -90 86 -84.5 c 128,-1,22
 82 -79 82 -79 82 -78 c 1,0,1
EndSplineSet
EndChar
StartChar: hyphen
Encoding: 45 45 14
Width: 576
VWidth: 1494
Flags: W
HStem: 215 59<70 507>
VStem: 70 437<215 274 215 274 215 215>
Fore
70 274 m 1,0,-1
 507 274 l 1,1,-1
 507 215 l 1,2,-1
 70 215 l 1,3,-1
 70 274 l 1,0,-1
EndSplineSet
EndChar
StartChar: period
Encoding: 46 46 15
Width: 270
VWidth: 1494
Flags: W
HStem: 0 109<94.9252 174.075>
VStem: 81 107<17.5321 91.4679>
Fore
135 0 m 256,0,1
 108 0 108 0 94.5 17 c 128,-1,2
 81 34 81 34 81 54.5 c 128,-1,3
 81 75 81 75 94.5 92 c 128,-1,4
 108 109 108 109 135 109 c 256,5,6
 161 109 161 109 174.5 92 c 128,-1,7
 188 75 188 75 188 54.5 c 128,-1,8
 188 34 188 34 174.5 17 c 128,-1,9
 161 0 161 0 135 0 c 256,0,1
EndSplineSet
EndChar
StartChar: slash
Encoding: 47 47 16
Width: 260
VWidth: 1494
Flags: W
HStem: 723 20G<212.403 277>
VStem: -7 284<-61 743 371.537 773.89>
Fore
46 -61 m 1,0,-1
 -7 -61 l 1,1,-1
 218 743 l 1,2,-1
 277 743 l 1,3,-1
 46 -61 l 1,0,-1
EndSplineSet
EndChar
StartChar: zero
Encoding: 48 48 17
Width: 588
VWidth: 1494
Flags: W
HStem: -10 65<208.625 381.734> 670 64<233.706 377.348>
VStem: 40 62<191.868 528.407> 486 61<238.029 529.017>
Fore
294 -10 m 256,0,1
 196 -10 196 -10 132 57 c 0,2,3
 87 105 87 105 63.5 178 c 128,-1,4
 40 251 40 251 40 359 c 0,5,6
 40 486 40 486 69.5 560.5 c 128,-1,7
 99 635 99 635 139 673.5 c 128,-1,8
 179 712 179 712 222.5 723 c 128,-1,9
 266 734 266 734 294 734 c 0,10,11
 393 734 393 734 457 667 c 0,12,13
 547 573 547 573 547 359 c 0,14,15
 547 251 547 251 524.5 178 c 128,-1,16
 502 105 502 105 457 57 c 0,17,18
 393 -10 393 -10 294 -10 c 256,0,1
102 359 m 0,19,20
 102 176 102 176 175 103 c 0,21,22
 220 55 220 55 294 55 c 0,23,24
 354 55 354 55 391.5 83 c 128,-1,25
 429 111 429 111 450 154 c 128,-1,26
 471 197 471 197 478.5 251 c 128,-1,27
 486 305 486 305 486 359 c 0,28,29
 486 546 486 546 414 620 c 0,30,31
 366 670 366 670 294 670 c 0,32,33
 221 670 221 670 175 620 c 0,34,35
 102 544 102 544 102 359 c 0,19,20
EndSplineSet
EndChar
StartChar: one
Encoding: 49 49 18
Width: 426
VWidth: 1494
Flags: W
HStem: -1 21G<235 297>
VStem: 235 62<-1 602>
Fore
118 507 m 1,0,-1
 72 549 l 1,1,-1
 266 713 l 1,2,3
 278 720 278 720 288.5 718 c 128,-1,4
 299 716 299 716 312 709 c 0,5,6
 323 701 323 701 327.5 690 c 128,-1,7
 332 679 332 679 320 668 c 0,8,9
 315 665 315 665 311.5 662 c 128,-1,10
 308 659 308 659 305 656 c 0,11,12
 300 653 300 653 297 652 c 1,13,-1
 297 -1 l 1,14,-1
 235 -1 l 1,15,-1
 235 602 l 1,16,-1
 118 507 l 1,0,-1
EndSplineSet
EndChar
StartChar: two
Encoding: 50 50 19
Width: 568
VWidth: 1494
Flags: W
HStem: 0 64<55.0941 64.186 64.186 68.6962 68.6962 75 151 451>
VStem: 77.5 61<471 471.906 471.906 489.5 489.5 501.089 501.089 511.212 511.212 581.188> 429 63<464.284 583.694>
Fore
490 0 m 1,0,-1
 78 0 l 2,1,2
 57 0 57 0 49.5 3.5 c 128,-1,3
 42 7 42 7 46 33 c 0,4,5
 49 48 49 48 50.5 54.5 c 128,-1,6
 52 61 52 61 55 63.5 c 128,-1,7
 58 66 58 66 62.5 65 c 128,-1,8
 67 64 67 64 75 64 c 1,9,10
 93 97 93 97 134 138 c 128,-1,11
 175 179 175 179 221 218 c 0,12,13
 259 250 259 250 297 283.5 c 128,-1,14
 335 317 335 317 365.5 353.5 c 128,-1,15
 396 390 396 390 413.5 428 c 128,-1,16
 431 466 431 466 429 507 c 0,17,18
 426 565 426 565 396 601 c 128,-1,19
 366 637 366 637 325 649 c 128,-1,20
 284 661 284 661 239 649 c 128,-1,21
 194 637 194 637 163 598 c 0,22,23
 142 567 142 567 138.5 531.5 c 128,-1,24
 135 496 135 496 141 471 c 1,25,-1
 82 456 l 1,26,27
 79 469 79 469 77.5 489.5 c 128,-1,28
 76 510 76 510 78.5 533 c 128,-1,29
 81 556 81 556 90 582 c 128,-1,30
 99 608 99 608 117 635 c 0,31,32
 136 662 136 662 163 680 c 128,-1,33
 190 698 190 698 221.5 707 c 128,-1,34
 253 716 253 716 286.5 715.5 c 128,-1,35
 320 715 320 715 351 706 c 0,36,37
 413 688 413 688 450 637 c 128,-1,38
 487 586 487 586 492 510 c 0,39,40
 495 457 495 457 474 410 c 128,-1,41
 453 363 453 363 418 320.5 c 128,-1,42
 383 278 383 278 340 240 c 128,-1,43
 297 202 297 202 257 169 c 0,44,45
 229 145 229 145 199.5 117.5 c 128,-1,46
 170 90 170 90 151 64 c 1,47,-1
 451 64 l 1,48,-1
 480 120 l 1,49,50
 480 121 480 121 488 116.5 c 128,-1,51
 496 112 496 112 507 106 c 2,52,-1
 534 91 l 1,53,-1
 490 0 l 1,0,-1
EndSplineSet
EndChar
StartChar: three
Encoding: 51 51 20
Width: 594
VWidth: 1494
Flags: W
HStem: -9 52<260.67 380.438> 414.5 63.5<315.129 399.221> 644 63<145 389 469 492.045>
VStem: 36 57<124.583 193.33>
Fore
93 212 m 1,0,1
 106 161 106 161 130.5 127.5 c 128,-1,2
 155 94 155 94 185 74.5 c 128,-1,3
 215 55 215 55 249 47.5 c 128,-1,4
 283 40 283 40 314 43 c 0,5,6
 372 48 372 48 413 90.5 c 128,-1,7
 454 133 454 133 470 189 c 128,-1,8
 486 245 486 245 471 302 c 128,-1,9
 456 359 456 359 405 390 c 0,10,11
 363 416 363 416 321.5 414.5 c 128,-1,12
 280 413 280 413 257 401 c 0,13,14
 256 399 256 399 251.5 394.5 c 128,-1,15
 247 390 247 390 241 383 c 256,16,17
 235 375 235 375 226 366 c 0,18,19
 215 356 215 356 207 361 c 128,-1,20
 199 366 199 366 190 374 c 0,21,22
 179 384 179 384 176 391.5 c 128,-1,23
 173 399 173 399 181 408 c 2,24,-1
 389 644 l 1,25,-1
 145 644 l 1,26,-1
 114 553 l 1,27,28
 99 561 99 561 87 567 c 0,29,30
 76 571 76 571 68 574.5 c 128,-1,31
 60 578 60 578 60 580 c 2,32,-1
 99 707 l 1,33,-1
 481 707 l 2,34,35
 495 707 495 707 499.5 702 c 128,-1,36
 504 697 504 697 499 676 c 0,37,38
 495 652 495 652 492.5 648 c 128,-1,39
 490 644 490 644 477 644 c 2,40,-1
 469 644 l 1,41,-1
 315 478 l 1,42,43
 377 478 377 478 433 447 c 0,44,45
 448 438 448 438 464.5 424.5 c 128,-1,46
 481 411 481 411 496 391 c 128,-1,47
 511 371 511 371 521.5 343 c 128,-1,48
 532 315 532 315 535 280 c 0,49,50
 541 214 541 214 523 161.5 c 128,-1,51
 505 109 505 109 473.5 71 c 128,-1,52
 442 33 442 33 401 12 c 128,-1,53
 360 -9 360 -9 318 -9 c 0,54,55
 275 -9 275 -9 233 -1.5 c 128,-1,56
 191 6 191 6 154 27.5 c 128,-1,57
 117 49 117 49 86 89.5 c 128,-1,58
 55 130 55 130 36 194 c 1,59,-1
 93 212 l 1,0,1
EndSplineSet
EndChar
StartChar: four
Encoding: 52 52 21
Width: 541
VWidth: 1494
Flags: W
HStem: 0 21G<365 428> 160 60<102 365 428 525>
VStem: 365 63<0 160 220 573>
Fore
365 220 m 1,0,-1
 365 573 l 1,1,-1
 102 220 l 1,2,-1
 365 220 l 1,0,-1
365 160 m 1,3,-1
 40 160 l 2,4,5
 36 160 36 160 30.5 164.5 c 128,-1,6
 25 169 25 169 20.5 177 c 128,-1,7
 16 185 16 185 15.5 194 c 128,-1,8
 15 203 15 203 19 211 c 2,9,-1
 395 713 l 2,10,11
 401 723 401 723 409 719.5 c 128,-1,12
 417 716 417 716 424 707 c 128,-1,13
 431 698 431 698 435 688.5 c 128,-1,14
 439 679 439 679 436 676 c 1,15,-1
 428 658 l 1,16,-1
 428 220 l 1,17,-1
 525 220 l 1,18,-1
 525 160 l 1,19,-1
 428 160 l 1,20,-1
 428 0 l 1,21,-1
 365 0 l 1,22,-1
 365 160 l 1,3,-1
EndSplineSet
EndChar
StartChar: five
Encoding: 53 53 22
Width: 594
VWidth: 1494
Flags: W
HStem: 647 63<181 516>
VStem: 483.5 62<210.348 245.5 245.5 300.38>
Fore
66 338 m 1,0,1
 70 353 70 353 77 391 c 128,-1,2
 84 429 84 429 91.5 476 c 128,-1,3
 99 523 99 523 106.5 571 c 128,-1,4
 114 619 114 619 118 655 c 1,5,6
 114 658 114 658 110 665.5 c 128,-1,7
 106 673 106 673 111 689 c 256,8,9
 115 706 115 706 121 708 c 128,-1,10
 127 710 127 710 142 710 c 2,11,-1
 516 710 l 1,12,-1
 516 647 l 1,13,-1
 181 647 l 1,14,15
 178 616 178 616 166.5 560 c 128,-1,16
 155 504 155 504 148 448 c 1,17,18
 256 529 256 529 378 498 c 0,19,20
 436 483 436 483 472 448.5 c 128,-1,21
 508 414 508 414 526 369 c 128,-1,22
 544 324 544 324 545.5 274 c 128,-1,23
 547 224 547 224 537 179 c 0,24,25
 529 148 529 148 513.5 119 c 128,-1,26
 498 90 498 90 474.5 65 c 128,-1,27
 451 40 451 40 421.5 22 c 128,-1,28
 392 4 392 4 357 -4 c 0,29,30
 335 -10 335 -10 303.5 -12.5 c 128,-1,31
 272 -15 272 -15 235.5 -7 c 128,-1,32
 199 1 199 1 158 23 c 128,-1,33
 117 45 117 45 75 87 c 1,34,-1
 117 133 l 1,35,36
 179 76 179 76 228 58 c 128,-1,37
 277 40 277 40 338 55 c 0,38,39
 390 67 390 67 427.5 107.5 c 128,-1,40
 465 148 465 148 477 193 c 0,41,42
 481 211 481 211 483.5 245.5 c 128,-1,43
 486 280 486 280 476 318 c 128,-1,44
 466 356 466 356 439.5 389.5 c 128,-1,45
 413 423 413 423 357 438 c 0,46,47
 278 459 278 459 215 425.5 c 128,-1,48
 152 392 152 392 121 317 c 1,49,50
 106 323 106 323 94 327 c 0,51,52
 84 330 84 330 75.5 333 c 128,-1,53
 67 336 67 336 66 338 c 1,0,1
EndSplineSet
EndChar
StartChar: six
Encoding: 54 54 23
Width: 605
VWidth: 1494
Flags: W
HStem: 532 21G<478 537>
VStem: 56 491<327 338.5 338.5 339 281 397.5 397.5 397.5> 484 53<533.875 618.813>
Fore
450 102 m 0,0,1
 475 135 475 135 485.5 177.5 c 128,-1,2
 496 220 496 220 489 271 c 0,3,4
 481 324 481 324 451.5 360 c 128,-1,5
 422 396 422 396 380 409.5 c 128,-1,6
 338 423 338 423 291.5 414 c 128,-1,7
 245 405 245 405 206 372 c 0,8,9
 191 359 191 359 176 338.5 c 128,-1,10
 161 318 161 318 151.5 292 c 128,-1,11
 142 266 142 266 140 234.5 c 128,-1,12
 138 203 138 203 146 166 c 0,13,14
 158 121 158 121 195 89 c 128,-1,15
 232 57 232 57 277.5 45.5 c 128,-1,16
 323 34 323 34 370 47 c 128,-1,17
 417 60 417 60 450 102 c 0,0,1
484 532 m 1,18,19
 472 584 472 584 436.5 617 c 128,-1,20
 401 650 401 650 356 659 c 128,-1,21
 311 668 311 668 263 652.5 c 128,-1,22
 215 637 215 637 182 592 c 0,23,24
 166 570 166 570 152 537.5 c 128,-1,25
 138 505 138 505 128 468.5 c 128,-1,26
 118 432 118 432 113 394.5 c 128,-1,27
 108 357 108 357 111 326 c 1,28,29
 135 384 135 384 174.5 419 c 128,-1,30
 214 454 214 454 258.5 468.5 c 128,-1,31
 303 483 303 483 351 477.5 c 128,-1,32
 399 472 399 472 439.5 447.5 c 128,-1,33
 480 423 480 423 509 381 c 128,-1,34
 538 339 538 339 547 281 c 0,35,36
 558 218 558 218 544.5 162 c 128,-1,37
 531 106 531 106 497 65 c 128,-1,38
 463 24 463 24 411.5 2.5 c 128,-1,39
 360 -19 360 -19 296 -15 c 0,40,41
 223 -10 223 -10 173 28.5 c 128,-1,42
 123 67 123 67 94.5 125.5 c 128,-1,43
 66 184 66 184 57 255.5 c 128,-1,44
 48 327 48 327 56 397.5 c 128,-1,45
 64 468 64 468 86.5 530.5 c 128,-1,46
 109 593 109 593 145 635 c 0,47,48
 187 686 187 686 247.5 705.5 c 128,-1,49
 308 725 308 725 366.5 714.5 c 128,-1,50
 425 704 425 704 472 662 c 128,-1,51
 519 620 519 620 537 547 c 1,52,-1
 484 532 l 1,18,19
EndSplineSet
EndChar
StartChar: seven
Encoding: 55 55 24
Width: 542
VWidth: 1494
Flags: W
HStem: -1 21G<194 262.5> 646 63<99 439 499.095 516.465>
VStem: 30 496.5<664.884 690.73> 194 62<4.38892 152.896> 437 59.5<599.802 604.242 604.242 616.727 616.727 623.5 623.5 628.635 628.635 643>
Fore
49 553 m 1,0,1
 43 584 43 584 39 611 c 0,2,3
 36 634 36 634 33 653.5 c 128,-1,4
 30 673 30 673 30 676 c 0,5,6
 30 689 30 689 39 699 c 128,-1,7
 48 709 48 709 61 709 c 2,8,-1
 510 709 l 2,9,10
 522 709 522 709 526.5 697.5 c 128,-1,11
 531 686 531 686 519 652 c 0,12,13
 516 643 516 643 509 643.5 c 128,-1,14
 502 644 502 644 499 643 c 1,15,16
 496 625 496 625 497 614.5 c 128,-1,17
 498 604 498 604 496.5 594 c 128,-1,18
 495 584 495 584 489 571.5 c 128,-1,19
 483 559 483 559 466 538 c 0,20,21
 383 429 383 429 326 288.5 c 128,-1,22
 269 148 269 148 256 -1 c 1,23,-1
 194 -1 l 1,24,25
 203 75 203 75 222.5 153.5 c 128,-1,26
 242 232 242 232 270.5 307.5 c 128,-1,27
 299 383 299 383 335.5 451.5 c 128,-1,28
 372 520 372 520 416 575 c 0,29,30
 428 590 428 590 432 597 c 128,-1,31
 436 604 436 604 437 610 c 128,-1,32
 438 616 438 616 438 623.5 c 128,-1,33
 438 631 438 631 439 646 c 1,34,-1
 99 646 l 1,35,-1
 109 573 l 1,36,-1
 49 553 l 1,0,1
EndSplineSet
EndChar
StartChar: eight
Encoding: 56 56 25
Width: 606
VWidth: 1494
Flags: W
HStem: -18 54<236.212 395.189> 389 62<269.797 370.452> 665 64<250.74 352.868>
VStem: 51 66<134.356 290.499> 117 64<496.671 618.556> 422 62<509.223 601.064> 483 67<121.983 289.369>
Fore
481 377 m 0,0,1
 513 344 513 344 531.5 302 c 128,-1,2
 550 260 550 260 550 215 c 0,3,4
 550 164 550 164 530 121.5 c 128,-1,5
 510 79 510 79 476 47.5 c 128,-1,6
 442 16 442 16 396.5 -1 c 128,-1,7
 351 -18 351 -18 300 -18 c 0,8,9
 248 -18 248 -18 202.5 0 c 128,-1,10
 157 18 157 18 123.5 49.5 c 128,-1,11
 90 81 90 81 70.5 123.5 c 128,-1,12
 51 166 51 166 51 215 c 0,13,14
 51 287 51 287 90.5 341 c 128,-1,15
 130 395 130 395 191 420 c 1,16,17
 155 444 155 444 136 480.5 c 128,-1,18
 117 517 117 517 117 558 c 0,19,20
 117 593 117 593 130.5 624.5 c 128,-1,21
 144 656 144 656 167.5 679.5 c 128,-1,22
 191 703 191 703 225.5 716 c 128,-1,23
 260 729 260 729 300 729 c 0,24,25
 380 729 380 729 432 681.5 c 128,-1,26
 484 634 484 634 484 558 c 0,27,28
 484 526 484 526 473 496 c 128,-1,29
 462 466 462 466 438 445 c 0,30,31
 431 439 431 439 425 432 c 128,-1,32
 419 425 419 425 411 422 c 1,33,34
 431 413 431 413 448.5 402.5 c 128,-1,35
 466 392 466 392 481 377 c 0,0,1
208 625 m 0,36,37
 181 596 181 596 181 558 c 128,-1,38
 181 520 181 520 208 490 c 0,39,40
 229 471 229 471 250.5 461 c 128,-1,41
 272 451 272 451 300 451 c 0,42,43
 353 451 353 451 387.5 482.5 c 128,-1,44
 422 514 422 514 422 558 c 0,45,46
 422 581 422 581 411.5 601.5 c 128,-1,47
 401 622 401 622 384.5 636 c 128,-1,48
 368 650 368 650 345.5 657.5 c 128,-1,49
 323 665 323 665 300 665 c 0,50,51
 272 665 272 665 250.5 654.5 c 128,-1,52
 229 644 229 644 208 625 c 0,36,37
300 36 m 0,53,54
 381 36 381 36 432 84 c 128,-1,55
 483 132 483 132 483 215 c 0,56,57
 483 251 483 251 468.5 283 c 128,-1,58
 454 315 454 315 429.5 338.5 c 128,-1,59
 405 362 405 362 371.5 375.5 c 128,-1,60
 338 389 338 389 300 389 c 128,-1,61
 262 389 262 389 229 375.5 c 128,-1,62
 196 362 196 362 170.5 338.5 c 128,-1,63
 145 315 145 315 131 284 c 128,-1,64
 117 253 117 253 117 215 c 0,65,66
 117 175 117 175 131.5 141.5 c 128,-1,67
 146 108 146 108 171 84.5 c 128,-1,68
 196 61 196 61 229.5 48.5 c 128,-1,69
 263 36 263 36 300 36 c 0,53,54
EndSplineSet
EndChar
StartChar: nine
Encoding: 57 57 26
Width: 605
VWidth: 1494
Flags: W
HStem: 670 62<209.706 381.756>
VStem: 60 55<421.5 439 439 519.719> 480 66.5<222.081 333>
Fore
115 152 m 1,0,1
 124 112 124 112 166.5 82 c 128,-1,2
 209 52 209 52 260 45 c 0,3,4
 324 37 324 37 367.5 65.5 c 128,-1,5
 411 94 411 94 438 138 c 0,6,7
 459 170 459 170 468 220.5 c 128,-1,8
 477 271 477 271 480 333 c 1,9,10
 459 299 459 299 427 276 c 128,-1,11
 395 253 395 253 356 243 c 128,-1,12
 317 233 317 233 275 235.5 c 128,-1,13
 233 238 233 238 194 254 c 0,14,15
 136 278 136 278 101.5 323 c 128,-1,16
 67 368 67 368 54.5 421.5 c 128,-1,17
 42 475 42 475 51.5 531 c 128,-1,18
 61 587 61 587 92.5 633 c 128,-1,19
 124 679 124 679 176.5 707 c 128,-1,20
 229 735 229 735 302 732 c 0,21,22
 442 728 442 728 504 613 c 0,23,24
 531 562 531 562 540.5 489 c 128,-1,25
 550 416 550 416 546.5 342 c 128,-1,26
 543 268 543 268 528 203 c 128,-1,27
 513 138 513 138 490 103 c 0,28,29
 451 40 451 40 393.5 11 c 128,-1,30
 336 -18 336 -18 251 -10 c 0,31,32
 182 -3 182 -3 129 31.5 c 128,-1,33
 76 66 76 66 60 123 c 1,34,-1
 115 152 l 1,0,1
408 329 m 0,35,36
 448 362 448 362 463 418 c 128,-1,37
 478 474 478 474 465.5 529 c 128,-1,38
 453 584 453 584 412 625.5 c 128,-1,39
 371 667 371 667 299 670 c 0,40,41
 247 671 247 671 208.5 650 c 128,-1,42
 170 629 170 629 147 595.5 c 128,-1,43
 124 562 124 562 116.5 521 c 128,-1,44
 109 480 109 480 118 439 c 128,-1,45
 127 398 127 398 152.5 363.5 c 128,-1,46
 178 329 178 329 220 309 c 0,47,48
 266 288 266 288 319 293.5 c 128,-1,49
 372 299 372 299 408 329 c 0,35,36
EndSplineSet
EndChar
StartChar: colon
Encoding: 58 58 27
Width: 297
VWidth: 1494
Flags: W
HStem: -1 109<110.925 191.075> 390 109<110.925 191.075>
VStem: 97 108<16.532 89.9525 408.047 481.468>
Fore
151 390 m 256,0,1
 124 390 124 390 110.5 407.5 c 128,-1,2
 97 425 97 425 97 445 c 128,-1,3
 97 465 97 465 110.5 482 c 128,-1,4
 124 499 124 499 151 499 c 256,5,6
 178 499 178 499 191.5 482 c 128,-1,7
 205 465 205 465 205 445 c 128,-1,8
 205 425 205 425 191.5 407.5 c 128,-1,9
 178 390 178 390 151 390 c 256,0,1
151 -1 m 256,10,11
 124 -1 124 -1 110.5 16 c 128,-1,12
 97 33 97 33 97 53 c 128,-1,13
 97 73 97 73 110.5 90.5 c 128,-1,14
 124 108 124 108 151 108 c 256,15,16
 178 108 178 108 191.5 90.5 c 128,-1,17
 205 73 205 73 205 53 c 128,-1,18
 205 33 205 33 191.5 16 c 128,-1,19
 178 -1 178 -1 151 -1 c 256,10,11
EndSplineSet
EndChar
StartChar: semicolon
Encoding: 59 59 28
Width: 298
VWidth: 1494
Flags: W
HStem: 390 109<110.925 191.075>
VStem: 85 130<-78 39 -78 -78> 93 122<8.81836 87.8912> 97 108<408.047 481.468>
Fore
151 390 m 256,0,1
 124 390 124 390 110.5 407.5 c 128,-1,2
 97 425 97 425 97 445 c 128,-1,3
 97 465 97 465 110.5 482 c 128,-1,4
 124 499 124 499 151 499 c 256,5,6
 178 499 178 499 191.5 482 c 128,-1,7
 205 465 205 465 205 445 c 128,-1,8
 205 425 205 425 191.5 407.5 c 128,-1,9
 178 390 178 390 151 390 c 256,0,1
85 -78 m 1,10,11
 115 -66 115 -66 137.5 -42.5 c 128,-1,12
 160 -19 160 -19 163 1 c 1,13,14
 138 -9 138 -9 115.5 8 c 128,-1,15
 93 25 93 25 93 52 c 0,16,17
 93 69 93 69 108 88.5 c 128,-1,18
 123 108 123 108 149 108 c 0,19,20
 181 108 181 108 198 89 c 128,-1,21
 215 70 215 70 215 39 c 0,22,23
 215 9 215 9 204.5 -15 c 128,-1,24
 194 -39 194 -39 178.5 -58.5 c 128,-1,25
 163 -78 163 -78 143.5 -91.5 c 128,-1,26
 124 -105 124 -105 108 -112 c 1,27,28
 105 -107.5 l 2,29,30
 102 -103 102 -103 97.5 -96.5 c 128,-1,31
 93 -90 93 -90 89 -84.5 c 128,-1,32
 85 -79 85 -79 85 -78 c 1,10,11
EndSplineSet
EndChar
StartChar: less
Encoding: 60 60 29
Width: 615
VWidth: 1494
Flags: W
HStem: -12 21G<508.835 549>
VStem: 63 486<230 445 230 230>
Fore
549 445 m 1,0,-1
 124 256 l 1,1,-1
 549 52 l 1,2,-1
 549 -12 l 1,3,-1
 63 230 l 1,4,-1
 63 283 l 1,5,-1
 549 510 l 1,6,-1
 549 445 l 1,0,-1
EndSplineSet
EndChar
StartChar: equal
Encoding: 61 61 30
Width: 636
VWidth: 1494
Flags: W
HStem: 126 59<73 559> 329 57<73 559>
VStem: 73 486<126 185 329 386 126 386 126 126>
Fore
559 329 m 1,0,-1
 73 329 l 1,1,-1
 73 386 l 1,2,-1
 559 386 l 1,3,-1
 559 329 l 1,0,-1
559 126 m 1,4,-1
 73 126 l 1,5,-1
 73 185 l 1,6,-1
 559 185 l 1,7,-1
 559 126 l 1,4,-1
EndSplineSet
EndChar
StartChar: greater
Encoding: 62 62 31
Width: 600
VWidth: 1494
Flags: W
HStem: -12 21G<61 101.165>
VStem: 61 486<283 510 510 510>
Fore
61 510 m 1,0,-1
 547 283 l 1,1,-1
 547 230 l 1,2,-1
 61 -12 l 1,3,-1
 61 52 l 1,4,-1
 486 256 l 1,5,-1
 61 445 l 1,6,-1
 61 510 l 1,0,-1
EndSplineSet
EndChar
StartChar: question
Encoding: 63 63 32
Width: 518
VWidth: 1494
Flags: W
HStem: 1 111<222.018 299.983>
VStem: 205 112<17.5022 96.0138> 232 59<154 317.552>
Fore
375 399 m 0,0,1
 342 360 342 360 316.5 323.5 c 128,-1,2
 291 287 291 287 291 239 c 2,3,-1
 291 154 l 1,4,-1
 232 154 l 1,5,-1
 232 239 l 2,6,7
 232 303 232 303 264 350.5 c 128,-1,8
 296 398 296 398 332 438 c 0,9,10
 377 489 377 489 386.5 536.5 c 128,-1,11
 396 584 396 584 368 632 c 0,12,13
 353 658 353 658 318 671.5 c 128,-1,14
 283 685 283 685 241 680 c 0,15,16
 193 674 193 674 164 643.5 c 128,-1,17
 135 613 135 613 123 578 c 1,18,-1
 69 608 l 1,19,20
 87 659 87 659 127 692.5 c 128,-1,21
 167 726 167 726 226 734 c 0,22,23
 284 743 284 743 337 727.5 c 128,-1,24
 390 712 390 712 417 670 c 0,25,26
 444 629 444 629 449 592 c 128,-1,27
 454 555 454 555 445 520.5 c 128,-1,28
 436 486 436 486 417 455.5 c 128,-1,29
 398 425 398 425 375 399 c 0,0,1
317 58 m 0,30,31
 317 33 317 33 300.5 17 c 128,-1,32
 284 1 284 1 263 1 c 0,33,34
 238 1 238 1 221.5 17 c 128,-1,35
 205 33 205 33 205 58 c 0,36,37
 205 81 205 81 221.5 96.5 c 128,-1,38
 238 112 238 112 263 112 c 0,39,40
 284 112 284 112 300.5 96.5 c 128,-1,41
 317 81 317 81 317 58 c 0,30,31
EndSplineSet
EndChar
StartChar: at
Encoding: 64 64 33
Width: 820
VWidth: 1494
Flags: W
HStem: -24.5 46<300.828 520.474> 537 41<398.215 481.742> 682 46<307.424 540.073>
VStem: 58 48<223.818 472.655> 234 46<245.61 364.005> 711 38.5<257.947 312.5 312.5 365.201 365.201 449.806>
Fore
744 495 m 0,0,1
 753 451 753 451 755.5 404 c 128,-1,2
 758 357 758 357 749.5 312.5 c 128,-1,3
 741 268 741 268 721 229.5 c 128,-1,4
 701 191 701 191 667 166 c 0,5,6
 644 149 644 149 613.5 142 c 128,-1,7
 583 135 583 135 555.5 140 c 128,-1,8
 528 145 528 145 507 164.5 c 128,-1,9
 486 184 486 184 484 221 c 1,10,11
 478 200 478 200 463 184.5 c 128,-1,12
 448 169 448 169 427.5 158.5 c 128,-1,13
 407 148 407 148 383 145 c 128,-1,14
 359 142 359 142 335 148 c 0,15,16
 300 157 300 157 278 183 c 128,-1,17
 256 209 256 209 245.5 244.5 c 128,-1,18
 235 280 235 280 234 319.5 c 128,-1,19
 233 359 233 359 242 395 c 0,20,21
 250 428 250 428 267 461.5 c 128,-1,22
 284 495 284 495 309.5 522 c 128,-1,23
 335 549 335 549 368 564.5 c 128,-1,24
 401 580 401 580 441 578 c 0,25,26
 469 577 469 577 491 561.5 c 128,-1,27
 513 546 513 546 520 517 c 1,28,-1
 531 577 l 1,29,-1
 578 577 l 1,30,31
 567 507 567 507 552.5 427.5 c 128,-1,32
 538 348 538 348 526 277 c 0,33,34
 519 232 519 232 533 207 c 128,-1,35
 547 182 547 182 572.5 177 c 128,-1,36
 598 172 598 172 628 188.5 c 128,-1,37
 658 205 658 205 680.5 241.5 c 128,-1,38
 703 278 703 278 711 337 c 128,-1,39
 719 396 719 396 703 477 c 0,40,41
 682 574 682 574 605.5 628 c 128,-1,42
 529 682 529 682 422 682 c 0,43,44
 351 682 351 682 293 654 c 128,-1,45
 235 626 235 626 193 580.5 c 128,-1,46
 151 535 151 535 128.5 474.5 c 128,-1,47
 106 414 106 414 106 347 c 0,48,49
 106 257 106 257 146.5 184 c 128,-1,50
 187 111 187 111 252.5 68 c 128,-1,51
 318 25 318 25 402 21.5 c 128,-1,52
 486 18 486 18 574 66 c 1,53,-1
 574 21 l 1,54,55
 484 -28 484 -28 393 -24.5 c 128,-1,56
 302 -21 302 -21 227 26 c 128,-1,57
 152 73 152 73 105 157 c 128,-1,58
 58 241 58 241 58 351 c 0,59,60
 58 428 58 428 86 496.5 c 128,-1,61
 114 565 114 565 162.5 616.5 c 128,-1,62
 211 668 211 668 277.5 698 c 128,-1,63
 344 728 344 728 422 728 c 0,64,65
 484 728 484 728 538 711 c 128,-1,66
 592 694 592 694 634.5 662.5 c 128,-1,67
 677 631 677 631 704.5 588.5 c 128,-1,68
 732 546 732 546 744 495 c 0,0,1
496 336 m 0,69,70
 514 425 514 425 498.5 481 c 128,-1,71
 483 537 483 537 431 537 c 0,72,73
 393 537 393 537 363 513.5 c 128,-1,74
 333 490 333 490 313.5 454.5 c 128,-1,75
 294 419 294 419 285.5 376 c 128,-1,76
 277 333 277 333 280 295 c 128,-1,77
 283 257 283 257 298.5 228 c 128,-1,78
 314 199 314 199 344 190 c 0,79,80
 375 181 375 181 400 190 c 128,-1,81
 425 199 425 199 443.5 220 c 128,-1,82
 462 241 462 241 475.5 271.5 c 128,-1,83
 489 302 489 302 496 336 c 0,69,70
EndSplineSet
EndChar
StartChar: A
Encoding: 65 65 34
Width: 612
VWidth: 1494
Flags: W
HStem: -12 21G<9 73.5 536.788 602> 196 49<163 450>
Fore
602 0 m 1,0,-1
 544 -12 l 1,1,-1
 469 196 l 1,2,-1
 144 196 l 1,3,-1
 66 -12 l 1,4,-1
 9 0 l 1,5,6
 82 193 82 193 141 345 c 2,7,-1
 272 692 l 2,8,9
 281 713 281 713 293.5 721 c 128,-1,10
 306 729 306 729 311 731 c 0,11,12
 323 732 323 732 335.5 721 c 128,-1,13
 348 710 348 710 351 704 c 0,14,15
 354 700 354 700 350.5 694 c 128,-1,16
 347 688 347 688 344 685 c 1,17,-1
 602 0 l 1,0,-1
450 245 m 1,18,-1
 305 622 l 1,19,-1
 163 245 l 1,20,-1
 450 245 l 1,18,-1
EndSplineSet
EndChar
StartChar: B
Encoding: 66 66 35
Width: 584
VWidth: 1494
Flags: W
HStem: 0 58<144 403.7> 341 55<145 283 357 357.341> 650 59<145 370.388>
VStem: 87 58<58 341 396 649.807> 420 58<475.508 591.637> 462 57<114.818 248.695>
Fore
145 396 m 1,0,-1
 269 396 l 2,1,2
 332 396 332 396 376 430.5 c 128,-1,3
 420 465 420 465 420 531 c 0,4,5
 420 593 420 593 389.5 621.5 c 128,-1,6
 359 650 359 650 280 650 c 2,7,-1
 145 650 l 1,8,-1
 145 396 l 1,0,-1
305 58 m 2,9,10
 462 58 462 58 462 197 c 0,11,12
 462 226 462 226 452 251.5 c 128,-1,13
 442 277 442 277 420.5 297 c 128,-1,14
 399 317 399 317 364.5 329 c 128,-1,15
 330 341 330 341 283 341 c 2,16,-1
 144 341 l 1,17,-1
 144 58 l 1,18,-1
 305 58 l 2,9,10
87 638 m 2,19,20
 87 652 87 652 82.5 660 c 128,-1,21
 78 668 78 668 72.5 673.5 c 128,-1,22
 67 679 67 679 63.5 683.5 c 128,-1,23
 60 688 60 688 61 695 c 1,24,25
 64 703 64 703 73 714.5 c 128,-1,26
 82 726 82 726 97 726 c 0,27,28
 102 726 102 726 109.5 721 c 128,-1,29
 117 716 117 716 123 709 c 1,30,-1
 291 709 l 2,31,32
 336 709 336 709 371.5 694.5 c 128,-1,33
 407 680 407 680 430.5 656 c 128,-1,34
 454 632 454 632 466 601 c 128,-1,35
 478 570 478 570 478 537 c 0,36,37
 478 499 478 499 467 470.5 c 128,-1,38
 456 442 456 442 439 422 c 128,-1,39
 422 402 422 402 400 390 c 128,-1,40
 378 378 378 378 357 375 c 1,41,42
 386 372 386 372 414 358.5 c 128,-1,43
 442 345 442 345 465.5 322.5 c 128,-1,44
 489 300 489 300 504 269 c 128,-1,45
 519 238 519 238 519 199 c 0,46,47
 519 100 519 100 466 50 c 128,-1,48
 413 0 413 0 332 0 c 2,49,-1
 87 0 l 1,50,-1
 87 638 l 2,19,20
EndSplineSet
EndChar
StartChar: C
Encoding: 67 67 36
Width: 597
VWidth: 1494
Flags: W
VStem: 54 63<210.776 488.521>
Fore
555 58 m 1,0,1
 493 1 493 1 411 -13 c 128,-1,2
 329 -27 329 -27 254 3 c 0,3,4
 226 13 226 13 191.5 35.5 c 128,-1,5
 157 58 157 58 126.5 98.5 c 128,-1,6
 96 139 96 139 75 200.5 c 128,-1,7
 54 262 54 262 54 350 c 0,8,9
 54 439 54 439 75 500.5 c 128,-1,10
 96 562 96 562 126.5 602.5 c 128,-1,11
 157 643 157 643 191.5 665.5 c 128,-1,12
 226 688 226 688 254 698 c 0,13,14
 327 725 327 725 404 711 c 128,-1,15
 481 697 481 697 537 647 c 1,16,-1
 510 589 l 1,17,18
 489 611 489 611 461 626 c 128,-1,19
 433 641 433 641 402 648 c 128,-1,20
 371 655 371 655 338 653.5 c 128,-1,21
 305 652 305 652 275 640 c 0,22,23
 200 611 200 611 158.5 534 c 128,-1,24
 117 457 117 457 117 350 c 256,25,26
 117 242 117 242 158.5 166 c 128,-1,27
 200 90 200 90 275 61 c 0,28,29
 302 51 302 51 335 48 c 128,-1,30
 368 45 368 45 400 49.5 c 128,-1,31
 432 54 432 54 462 68 c 128,-1,32
 492 82 492 82 514 108 c 1,33,-1
 555 58 l 1,0,1
EndSplineSet
EndChar
StartChar: D
Encoding: 68 68 37
Width: 674
VWidth: 1494
Flags: W
HStem: 0 58<138 385.309> 650 59<138 354.123>
VStem: 79 59<58 649.807> 556 63<232.305 480.613>
Fore
79 638 m 2,0,1
 79 652 79 652 74.5 660 c 128,-1,2
 70 668 70 668 65 673.5 c 128,-1,3
 60 679 60 679 56 683.5 c 128,-1,4
 52 688 52 688 54 695 c 1,5,6
 57 703 57 703 66 714.5 c 128,-1,7
 75 726 75 726 90 726 c 0,8,9
 94 726 94 726 101.5 721 c 128,-1,10
 109 716 109 716 115 709 c 1,11,-1
 253 709 l 2,12,13
 330 709 330 709 397.5 686.5 c 128,-1,14
 465 664 465 664 514.5 619.5 c 128,-1,15
 564 575 564 575 591.5 508.5 c 128,-1,16
 619 442 619 442 619 356 c 0,17,18
 619 268 619 268 591.5 201.5 c 128,-1,19
 564 135 564 135 514.5 90 c 128,-1,20
 465 45 465 45 397.5 22.5 c 128,-1,21
 330 0 330 0 253 0 c 2,22,-1
 79 0 l 1,23,-1
 79 638 l 2,0,1
266 58 m 2,24,25
 333 58 333 58 387 79 c 128,-1,26
 441 100 441 100 478.5 139.5 c 128,-1,27
 516 179 516 179 536 233.5 c 128,-1,28
 556 288 556 288 556 356 c 0,29,30
 556 433 556 433 530.5 489.5 c 128,-1,31
 505 546 505 546 460.5 581.5 c 128,-1,32
 416 617 416 617 356 633.5 c 128,-1,33
 296 650 296 650 227 650 c 2,34,-1
 138 650 l 1,35,-1
 138 58 l 1,36,-1
 266 58 l 2,24,25
EndSplineSet
EndChar
StartChar: E
Encoding: 69 69 38
Width: 511
VWidth: 1494
Flags: W
HStem: 0 58<146 454> 338 58<146 423> 650 59<146 456>
VStem: 87 59<58 338 396 649.807>
Fore
87 638 m 2,0,1
 87 652 87 652 82.5 660 c 128,-1,2
 78 668 78 668 72.5 673.5 c 128,-1,3
 67 679 67 679 63.5 683.5 c 128,-1,4
 60 688 60 688 61 695 c 1,5,6
 64 703 64 703 73 714.5 c 128,-1,7
 82 726 82 726 97 726 c 0,8,9
 102 726 102 726 109.5 721 c 128,-1,10
 117 716 117 716 123 709 c 1,11,-1
 456 709 l 1,12,-1
 456 650 l 1,13,-1
 146 650 l 1,14,-1
 146 396 l 1,15,-1
 423 396 l 1,16,-1
 423 338 l 1,17,-1
 146 338 l 1,18,-1
 146 58 l 1,19,-1
 454 58 l 1,20,-1
 454 0 l 1,21,-1
 87 0 l 1,22,-1
 87 638 l 2,0,1
EndSplineSet
EndChar
StartChar: F
Encoding: 70 70 39
Width: 499
VWidth: 1494
Flags: W
HStem: 0 21G<84 144> 338 58<144 420> 650 59<144 453>
VStem: 84 60<0 338 396 649.807>
Fore
84 638 m 2,0,1
 84 652 84 652 79.5 660 c 128,-1,2
 75 668 75 668 69.5 673.5 c 128,-1,3
 64 679 64 679 60.5 683.5 c 128,-1,4
 57 688 57 688 58 695 c 1,5,6
 61 703 61 703 70 714.5 c 128,-1,7
 79 726 79 726 94 726 c 0,8,9
 99 726 99 726 106.5 721 c 128,-1,10
 114 716 114 716 120 709 c 1,11,-1
 453 709 l 5,12,-1
 453 650 l 1,13,-1
 144 650 l 1,14,-1
 144 396 l 1,15,-1
 420 396 l 1,16,-1
 420 338 l 1,17,-1
 144 338 l 1,18,-1
 144 0 l 1,19,-1
 84 0 l 1,20,-1
 84 638 l 2,0,1
EndSplineSet
EndChar
StartChar: G
Encoding: 71 71 40
Width: 630
VWidth: 1494
Flags: W
HStem: -19 58<250.017 400.352> 299 58<336 499> 661 58<239.697 392.003>
VStem: 57 60<214.972 448.81> 499 57<70 298.944>
Fore
520 357 m 1,0,1
 531 371 531 371 543 371 c 0,2,3
 558 371 558 371 566.5 359 c 128,-1,4
 575 347 575 347 578 339 c 1,5,6
 580 332 580 332 577 328 c 128,-1,7
 574 324 574 324 569.5 319.5 c 128,-1,8
 565 315 565 315 560.5 307.5 c 128,-1,9
 556 300 556 300 556 287 c 2,10,-1
 556 24 l 1,11,12
 499 -1 499 -1 444.5 -10 c 128,-1,13
 390 -19 390 -19 327 -19 c 0,14,15
 262 -19 262 -19 211.5 7.5 c 128,-1,16
 161 34 161 34 127 83.5 c 128,-1,17
 93 133 93 133 75 201 c 128,-1,18
 57 269 57 269 57 351 c 0,19,20
 57 420 57 420 73.5 486 c 128,-1,21
 90 552 90 552 122.5 603.5 c 128,-1,22
 155 655 155 655 206 687 c 128,-1,23
 257 719 257 719 327 719 c 0,24,25
 363 719 363 719 398 709.5 c 128,-1,26
 433 700 433 700 462.5 681 c 128,-1,27
 492 662 492 662 514.5 633 c 128,-1,28
 537 604 537 604 546 567 c 1,29,-1
 484 544 l 1,30,31
 471 604 471 604 426 632.5 c 128,-1,32
 381 661 381 661 327 661 c 0,33,34
 269 661 269 661 229.5 633 c 128,-1,35
 190 605 190 605 164.5 561 c 128,-1,36
 139 517 139 517 128 462 c 128,-1,37
 117 407 117 407 117 351 c 0,38,39
 117 283 117 283 130.5 225 c 128,-1,40
 144 167 144 167 173 126 c 128,-1,41
 202 85 202 85 247.5 62 c 128,-1,42
 293 39 293 39 359 39 c 0,43,44
 393 39 393 39 429 48.5 c 128,-1,45
 465 58 465 58 499 70 c 1,46,-1
 499 299 l 1,47,-1
 336 299 l 1,48,-1
 336 357 l 1,49,-1
 520 357 l 1,0,1
EndSplineSet
EndChar
StartChar: H
Encoding: 72 72 41
Width: 630
VWidth: 1494
Flags: W
HStem: 0 709<84 142 490 546 84 546 84 84> 338 58<142 490>
VStem: 84 58<0 338 396 709> 490 56<0 338 396 709>
Fore
546 709 m 1,0,-1
 546 0 l 1,1,-1
 490 0 l 1,2,-1
 490 338 l 1,3,-1
 142 338 l 1,4,-1
 142 0 l 1,5,-1
 84 0 l 1,6,-1
 84 709 l 1,7,-1
 142 709 l 1,8,-1
 142 396 l 1,9,-1
 490 396 l 1,10,-1
 490 709 l 1,11,-1
 546 709 l 1,0,-1
EndSplineSet
EndChar
StartChar: I
Encoding: 73 73 42
Width: 243
VWidth: 1494
Flags: W
HStem: 0 709<96 152 96 152 96 96>
VStem: 96 56<0 709>
Fore
152 709 m 1,0,-1
 152 0 l 1,1,-1
 96 0 l 1,2,-1
 96 709 l 1,3,-1
 152 709 l 1,0,-1
EndSplineSet
EndChar
StartChar: J
Encoding: 74 74 43
Width: 373
VWidth: 1494
Flags: W
HStem: -14.5 51<62.5009 117.242 117.242 166.335> 689 20G<239 297>
VStem: 239 58<94.424 709>
Fore
297 709 m 1,0,-1
 297 170 l 2,1,2
 297 105 297 105 268 61.5 c 128,-1,3
 239 18 239 18 203 1 c 0,4,5
 151 -22 151 -22 104.5 -14.5 c 128,-1,6
 58 -7 58 -7 19 15 c 1,7,-1
 37 64 l 1,8,9
 46 55 46 55 62 47.5 c 128,-1,10
 78 40 78 40 97.5 36.5 c 128,-1,11
 117 33 117 33 137 35 c 128,-1,12
 157 37 157 37 178 48 c 0,13,14
 206 64 206 64 222.5 93.5 c 128,-1,15
 239 123 239 123 239 161 c 2,16,-1
 239 709 l 1,17,-1
 297 709 l 1,0,-1
EndSplineSet
EndChar
StartChar: K
Encoding: 75 75 44
Width: 585
VWidth: 1494
Flags: W
HStem: -9 21G<91 148 496.054 584> 689 20G<91 148 475.224 558>
VStem: 91 57<0 360 380 709>
Fore
584 0 m 1,0,-1
 516 -9 l 1,1,-1
 148 360 l 1,2,-1
 148 0 l 1,3,-1
 91 0 l 1,4,-1
 91 709 l 1,5,-1
 148 709 l 1,6,-1
 148 380 l 1,7,-1
 496 715 l 1,8,-1
 558 700 l 1,9,-1
 215 371 l 1,10,-1
 584 0 l 1,0,-1
EndSplineSet
EndChar
StartChar: L
Encoding: 76 76 45
Width: 484
VWidth: 1494
Flags: W
HStem: 0 52<145 451> 689 20G<87 145>
VStem: 87 58<52.1388 709>
Fore
87 709 m 1,0,-1
 145 709 l 1,1,-1
 145 52 l 1,2,-1
 451 52 l 1,3,-1
 451 0 l 1,4,-1
 123 0 l 1,5,6
 117 -7 117 -7 109.5 -12.5 c 128,-1,7
 102 -18 102 -18 97 -18 c 0,8,9
 82 -18 82 -18 73 -6 c 128,-1,10
 64 6 64 6 61 13 c 0,11,12
 60 19 60 19 63.5 24.5 c 128,-1,13
 67 30 67 30 72.5 35 c 128,-1,14
 78 40 78 40 82.5 48.5 c 128,-1,15
 87 57 87 57 87 70 c 2,16,-1
 87 709 l 1,0,-1
EndSplineSet
EndChar
StartChar: M
Encoding: 77 77 46
Width: 826
VWidth: 1494
Flags: W
HStem: -10 21G<28 87.4323 749.568 809>
Fore
450 22 m 1,0,-1
 453 12 l 1,1,2
 457 3 457 3 451 -3.5 c 128,-1,3
 445 -10 445 -10 434 -14 c 128,-1,4
 423 -18 423 -18 412.5 -17 c 128,-1,5
 402 -16 402 -16 398 -7 c 2,6,-1
 188 596 l 1,7,-1
 84 -10 l 1,8,-1
 28 3 l 1,9,-1
 146 674 l 1,10,-1
 136 688 l 2,11,12
 132 695 132 695 143 709 c 128,-1,13
 154 723 154 723 169 726 c 0,14,15
 176 728 176 728 183.5 722 c 128,-1,16
 191 716 191 716 198 708.5 c 128,-1,17
 205 701 205 701 210 693.5 c 128,-1,18
 215 686 215 686 215 685 c 1,19,-1
 419 100 l 1,20,-1
 622 685 l 1,21,22
 622 686 622 686 626.5 693.5 c 128,-1,23
 631 701 631 701 637.5 708.5 c 128,-1,24
 644 716 644 716 652.5 722 c 128,-1,25
 661 728 661 728 668 726 c 0,26,27
 683 723 683 723 694.5 709 c 128,-1,28
 706 695 706 695 701 688 c 2,29,-1
 691 674 l 1,30,-1
 809 3 l 1,31,-1
 753 -10 l 1,32,-1
 649 596 l 1,33,-1
 450 22 l 1,0,-1
EndSplineSet
EndChar
StartChar: N
Encoding: 78 78 47
Width: 636
VWidth: 1494
Flags: W
HStem: 0 21G<81 138 491.986 556> 705 20<86.5 96.5 499 556>
VStem: 58 498<686 694 694 709 694 694> 81 57<0 564> 499 57<97 709>
Fore
81 640 m 2,0,1
 81 653 81 653 76.5 660.5 c 128,-1,2
 72 668 72 668 67.5 673.5 c 128,-1,3
 63 679 63 679 60 682.5 c 128,-1,4
 57 686 57 686 58 694 c 1,5,6
 61 701 61 701 70 713 c 128,-1,7
 79 725 79 725 94 725 c 0,8,9
 99 725 99 725 106.5 720 c 128,-1,10
 114 715 114 715 120 707 c 2,11,-1
 499 97 l 1,12,-1
 499 709 l 1,13,-1
 556 709 l 1,14,-1
 556 0 l 1,15,-1
 505 0 l 1,16,-1
 138 564 l 1,17,-1
 138 0 l 1,18,-1
 81 0 l 1,19,-1
 81 640 l 2,0,1
EndSplineSet
EndChar
StartChar: O
Encoding: 79 79 48
Width: 686
VWidth: 1494
Flags: W
HStem: -19 55<249.561 436.809> 664 55<249.561 436.809>
VStem: 60 58<246.043 451.892> 568 60<244.975 452.978>
Fore
344 719 m 0,0,1
 411 719 411 719 464 692 c 128,-1,2
 517 665 517 665 553.5 617.5 c 128,-1,3
 590 570 590 570 609 501 c 128,-1,4
 628 432 628 432 628 350 c 0,5,6
 628 266 628 266 609 198 c 128,-1,7
 590 130 590 130 553.5 82 c 128,-1,8
 517 34 517 34 464 7.5 c 128,-1,9
 411 -19 411 -19 344 -19 c 0,10,11
 275 -19 275 -19 222 7.5 c 128,-1,12
 169 34 169 34 133 82 c 128,-1,13
 97 130 97 130 78.5 198 c 128,-1,14
 60 266 60 266 60 350 c 0,15,16
 60 432 60 432 78.5 501 c 128,-1,17
 97 570 97 570 133 617.5 c 128,-1,18
 169 665 169 665 222 692 c 128,-1,19
 275 719 275 719 344 719 c 0,0,1
344 36 m 0,20,21
 404 36 404 36 446.5 63 c 128,-1,22
 489 90 489 90 516 134 c 128,-1,23
 543 178 543 178 555.5 234.5 c 128,-1,24
 568 291 568 291 568 350 c 256,25,26
 568 408 568 408 555.5 464 c 128,-1,27
 543 520 543 520 516 565 c 128,-1,28
 489 610 489 610 446.5 637 c 128,-1,29
 404 664 404 664 344 664 c 0,30,31
 283 664 283 664 240 637 c 128,-1,32
 197 610 197 610 170.5 565 c 128,-1,33
 144 520 144 520 131 464 c 128,-1,34
 118 408 118 408 118 350 c 256,35,36
 118 291 118 291 131 234.5 c 128,-1,37
 144 178 144 178 170.5 134 c 128,-1,38
 197 90 197 90 240 63 c 128,-1,39
 283 36 283 36 344 36 c 0,20,21
EndSplineSet
EndChar
StartChar: P
Encoding: 80 80 49
Width: 547
VWidth: 1494
Flags: W
HStem: 0 21G<88 146> 286 55<146 307.209> 655 54<146 304.334>
VStem: 88 58<0 286 341 654.861> 451 57<414.956 575.208>
Fore
88 637 m 2,0,1
 88 650 88 650 83.5 658.5 c 128,-1,2
 79 667 79 667 74 673 c 128,-1,3
 69 679 69 679 65 683.5 c 128,-1,4
 61 688 61 688 63 695 c 1,5,6
 66 703 66 703 75 714.5 c 128,-1,7
 84 726 84 726 99 726 c 0,8,9
 103 726 103 726 110.5 721 c 128,-1,10
 118 716 118 716 124 709 c 1,11,-1
 250 709 l 2,12,13
 299 709 299 709 345.5 698.5 c 128,-1,14
 392 688 392 688 427.5 663 c 128,-1,15
 463 638 463 638 485.5 598 c 128,-1,16
 508 558 508 558 508 496 c 256,17,18
 508 435 508 435 485.5 394.5 c 128,-1,19
 463 354 463 354 426.5 330 c 128,-1,20
 390 306 390 306 345 296 c 128,-1,21
 300 286 300 286 256 286 c 2,22,-1
 146 286 l 1,23,-1
 146 0 l 1,24,-1
 88 0 l 1,25,-1
 88 637 l 2,0,1
146 655 m 1,26,-1
 146 341 l 1,27,-1
 253 341 l 2,28,29
 353 341 353 341 402 383 c 128,-1,30
 451 425 451 425 451 496 c 0,31,32
 451 561 451 561 403.5 608 c 128,-1,33
 356 655 356 655 251 655 c 2,34,-1
 146 655 l 1,26,-1
EndSplineSet
EndChar
StartChar: Q
Encoding: 81 81 50
Width: 680
VWidth: 1494
Flags: W
HStem: -19 58<246.771 423.869> 661 58<246.771 431.656>
VStem: 57 60<245.893 455.957> 562 61<248.199 453.993>
Fore
611 -24 m 1,0,-1
 523 52 l 1,1,2
 451 -19 451 -19 339 -19 c 0,3,4
 271 -19 271 -19 217.5 7.5 c 128,-1,5
 164 34 164 34 128.5 83 c 128,-1,6
 93 132 93 132 75 200 c 128,-1,7
 57 268 57 268 57 351 c 0,8,9
 57 433 57 433 75 501.5 c 128,-1,10
 93 570 93 570 128.5 617.5 c 128,-1,11
 164 665 164 665 217.5 692 c 128,-1,12
 271 719 271 719 339 719 c 256,13,14
 408 719 408 719 461 692 c 128,-1,15
 514 665 514 665 550 617.5 c 128,-1,16
 586 570 586 570 604.5 501.5 c 128,-1,17
 623 433 623 433 623 351 c 0,18,19
 623 193 623 193 561 97 c 1,20,-1
 650 21 l 1,21,-1
 611 -24 l 1,0,-1
339 39 m 0,22,23
 383 39 383 39 416.5 53 c 128,-1,24
 450 67 450 67 475 93 c 1,25,-1
 398 158 l 1,26,-1
 436 205 l 1,27,-1
 511 139 l 1,28,29
 537 182 537 182 549.5 237.5 c 128,-1,30
 562 293 562 293 562 351 c 256,31,32
 562 410 562 410 549.5 465 c 128,-1,33
 537 520 537 520 510 563.5 c 128,-1,34
 483 607 483 607 441 634 c 128,-1,35
 399 661 399 661 339 661 c 256,36,37
 280 661 280 661 237 634 c 128,-1,38
 194 607 194 607 167.5 563.5 c 128,-1,39
 141 520 141 520 129 465 c 128,-1,40
 117 410 117 410 117 351 c 256,41,42
 117 293 117 293 129 236 c 128,-1,43
 141 179 141 179 167.5 136 c 128,-1,44
 194 93 194 93 237 66 c 128,-1,45
 280 39 280 39 339 39 c 0,22,23
EndSplineSet
EndChar
StartChar: R
Encoding: 82 82 51
Width: 584
VWidth: 1494
Flags: W
HStem: -13 21G<88 146 456.224 529> 286 55<146 278> 655 54<146 304.334>
VStem: 88 58<0 286 341 654.721> 451 57<415.941 575.208>
Fore
88 638 m 2,0,1
 88 652 88 652 83.5 660 c 128,-1,2
 79 668 79 668 74 673.5 c 128,-1,3
 69 679 69 679 65 683.5 c 128,-1,4
 61 688 61 688 63 695 c 1,5,6
 66 703 66 703 75 714.5 c 128,-1,7
 84 726 84 726 99 726 c 0,8,9
 103 726 103 726 110.5 721 c 128,-1,10
 118 716 118 716 124 709 c 1,11,-1
 250 709 l 2,12,13
 299 709 299 709 345.5 698.5 c 128,-1,14
 392 688 392 688 427.5 663 c 128,-1,15
 463 638 463 638 485.5 598 c 128,-1,16
 508 558 508 558 508 496 c 0,17,18
 508 450 508 450 494.5 415.5 c 128,-1,19
 481 381 481 381 458.5 357 c 128,-1,20
 436 333 436 333 405.5 317.5 c 128,-1,21
 375 302 375 302 342 294 c 1,22,-1
 529 1 l 1,23,-1
 469 -13 l 1,24,-1
 278 286 l 1,25,-1
 146 286 l 1,26,-1
 146 0 l 1,27,-1
 88 0 l 1,28,-1
 88 638 l 2,0,1
146 655 m 1,29,-1
 146 341 l 1,30,-1
 253 341 l 2,31,32
 353 341 353 341 402 383 c 128,-1,33
 451 425 451 425 451 496 c 0,34,35
 451 561 451 561 403.5 608 c 128,-1,36
 356 655 356 655 251 655 c 2,37,-1
 146 655 l 1,29,-1
EndSplineSet
EndChar
StartChar: S
Encoding: 83 83 52
Width: 579
VWidth: 1494
Flags: W
HStem: -19 55<233.441 360.701> 667 58<186.069 384.405>
VStem: 61 63<478.502 581.027> 469 60<108.109 210.191>
Fore
529 176 m 0,0,1
 529 91 529 91 467 36.5 c 128,-1,2
 405 -18 405 -18 278 -19 c 0,3,4
 235 -19 235 -19 199 -10 c 128,-1,5
 163 -1 163 -1 134 13 c 128,-1,6
 105 27 105 27 82.5 44 c 128,-1,7
 60 61 60 61 43 75 c 1,8,-1
 91 121 l 1,9,10
 105 108 105 108 123 93 c 128,-1,11
 141 78 141 78 164 65 c 128,-1,12
 187 52 187 52 217 44 c 128,-1,13
 247 36 247 36 286 36 c 256,14,15
 324 36 324 36 358 45.5 c 128,-1,16
 392 55 392 55 416.5 72.5 c 128,-1,17
 441 90 441 90 455 112.5 c 128,-1,18
 469 135 469 135 469 161 c 0,19,20
 469 190 469 190 458.5 211.5 c 128,-1,21
 448 233 448 233 425 252 c 128,-1,22
 402 271 402 271 363 288 c 128,-1,23
 324 305 324 305 268 326 c 0,24,25
 169 360 169 360 117.5 414.5 c 128,-1,26
 66 469 66 469 61 532 c 0,27,28
 58 568 58 568 71 603 c 128,-1,29
 84 638 84 638 112.5 665 c 128,-1,30
 141 692 141 692 182.5 708.5 c 128,-1,31
 224 725 224 725 280 725 c 0,32,33
 332 725 332 725 390 708 c 128,-1,34
 448 691 448 691 484 664 c 1,35,-1
 454 613 l 1,36,37
 426 634 426 634 382 650.5 c 128,-1,38
 338 667 338 667 278 667 c 0,39,40
 208 667 208 667 166 631 c 128,-1,41
 124 595 124 595 124 543 c 0,42,43
 124 489 124 489 173.5 448 c 128,-1,44
 223 407 223 407 309 377 c 0,45,46
 356 360 356 360 396 342 c 128,-1,47
 436 324 436 324 466 301 c 128,-1,48
 496 278 496 278 512.5 248 c 128,-1,49
 529 218 529 218 529 176 c 0,0,1
EndSplineSet
EndChar
StartChar: T
Encoding: 84 84 53
Width: 497
VWidth: 1494
Flags: W
HStem: 0 21G<221 278> 655 54<20.6626 221 278 476.452>
VStem: 221 57<0 655>
Fore
278 655 m 1,0,-1
 278 0 l 1,1,-1
 221 0 l 1,2,-1
 221 655 l 1,3,-1
 30 655 l 2,4,5
 22 655 22 655 20.5 662.5 c 128,-1,6
 19 670 19 670 18 679 c 0,7,8
 15 695 15 695 18 702 c 128,-1,9
 21 709 21 709 34 709 c 2,10,-1
 463 709 l 2,11,12
 477 709 477 709 480 702 c 128,-1,13
 483 695 483 695 480 679 c 0,14,15
 478 670 478 670 476.5 662.5 c 128,-1,16
 475 655 475 655 468 655 c 2,17,-1
 278 655 l 1,0,-1
EndSplineSet
EndChar
StartChar: U
Encoding: 85 85 54
Width: 680
VWidth: 1494
Flags: W
HStem: -16 58<262.324 415.442> 689 20G<84 141 537 592>
VStem: 84 57<137.55 709> 537 55<137.55 709>
Fore
592 709 m 1,0,-1
 592 217 l 2,1,2
 592 102 592 102 524 43 c 128,-1,3
 456 -16 456 -16 339 -16 c 256,4,5
 223 -16 223 -16 153.5 43 c 128,-1,6
 84 102 84 102 84 217 c 2,7,-1
 84 709 l 1,8,-1
 141 709 l 1,9,-1
 141 218 l 2,10,11
 141 170 141 170 157 136.5 c 128,-1,12
 173 103 173 103 200 82 c 128,-1,13
 227 61 227 61 263 51.5 c 128,-1,14
 299 42 299 42 339 42 c 0,15,16
 378 42 378 42 414 51.5 c 128,-1,17
 450 61 450 61 477 82 c 128,-1,18
 504 103 504 103 520.5 136.5 c 128,-1,19
 537 170 537 170 537 218 c 2,20,-1
 537 709 l 1,21,-1
 592 709 l 1,0,-1
EndSplineSet
EndChar
StartChar: V
Encoding: 86 86 55
Width: 614
VWidth: 1494
Flags: W
HStem: 700 20G<9 74.4922 538.477 602>
Fore
341 22 m 1,0,1
 335 13 335 13 319 -4 c 128,-1,2
 303 -21 303 -21 296 -19 c 0,3,4
 281 -16 281 -16 269 -3 c 128,-1,5
 257 10 257 10 262 18 c 2,6,-1
 271 31 l 1,7,-1
 9 709 l 1,8,-1
 67 720 l 1,9,-1
 306 82 l 1,10,-1
 546 720 l 1,11,-1
 602 709 l 1,12,-1
 471 365 l 2,13,14
 445 300 445 300 422 239 c 128,-1,15
 399 178 399 178 380.5 129.5 c 128,-1,16
 362 81 362 81 351.5 52.5 c 128,-1,17
 341 24 341 24 341 22 c 1,0,1
EndSplineSet
EndChar
StartChar: W
Encoding: 87 87 56
Width: 834
VWidth: 1494
Flags: W
HStem: 699 20G<28 87.4267 749.573 809>
Fore
649 112 m 1,0,-1
 753 719 l 1,1,-1
 809 706 l 1,2,-1
 691 34 l 1,3,-1
 701 21 l 2,4,5
 706 13 706 13 694.5 -1 c 128,-1,6
 683 -15 683 -15 668 -18 c 0,7,8
 661 -19 661 -19 652.5 -13 c 128,-1,9
 644 -7 644 -7 637.5 0 c 128,-1,10
 631 7 631 7 626.5 14 c 128,-1,11
 622 21 622 21 622 24 c 1,12,-1
 419 608 l 1,13,-1
 215 24 l 1,14,15
 215 21 215 21 210 14 c 128,-1,16
 205 7 205 7 198 0 c 128,-1,17
 191 -7 191 -7 183.5 -13 c 128,-1,18
 176 -19 176 -19 169 -18 c 0,19,20
 154 -15 154 -15 143 -1 c 128,-1,21
 132 13 132 13 136 21 c 2,22,-1
 146 34 l 1,23,-1
 28 706 l 1,24,-1
 84 719 l 1,25,-1
 188 112 l 1,26,-1
 398 716 l 2,27,28
 402 725 402 725 412.5 725.5 c 128,-1,29
 423 726 423 726 434 722.5 c 128,-1,30
 445 719 445 719 451 712.5 c 128,-1,31
 457 706 457 706 453 697 c 1,32,-1
 450 686 l 1,33,-1
 649 112 l 1,0,-1
EndSplineSet
EndChar
StartChar: X
Encoding: 88 88 57
Width: 562
VWidth: 1494
Flags: W
Fore
9 37 m 1,0,-1
 250 390 l 1,1,-1
 34 701 l 1,2,-1
 84 731 l 1,3,-1
 284 432 l 1,4,-1
 487 729 l 1,5,-1
 535 701 l 1,6,-1
 315 380 l 1,7,-1
 558 33 l 1,8,-1
 513 3 l 1,9,-1
 284 336 l 1,10,-1
 54 6 l 1,11,-1
 9 37 l 1,0,-1
EndSplineSet
EndChar
StartChar: Y
Encoding: 89 89 58
Width: 533
VWidth: 1494
Flags: W
HStem: 0 21G<239 291> 708 20G<462.763 522>
VStem: 239 52<0 300>
Fore
239 302 m 1,0,-1
 10 710 l 1,1,-1
 58 729 l 1,2,-1
 265 356 l 1,3,-1
 474 728 l 1,4,-1
 522 709 l 1,5,6
 474 626 474 626 431 550 c 0,7,8
 413 517 413 517 393.5 482.5 c 128,-1,9
 374 448 374 448 355 415.5 c 128,-1,10
 336 383 336 383 319.5 353 c 128,-1,11
 303 323 303 323 291 300 c 1,12,-1
 291 0 l 1,13,-1
 239 0 l 1,14,-1
 239 300 l 1,15,-1
 239 302 l 1,0,-1
EndSplineSet
EndChar
StartChar: Z
Encoding: 90 90 59
Width: 591
VWidth: 1494
Flags: W
HStem: 0 58<136 540> 650 59<46 451>
Fore
508 725 m 0,0,1
 511 728 511 728 521.5 726.5 c 128,-1,2
 532 725 532 725 544 713 c 0,3,4
 558 697 558 697 555.5 689.5 c 128,-1,5
 553 682 553 682 543 671 c 1,6,-1
 523 644 l 1,7,-1
 136 58 l 1,8,-1
 540 58 l 1,9,-1
 540 0 l 1,10,-1
 94 0 l 2,11,12
 87 0 87 0 81.5 -5 c 128,-1,13
 76 -10 76 -10 69 -13 c 0,14,15
 63 -16 63 -16 53 -11.5 c 128,-1,16
 43 -7 43 -7 31 13 c 0,17,18
 25 24 25 24 29 28.5 c 128,-1,19
 33 33 33 33 45 42 c 0,20,21
 52 48 52 48 56.5 53 c 128,-1,22
 61 58 61 58 66 64 c 2,23,-1
 451 650 l 1,24,-1
 46 650 l 1,25,-1
 46 709 l 1,26,-1
 490 709 l 1,27,-1
 496 715 l 2,28,29
 504 722 504 722 508 725 c 0,0,1
EndSplineSet
EndChar
StartChar: bracketleft
Encoding: 91 91 60
Width: 273
VWidth: 1494
Flags: W
HStem: -136 48<135 199> 707 48<135 199>
VStem: 76 59<-88 707>
Fore
135 707 m 1,0,-1
 135 -88 l 1,1,-1
 199 -88 l 1,2,-1
 199 -136 l 1,3,-1
 76 -136 l 1,4,-1
 76 755 l 1,5,-1
 199 755 l 1,6,-1
 199 707 l 1,7,-1
 135 707 l 1,0,-1
EndSplineSet
EndChar
StartChar: backslash
Encoding: 92 92 61
Width: 243
VWidth: 1494
Flags: W
VStem: -40 336<-27 729 729 729>
Fore
296 -27 m 1,0,-1
 247 -25 l 1,1,-1
 -40 729 l 1,2,-1
 12 729 l 1,3,-1
 296 -27 l 1,0,-1
EndSplineSet
EndChar
StartChar: bracketright
Encoding: 93 93 62
Width: 270
VWidth: 1494
Flags: W
HStem: -136 48<72 136> 707 48<72 136>
VStem: 136 58<-88 707>
Fore
72 707 m 1,0,-1
 72 755 l 1,1,-1
 194 755 l 1,2,-1
 194 -136 l 1,3,-1
 72 -136 l 1,4,-1
 72 -88 l 1,5,-1
 136 -88 l 1,6,-1
 136 707 l 1,7,-1
 72 707 l 1,0,-1
EndSplineSet
EndChar
StartChar: asciicircum
Encoding: 94 94 63
Width: 576
VWidth: 1494
Flags: W
HStem: 232 441<64 266 266 266>
VStem: 64 450<232 232 232 232>
Fore
64 232 m 1,0,-1
 266 673 l 1,1,-1
 311 673 l 1,2,-1
 514 232 l 1,3,-1
 463 232 l 1,4,-1
 288 613 l 1,5,-1
 115 232 l 1,6,-1
 64 232 l 1,0,-1
EndSplineSet
EndChar
StartChar: underscore
Encoding: 95 95 64
Width: 481
VWidth: 1494
Flags: W
HStem: -130 57<0 481 0 481 1.53064e-18 1.53064e-18>
Fore
481 -73 m 1,0,-1
 481 -130 l 1,1,-1
 0 -130 l 1,2,-1
 0 -73 l 1,3,-1
 481 -73 l 1,0,-1
EndSplineSet
EndChar
StartChar: grave
Encoding: 96 96 65
Width: 243
VWidth: 1494
Flags: W
HStem: 549 140<21 172 21 21>
Fore
172 549 m 1,0,-1
 129 549 l 1,1,-1
 21 689 l 1,2,-1
 91 689 l 1,3,-1
 172 549 l 1,0,-1
EndSplineSet
EndChar
StartChar: a
Encoding: 97 97 66
Width: 523
VWidth: 1494
Flags: W
HStem: -13 53<170.329 317.579> 468 54<169.657 317.89>
VStem: 31 51<206.678 300.82> 411 57<65.2264 82 159.516 348.969 428 522>
Fore
468 120 m 2,0,1
 468 70 468 70 475.5 47.5 c 128,-1,2
 483 25 483 25 490 9 c 1,3,-1
 441 -10 l 1,4,5
 436 -1 436 -1 425 19 c 128,-1,6
 414 39 414 39 414 82 c 1,7,8
 389 39 389 39 346 13 c 128,-1,9
 303 -13 303 -13 245 -13 c 0,10,11
 191 -13 191 -13 151 10 c 128,-1,12
 111 33 111 33 84 70.5 c 128,-1,13
 57 108 57 108 44 156.5 c 128,-1,14
 31 205 31 205 31 254 c 256,15,16
 31 303 31 303 44 352 c 128,-1,17
 57 401 57 401 84 438 c 128,-1,18
 111 475 111 475 151 498.5 c 128,-1,19
 191 522 191 522 245 522 c 0,20,21
 303 522 303 522 344.5 495.5 c 128,-1,22
 386 469 386 469 411 428 c 1,23,-1
 411 522 l 1,24,-1
 468 522 l 1,25,-1
 468 120 l 2,0,1
245 468 m 0,26,27
 202 468 202 468 170.5 448 c 128,-1,28
 139 428 139 428 119.5 396.5 c 128,-1,29
 100 365 100 365 91 326.5 c 128,-1,30
 82 288 82 288 82 254 c 0,31,32
 82 218 82 218 91 181 c 128,-1,33
 100 144 100 144 119.5 112.5 c 128,-1,34
 139 81 139 81 170.5 60.5 c 128,-1,35
 202 40 202 40 245 40 c 0,36,37
 284 40 284 40 314 56.5 c 128,-1,38
 344 73 344 73 365 99.5 c 128,-1,39
 386 126 386 126 398 158.5 c 128,-1,40
 410 191 410 191 413 226 c 2,41,-1
 413 284 l 2,42,43
 408 317 408 317 396 350 c 128,-1,44
 384 383 384 383 364 409 c 128,-1,45
 344 435 344 435 314 451.5 c 128,-1,46
 284 468 284 468 245 468 c 0,26,27
EndSplineSet
Substitution2: "Single Substitution lookup 22 subtable" uni0E38
Substitution2: "Single Substitution lookup 22 subtable" uni0E38
EndChar
StartChar: b
Encoding: 98 98 67
Width: 529
VWidth: 1494
Flags: W
HStem: -13 53<204.829 352.824> 466 54<204.97 353.501> 723 20G<55 111>
VStem: 55 56<65.2264 82 159.516 348 428 743> 441 51<206.492 300.501>
Fore
109 82 m 1,0,1
 109 39 109 39 98 19 c 128,-1,2
 87 -1 87 -1 82 -10 c 1,3,-1
 33 9 l 1,4,5
 40 25 40 25 47.5 47.5 c 128,-1,6
 55 70 55 70 55 120 c 2,7,-1
 55 743 l 1,8,-1
 111 743 l 1,9,-1
 111 428 l 1,10,11
 136 469 136 469 178 494.5 c 128,-1,12
 220 520 220 520 278 520 c 0,13,14
 332 520 332 520 372.5 497 c 128,-1,15
 413 474 413 474 439.5 436.5 c 128,-1,16
 466 399 466 399 479 351 c 128,-1,17
 492 303 492 303 492 254 c 256,18,19
 492 205 492 205 479 156.5 c 128,-1,20
 466 108 466 108 439.5 70.5 c 128,-1,21
 413 33 413 33 372.5 10 c 128,-1,22
 332 -13 332 -13 278 -13 c 0,23,24
 220 -13 220 -13 177.5 14.5 c 128,-1,25
 135 42 135 42 109 82 c 1,0,1
441 254 m 0,26,27
 441 288 441 288 432 325.5 c 128,-1,28
 423 363 423 363 403.5 394.5 c 128,-1,29
 384 426 384 426 352.5 446 c 128,-1,30
 321 466 321 466 278 466 c 0,31,32
 239 466 239 466 209 449.5 c 128,-1,33
 179 433 179 433 159 407 c 128,-1,34
 139 381 139 381 127 349 c 128,-1,35
 115 317 115 317 111 284 c 2,36,-1
 111 226 l 2,37,38
 114 191 114 191 126 158.5 c 128,-1,39
 138 126 138 126 158.5 99.5 c 128,-1,40
 179 73 179 73 209 56.5 c 128,-1,41
 239 40 239 40 278 40 c 0,42,43
 321 40 321 40 352.5 60.5 c 128,-1,44
 384 81 384 81 403.5 111.5 c 128,-1,45
 423 142 423 142 432 180 c 128,-1,46
 441 218 441 218 441 254 c 0,26,27
EndSplineSet
Substitution2: "Single Substitution lookup 22 subtable" uni0E39
Substitution2: "Single Substitution lookup 22 subtable" uni0E39
EndChar
StartChar: c
Encoding: 99 99 68
Width: 440
VWidth: 1494
Flags: W
VStem: 42 54<143.711 367.041>
Fore
411 42 m 2,0,1
 372 3 372 3 311 -9.5 c 128,-1,2
 250 -22 250 -22 188 0 c 0,3,4
 167 7 167 7 142 23.5 c 128,-1,5
 117 40 117 40 94.5 70 c 128,-1,6
 72 100 72 100 57 145 c 128,-1,7
 42 190 42 190 42 256 c 0,8,9
 42 320 42 320 57 365.5 c 128,-1,10
 72 411 72 411 94.5 441 c 128,-1,11
 117 471 117 471 142 487.5 c 128,-1,12
 167 504 167 504 188 511 c 0,13,14
 242 532 242 532 300.5 521 c 128,-1,15
 359 510 359 510 401 471 c 1,16,-1
 377 417 l 1,17,18
 363 435 363 435 343 447 c 128,-1,19
 323 459 323 459 300 464 c 128,-1,20
 277 469 277 469 253 468.5 c 128,-1,21
 229 468 229 468 209 460 c 0,22,23
 155 439 155 439 125.5 385.5 c 128,-1,24
 96 332 96 332 96 256 c 256,25,26
 96 179 96 179 125.5 125.5 c 128,-1,27
 155 72 155 72 209 51 c 0,28,29
 227 43 227 43 250.5 41 c 128,-1,30
 274 39 274 39 297.5 42.5 c 128,-1,31
 321 46 321 46 343 56.5 c 128,-1,32
 365 67 365 67 380 87 c 1,33,-1
 414 45 l 1,34,-1
 411 42 l 2,0,1
EndSplineSet
Substitution2: "Single Substitution lookup 22 subtable" uni0E3A
Substitution2: "Single Substitution lookup 22 subtable" uni0E3A
EndChar
StartChar: d
Encoding: 100 100 69
Width: 533
VWidth: 1494
Flags: W
HStem: -13 53<179.329 326.579> 466 54<178.657 327.03> 723 20G<422 477>
VStem: 40 51<206.492 300.501> 422 55<65.2264 82 159.516 226 226 348 428 743>
Fore
91 254 m 0,0,1
 91 218 91 218 100 180 c 128,-1,2
 109 142 109 142 128.5 111.5 c 128,-1,3
 148 81 148 81 179.5 60.5 c 128,-1,4
 211 40 211 40 254 40 c 0,5,6
 293 40 293 40 323 56.5 c 128,-1,7
 353 73 353 73 374 99.5 c 128,-1,8
 395 126 395 126 407 158.5 c 128,-1,9
 419 191 419 191 422 226 c 2,10,-1
 422 284 l 2,11,12
 417 317 417 317 405 349 c 128,-1,13
 393 381 393 381 373 407 c 128,-1,14
 353 433 353 433 323 449.5 c 128,-1,15
 293 466 293 466 254 466 c 0,16,17
 211 466 211 466 179.5 446 c 128,-1,18
 148 426 148 426 128.5 394.5 c 128,-1,19
 109 363 109 363 100 325.5 c 128,-1,20
 91 288 91 288 91 254 c 0,0,1
477 120 m 2,21,22
 477 70 477 70 484.5 47.5 c 128,-1,23
 492 25 492 25 499 9 c 1,24,-1
 450 -10 l 1,25,26
 445 -1 445 -1 434 19 c 128,-1,27
 423 39 423 39 423 82 c 1,28,29
 398 42 398 42 355 14.5 c 128,-1,30
 312 -13 312 -13 254 -13 c 0,31,32
 200 -13 200 -13 160 10 c 128,-1,33
 120 33 120 33 93 70.5 c 128,-1,34
 66 108 66 108 53 156.5 c 128,-1,35
 40 205 40 205 40 254 c 256,36,37
 40 303 40 303 53 351 c 128,-1,38
 66 399 66 399 93 436.5 c 128,-1,39
 120 474 120 474 160 497 c 128,-1,40
 200 520 200 520 254 520 c 0,41,42
 312 520 312 520 354 494.5 c 128,-1,43
 396 469 396 469 422 428 c 1,44,-1
 422 743 l 1,45,-1
 477 743 l 1,46,-1
 477 120 l 2,21,22
EndSplineSet
EndChar
StartChar: e
Encoding: 101 101 70
Width: 526
VWidth: 1494
Flags: W
HStem: -12.5 49<241.29 309.766> 227 57<102 432> 471 49<188.838 344.9>
VStem: 37 65<133.551 227 284 295.25> 37 452<233.192 283.776>
Fore
271 520 m 0,0,1
 344 520 344 520 387.5 488 c 128,-1,2
 431 456 431 456 453 413.5 c 128,-1,3
 475 371 475 371 482 327.5 c 128,-1,4
 489 284 489 284 489 263 c 0,5,6
 489 239 489 239 480 233 c 1,7,8
 474 227 474 227 447 227 c 2,9,-1
 102 227 l 1,10,11
 102 160 102 160 135.5 113.5 c 128,-1,12
 169 67 169 67 212 49 c 0,13,14
 245 36 245 36 275 36.5 c 128,-1,15
 305 37 305 37 328 44.5 c 128,-1,16
 351 52 351 52 368.5 62 c 128,-1,17
 386 72 386 72 393 78 c 1,18,-1
 428 33 l 1,19,20
 410 21 410 21 380.5 9 c 128,-1,21
 351 -3 351 -3 316 -9 c 128,-1,22
 281 -15 281 -15 244.5 -12.5 c 128,-1,23
 208 -10 208 -10 175 6 c 0,24,25
 118 34 118 34 77.5 94.5 c 128,-1,26
 37 155 37 155 37 251 c 0,27,28
 37 294 37 294 50.5 342 c 128,-1,29
 64 390 64 390 92 429.5 c 128,-1,30
 120 469 120 469 164 494.5 c 128,-1,31
 208 520 208 520 271 520 c 0,0,1
432 284 m 1,32,33
 433 311 433 311 424.5 344 c 128,-1,34
 416 377 416 377 395.5 405 c 128,-1,35
 375 433 375 433 343.5 452 c 128,-1,36
 312 471 312 471 268 471 c 0,37,38
 221 471 221 471 189.5 451 c 128,-1,39
 158 431 158 431 138 401.5 c 128,-1,40
 118 372 118 372 109 340 c 128,-1,41
 100 308 100 308 100 284 c 1,42,-1
 432 284 l 1,32,33
EndSplineSet
EndChar
StartChar: f
Encoding: 102 102 71
Width: 289
VWidth: 1494
Flags: W
HStem: 475 45<19 97 151 260> 693 51<195.848 256.56>
VStem: 97 54<-43.1394 475 520 634.082>
Fore
97 475 m 1,0,-1
 7 475 l 1,1,-1
 19 520 l 1,2,-1
 97 520 l 1,3,-1
 97 610 l 2,4,5
 97 656 97 656 113 685.5 c 128,-1,6
 129 715 129 715 155 729.5 c 128,-1,7
 181 744 181 744 215.5 744 c 128,-1,8
 250 744 250 744 288 734 c 1,9,-1
 281 686 l 1,10,11
 250 692 250 692 225 693 c 128,-1,12
 200 694 200 694 183.5 684 c 128,-1,13
 167 674 167 674 159 651.5 c 128,-1,14
 151 629 151 629 151 590 c 2,15,-1
 151 520 l 1,16,-1
 272 520 l 1,17,-1
 260 475 l 1,18,-1
 151 475 l 1,19,-1
 151 6 l 2,20,21
 151 -34 151 -34 143 -66.5 c 128,-1,22
 135 -99 135 -99 124 -123 c 0,23,24
 112 -149 112 -149 99 -170 c 1,25,-1
 49 -155 l 1,26,27
 72 -127 72 -127 84.5 -85 c 128,-1,28
 97 -43 97 -43 97 4 c 2,29,-1
 97 475 l 1,0,-1
EndSplineSet
EndChar
StartChar: g
Encoding: 103 103 72
Width: 536
VWidth: 1494
Flags: W
HStem: -16 53<176.329 323.561> 468 54<175.657 324.03>
VStem: 37 50<204.793 300.177> 419 55<-76.2299 76 156.516 346.453 426 445.881>
Fore
419 426 m 1,0,1
 419 469 419 469 430.5 491 c 128,-1,2
 442 513 442 513 447 522 c 1,3,-1
 496 502 l 1,4,5
 489 486 489 486 481.5 463.5 c 128,-1,6
 474 441 474 441 474 392 c 2,7,-1
 475 9 l 2,8,9
 475 -75 475 -75 441.5 -124 c 128,-1,10
 408 -173 408 -173 360 -197 c 128,-1,11
 312 -221 312 -221 258.5 -225 c 128,-1,12
 205 -229 205 -229 164 -220 c 1,13,14
 172 -200 172 -200 175.5 -191 c 128,-1,15
 179 -182 179 -182 180.5 -177.5 c 128,-1,16
 182 -173 182 -173 183 -171.5 c 128,-1,17
 184 -170 184 -170 184 -167 c 1,18,19
 229 -176 229 -176 271.5 -169.5 c 128,-1,20
 314 -163 314 -163 347 -140.5 c 128,-1,21
 380 -118 380 -118 399.5 -77.5 c 128,-1,22
 419 -37 419 -37 419 22 c 2,23,-1
 419 76 l 1,24,25
 392 34 392 34 350 9 c 128,-1,26
 308 -16 308 -16 251 -16 c 0,27,28
 197 -16 197 -16 157 7 c 128,-1,29
 117 30 117 30 90 68 c 128,-1,30
 63 106 63 106 50 154 c 128,-1,31
 37 202 37 202 37 253 c 0,32,33
 37 302 37 302 50 350.5 c 128,-1,34
 63 399 63 399 90 437 c 128,-1,35
 117 475 117 475 157 498.5 c 128,-1,36
 197 522 197 522 251 522 c 0,37,38
 309 522 309 522 351 495.5 c 128,-1,39
 393 469 393 469 419 426 c 1,0,1
419 281 m 2,40,41
 416 314 416 314 404 347.5 c 128,-1,42
 392 381 392 381 371 408 c 128,-1,43
 350 435 350 435 320 451.5 c 128,-1,44
 290 468 290 468 251 468 c 0,45,46
 208 468 208 468 176.5 448 c 128,-1,47
 145 428 145 428 125 396.5 c 128,-1,48
 105 365 105 365 96 326.5 c 128,-1,49
 87 288 87 288 87 253 c 256,50,51
 87 217 87 217 96 179 c 128,-1,52
 105 141 105 141 125 109.5 c 128,-1,53
 145 78 145 78 176.5 57.5 c 128,-1,54
 208 37 208 37 251 37 c 0,55,56
 290 37 290 37 320 53.5 c 128,-1,57
 350 70 350 70 370 96.5 c 128,-1,58
 390 123 390 123 402 155.5 c 128,-1,59
 414 188 414 188 419 221 c 2,60,-1
 419 281 l 2,40,41
EndSplineSet
EndChar
StartChar: h
Encoding: 104 104 73
Width: 530
VWidth: 1494
Flags: W
HStem: 0 21G<70 124 430 481> 462 49<207.967 324.15> 723 20G<70 126>
VStem: 70 54<0 320.234 417 743> 407 53<52.9229 382.638>
Fore
407 318 m 2,0,1
 407 356 407 356 394 383.5 c 128,-1,2
 381 411 381 411 361.5 428 c 128,-1,3
 342 445 342 445 319 453.5 c 128,-1,4
 296 462 296 462 275 462 c 0,5,6
 241 462 241 462 213 447 c 128,-1,7
 185 432 185 432 165 406.5 c 128,-1,8
 145 381 145 381 134.5 349 c 128,-1,9
 124 317 124 317 124 281 c 2,10,-1
 124 0 l 1,11,-1
 70 0 l 1,12,-1
 70 743 l 1,13,-1
 126 743 l 1,14,-1
 126 417 l 1,15,16
 146 457 146 457 186.5 484 c 128,-1,17
 227 511 227 511 278 511 c 0,18,19
 318 511 318 511 352 496 c 128,-1,20
 386 481 386 481 409.5 455 c 128,-1,21
 433 429 433 429 446.5 394 c 128,-1,22
 460 359 460 359 460 318 c 2,23,-1
 460 88 l 2,24,25
 460 58 460 58 469 32 c 128,-1,26
 478 6 478 6 481 4 c 1,27,-1
 432 -15 l 1,28,29
 428 -6 428 -6 417.5 19.5 c 128,-1,30
 407 45 407 45 407 88 c 2,31,-1
 407 318 l 2,0,1
EndSplineSet
EndChar
StartChar: i
Encoding: 105 105 74
Width: 206
VWidth: 1494
Flags: W
HStem: 0 21G<76 130> 500 20G<76 130> 616 90<70.9232 133.108>
VStem: 57 89<629.923 692.592> 76 54<0 520>
Fore
76 520 m 1,0,-1
 130 520 l 1,1,-1
 130 0 l 1,2,-1
 76 0 l 1,3,-1
 76 520 l 1,0,-1
103 706 m 0,4,5
 121 706 121 706 133.5 693 c 128,-1,6
 146 680 146 680 146 661 c 0,7,8
 146 643 146 643 133.5 629.5 c 128,-1,9
 121 616 121 616 103 616 c 0,10,11
 84 616 84 616 70.5 629.5 c 128,-1,12
 57 643 57 643 57 661 c 0,13,14
 57 680 57 680 70.5 693 c 128,-1,15
 84 706 84 706 103 706 c 0,4,5
EndSplineSet
EndChar
StartChar: j
Encoding: 106 106 75
Width: 206
VWidth: 1494
Flags: W
HStem: -223 21G<-42.5 -16.5> 500 20G<76 130> 614 90<68.923 132.108>
VStem: 55 90<627.923 691.108> 76 54<-78.3295 -28.973 -28.973 520>
Fore
100 704 m 0,0,1
 120 704 120 704 132.5 691.5 c 128,-1,2
 145 679 145 679 145 659 c 0,3,4
 145 641 145 641 132.5 627.5 c 128,-1,5
 120 614 120 614 100 614 c 0,6,7
 82 614 82 614 68.5 627.5 c 128,-1,8
 55 641 55 641 55 659 c 0,9,10
 55 679 55 679 68.5 691.5 c 128,-1,11
 82 704 82 704 100 704 c 0,0,1
-43 -223 m 1,12,13
 -42 -223 -42 -223 -46.5 -215.5 c 128,-1,14
 -51 -208 -51 -208 -55.5 -199.5 c 128,-1,15
 -60 -191 -60 -191 -64.5 -183.5 c 128,-1,16
 -69 -176 -69 -176 -67 -176 c 0,17,18
 -10 -172 -10 -172 19 -159 c 128,-1,19
 48 -146 48 -146 60.5 -124.5 c 128,-1,20
 73 -103 73 -103 74.5 -69.5 c 128,-1,21
 76 -36 76 -36 76 12 c 2,22,-1
 76 520 l 1,23,-1
 130 520 l 1,24,-1
 130 -15 l 2,25,26
 130 -67 130 -67 122.5 -104.5 c 128,-1,27
 115 -142 115 -142 96.5 -166 c 128,-1,28
 78 -190 78 -190 44 -203.5 c 128,-1,29
 10 -217 10 -217 -43 -223 c 1,12,13
EndSplineSet
EndChar
StartChar: k
Encoding: 107 107 76
Width: 463
VWidth: 1494
Flags: W
HStem: -15 21<75 130 388.092 454> 509 20G<345.683 417> 723 20G<75 130>
VStem: 75 55<0 278 324 743>
Fore
454 3 m 1,0,-1
 407 -15 l 1,1,-1
 130 278 l 1,2,-1
 130 0 l 1,3,-1
 75 0 l 1,4,-1
 75 743 l 1,5,-1
 130 743 l 1,6,-1
 130 324 l 1,7,-1
 369 529 l 1,8,-1
 417 510 l 1,9,-1
 179 302 l 1,10,-1
 454 3 l 1,0,-1
EndSplineSet
EndChar
StartChar: l
Encoding: 108 108 77
Width: 206
VWidth: 1494
Flags: W
HStem: 0 755<103 130 76 130 103 103>
VStem: 76 54<0 728>
Fore
103 755 m 1,0,-1
 130 755 l 1,1,-1
 130 0 l 1,2,-1
 76 0 l 1,3,-1
 76 728 l 1,4,-1
 103 755 l 1,0,-1
EndSplineSet
EndChar
StartChar: m
Encoding: 109 109 78
Width: 811
VWidth: 1494
Flags: W
HStem: -12 21G<69 123 383 436 717 768> 469 53<191.499 327.983 510.556 648.752>
VStem: 69 54<0 339.667> 383 53<0 336.662> 695 54<53.3477 361.969>
Fore
69 398 m 2,0,1
 69 447 69 447 61.5 467 c 128,-1,2
 54 487 54 487 46 504 c 1,3,-1
 97 523 l 1,4,5
 102 514 102 514 111 494 c 128,-1,6
 120 474 120 474 123 433 c 1,7,8
 144 474 144 474 183.5 498 c 128,-1,9
 223 522 223 522 268 522 c 0,10,11
 320 522 320 522 362 493.5 c 128,-1,12
 404 465 404 465 420 416 c 1,13,14
 438 463 438 463 481.5 492.5 c 128,-1,15
 525 522 525 522 577 522 c 0,16,17
 632 522 632 522 666 498.5 c 128,-1,18
 700 475 700 475 718.5 444 c 128,-1,19
 737 413 737 413 743 378.5 c 128,-1,20
 749 344 749 344 749 321 c 2,21,-1
 749 91 l 2,22,23
 749 61 749 61 757 35 c 128,-1,24
 765 9 765 9 768 7 c 1,25,-1
 719 -12 l 1,26,27
 715 -3 715 -3 705 22.5 c 128,-1,28
 695 48 695 48 695 91 c 2,29,-1
 695 333 l 2,30,31
 695 398 695 398 663.5 433.5 c 128,-1,32
 632 469 632 469 577 469 c 0,33,34
 543 469 543 469 516.5 455 c 128,-1,35
 490 441 490 441 472 417 c 128,-1,36
 454 393 454 393 445 361.5 c 128,-1,37
 436 330 436 330 436 297 c 2,38,-1
 436 0 l 1,39,-1
 383 0 l 1,40,-1
 383 333 l 2,41,42
 383 398 383 398 345.5 433.5 c 128,-1,43
 308 469 308 469 254 469 c 0,44,45
 220 469 220 469 195 455 c 128,-1,46
 170 441 170 441 154.5 417 c 128,-1,47
 139 393 139 393 131 361.5 c 128,-1,48
 123 330 123 330 123 297 c 2,49,-1
 123 0 l 1,50,-1
 69 0 l 1,51,-1
 69 398 l 2,0,1
EndSplineSet
EndChar
StartChar: n
Encoding: 110 110 79
Width: 509
VWidth: 1494
Flags: W
HStem: -15 21<69 124 415 466> 468 55<198.538 340.77>
VStem: 69 55<0 338.29> 393 54<50.3477 368.129>
Fore
69 399 m 2,0,1
 69 423 69 423 66.5 440 c 128,-1,2
 64 457 64 457 60.5 468.5 c 128,-1,3
 57 480 57 480 53 488 c 128,-1,4
 49 496 49 496 46 504 c 1,5,-1
 97 523 l 1,6,7
 102 514 102 514 112.5 493 c 128,-1,8
 123 472 123 472 123 429 c 1,9,10
 145 475 145 475 187 499 c 128,-1,11
 229 523 229 523 274 523 c 0,12,13
 329 523 329 523 362.5 501.5 c 128,-1,14
 396 480 396 480 414.5 449.5 c 128,-1,15
 433 419 433 419 440 386.5 c 128,-1,16
 447 354 447 354 447 332 c 2,17,-1
 447 88 l 2,18,19
 447 58 447 58 455 32 c 128,-1,20
 463 6 463 6 466 4 c 1,21,-1
 417 -15 l 1,22,23
 413 -6 413 -6 403 19.5 c 128,-1,24
 393 45 393 45 393 88 c 2,25,-1
 393 333 l 2,26,27
 393 399 393 399 356.5 433.5 c 128,-1,28
 320 468 320 468 263 468 c 0,29,30
 230 468 230 468 204 453.5 c 128,-1,31
 178 439 178 439 160 416 c 128,-1,32
 142 393 142 393 133 362.5 c 128,-1,33
 124 332 124 332 124 299 c 2,34,-1
 124 0 l 1,35,-1
 69 0 l 1,36,-1
 69 399 l 2,0,1
EndSplineSet
EndChar
StartChar: o
Encoding: 111 111 80
Width: 491
VWidth: 1494
Flags: W
HStem: -12 48<173.665 316.975> 472 48<173.665 316.975>
VStem: 31 53<183.929 324.071> 407 53<184.525 323.064>
Fore
245 520 m 256,0,1
 299 520 299 520 339.5 497 c 128,-1,2
 380 474 380 474 406.5 436.5 c 128,-1,3
 433 399 433 399 446.5 351 c 128,-1,4
 460 303 460 303 460 254 c 256,5,6
 460 205 460 205 446.5 157 c 128,-1,7
 433 109 433 109 406.5 71.5 c 128,-1,8
 380 34 380 34 339.5 11 c 128,-1,9
 299 -12 299 -12 245 -12 c 256,10,11
 191 -12 191 -12 151 11 c 128,-1,12
 111 34 111 34 84.5 71.5 c 128,-1,13
 58 109 58 109 44.5 157 c 128,-1,14
 31 205 31 205 31 254 c 256,15,16
 31 303 31 303 44.5 351 c 128,-1,17
 58 399 58 399 84.5 436.5 c 128,-1,18
 111 474 111 474 151 497 c 128,-1,19
 191 520 191 520 245 520 c 256,0,1
245 36 m 256,20,21
 286 36 286 36 316.5 56 c 128,-1,22
 347 76 347 76 367 107.5 c 128,-1,23
 387 139 387 139 397 178 c 128,-1,24
 407 217 407 217 407 254 c 0,25,26
 407 290 407 290 397 329 c 128,-1,27
 387 368 387 368 367 400 c 128,-1,28
 347 432 347 432 316.5 452 c 128,-1,29
 286 472 286 472 245 472 c 256,30,31
 205 472 205 472 174.5 452 c 128,-1,32
 144 432 144 432 123.5 400.5 c 128,-1,33
 103 369 103 369 93.5 330 c 128,-1,34
 84 291 84 291 84 254 c 256,35,36
 84 217 84 217 93.5 178 c 128,-1,37
 103 139 103 139 123.5 107.5 c 128,-1,38
 144 76 144 76 174.5 56 c 128,-1,39
 205 36 205 36 245 36 c 256,20,21
EndSplineSet
EndChar
StartChar: p
Encoding: 112 112 81
Width: 533
VWidth: 1494
Flags: W
HStem: -235 21G<40 93.5> -13 53<210.361 356.863> 471 54<208.361 356.863>
VStem: 60 55<-168.13 79 161.031 349.453 428 446.881> 445 51<206.629 304.339>
Fore
283 40 m 0,0,1
 326 40 326 40 356.5 60.5 c 128,-1,2
 387 81 387 81 407.5 112.5 c 128,-1,3
 428 144 428 144 436.5 182 c 128,-1,4
 445 220 445 220 445 256 c 256,5,6
 445 291 445 291 436.5 329.5 c 128,-1,7
 428 368 428 368 407.5 399.5 c 128,-1,8
 387 431 387 431 356.5 451 c 128,-1,9
 326 471 326 471 283 471 c 0,10,11
 242 471 242 471 212 454.5 c 128,-1,12
 182 438 182 438 162 411 c 128,-1,13
 142 384 142 384 130 350.5 c 128,-1,14
 118 317 118 317 115 284 c 2,15,-1
 115 226 l 2,16,17
 120 193 120 193 132 160 c 128,-1,18
 144 127 144 127 164 100 c 128,-1,19
 184 73 184 73 214 56.5 c 128,-1,20
 244 40 244 40 283 40 c 0,0,1
60 393 m 2,21,22
 60 442 60 442 52.5 464.5 c 128,-1,23
 45 487 45 487 37 504 c 1,24,-1
 87 523 l 1,25,26
 91 514 91 514 102.5 492.5 c 128,-1,27
 114 471 114 471 114 428 c 1,28,29
 139 471 139 471 181.5 498 c 128,-1,30
 224 525 224 525 283 525 c 0,31,32
 336 525 336 525 376.5 501.5 c 128,-1,33
 417 478 417 478 444 440 c 128,-1,34
 471 402 471 402 483.5 353.5 c 128,-1,35
 496 305 496 305 496 256 c 0,36,37
 496 205 496 205 483.5 157 c 128,-1,38
 471 109 471 109 444 71 c 128,-1,39
 417 33 417 33 376.5 10 c 128,-1,40
 336 -13 336 -13 283 -13 c 0,41,42
 224 -13 224 -13 182.5 12 c 128,-1,43
 141 37 141 37 115 79 c 1,44,-1
 115 -132 l 2,45,46
 115 -175 115 -175 105.5 -200.5 c 128,-1,47
 96 -226 96 -226 91 -235 c 1,48,-1
 40 -215 l 1,49,50
 43 -214 43 -214 51.5 -187.5 c 128,-1,51
 60 -161 60 -161 60 -132 c 2,52,-1
 60 393 l 2,21,22
EndSplineSet
EndChar
StartChar: q
Encoding: 113 113 82
Width: 541
VWidth: 1494
Flags: W
HStem: -235 21G<446 499> -13 53<182.571 330.03> 471 54<182.571 330.811>
VStem: 43 51<207.793 303.177> 425 55<-168.986 79 161.031 349.453 426 446.881>
Fore
257 40 m 0,0,1
 296 40 296 40 326 56.5 c 128,-1,2
 356 73 356 73 376 100 c 128,-1,3
 396 127 396 127 408 160 c 128,-1,4
 420 193 420 193 425 226 c 2,5,-1
 425 284 l 2,6,7
 422 317 422 317 410 350.5 c 128,-1,8
 398 384 398 384 377.5 411 c 128,-1,9
 357 438 357 438 327 454.5 c 128,-1,10
 297 471 297 471 257 471 c 0,11,12
 214 471 214 471 183 451 c 128,-1,13
 152 431 152 431 132 399.5 c 128,-1,14
 112 368 112 368 103 329.5 c 128,-1,15
 94 291 94 291 94 256 c 256,16,17
 94 220 94 220 103 182 c 128,-1,18
 112 144 112 144 132 112.5 c 128,-1,19
 152 81 152 81 183 60.5 c 128,-1,20
 214 40 214 40 257 40 c 0,0,1
480 -132 m 2,21,22
 480 -161 480 -161 488 -187.5 c 128,-1,23
 496 -214 496 -214 499 -215 c 1,24,-1
 448 -235 l 1,25,26
 444 -226 444 -226 434.5 -200.5 c 128,-1,27
 425 -175 425 -175 425 -132 c 2,28,-1
 425 79 l 1,29,30
 399 37 399 37 357 12 c 128,-1,31
 315 -13 315 -13 257 -13 c 0,32,33
 203 -13 203 -13 163 10 c 128,-1,34
 123 33 123 33 96 71 c 128,-1,35
 69 109 69 109 56 157 c 128,-1,36
 43 205 43 205 43 256 c 0,37,38
 43 305 43 305 56 353.5 c 128,-1,39
 69 402 69 402 96 440 c 128,-1,40
 123 478 123 478 163 501.5 c 128,-1,41
 203 525 203 525 257 525 c 0,42,43
 315 525 315 525 358 497 c 128,-1,44
 401 469 401 469 426 426 c 1,45,46
 426 469 426 469 436.5 491.5 c 128,-1,47
 447 514 447 514 451 523 c 1,48,-1
 502 504 l 1,49,50
 495 487 495 487 487.5 464.5 c 128,-1,51
 480 442 480 442 480 393 c 2,52,-1
 480 -132 l 2,21,22
EndSplineSet
EndChar
StartChar: r
Encoding: 114 114 83
Width: 331
VWidth: 1494
Flags: W
HStem: 0 21G<70 126> 469 58.5<221.572 304.311>
VStem: 70 56<0 391.004>
Fore
70 393 m 2,0,1
 70 442 70 442 62.5 464.5 c 128,-1,2
 55 487 55 487 48 504 c 1,3,-1
 97 523 l 1,4,5
 99 519 99 519 104 508.5 c 128,-1,6
 109 498 109 498 113.5 482 c 128,-1,7
 118 466 118 466 121 447.5 c 128,-1,8
 124 429 124 429 121 410 c 1,9,10
 127 450 127 450 148 477 c 128,-1,11
 169 504 169 504 198 516.5 c 128,-1,12
 227 529 227 529 262 527.5 c 128,-1,13
 297 526 297 526 333 510 c 1,14,-1
 305 457 l 1,15,16
 283 469 283 469 253 469 c 128,-1,17
 223 469 223 469 196 451 c 128,-1,18
 169 433 169 433 149 393.5 c 128,-1,19
 129 354 129 354 126 287 c 2,20,-1
 126 0 l 1,21,-1
 70 0 l 1,22,-1
 70 393 l 2,0,1
EndSplineSet
EndChar
StartChar: s
Encoding: 115 115 84
Width: 424
VWidth: 1494
Flags: W
HStem: -13 49<157.845 299.196> 477 52<134.859 268.437>
VStem: 40 59<340.136 429.307> 341 57<71.5776 163.916>
Fore
398 133 m 0,0,1
 398 69 398 69 351.5 28.5 c 128,-1,2
 305 -12 305 -12 209 -13 c 0,3,4
 170 -13 170 -13 140.5 -6.5 c 128,-1,5
 111 0 111 0 88.5 9.5 c 128,-1,6
 66 19 66 19 48.5 32 c 128,-1,7
 31 45 31 45 19 55 c 1,8,-1
 58 96 l 1,9,10
 79 76 79 76 116.5 55 c 128,-1,11
 154 34 154 34 211 36 c 0,12,13
 269 37 269 37 305 60.5 c 128,-1,14
 341 84 341 84 341 123 c 0,15,16
 341 144 341 144 334 158.5 c 128,-1,17
 327 173 327 173 310.5 186 c 128,-1,18
 294 199 294 199 266 211 c 128,-1,19
 238 223 238 223 196 238 c 0,20,21
 121 265 121 265 80.5 300.5 c 128,-1,22
 40 336 40 336 40 384 c 0,23,24
 40 411 40 411 51.5 437 c 128,-1,25
 63 463 63 463 84 483.5 c 128,-1,26
 105 504 105 504 137 516.5 c 128,-1,27
 169 529 169 529 211 529 c 0,28,29
 230 529 230 529 252 524.5 c 128,-1,30
 274 520 274 520 295.5 513.5 c 128,-1,31
 317 507 317 507 335 498.5 c 128,-1,32
 353 490 353 490 365 483 c 1,33,-1
 341 433 l 1,34,35
 329 442 329 442 291.5 459.5 c 128,-1,36
 254 477 254 477 209 477 c 0,37,38
 157 477 157 477 128 452.5 c 128,-1,39
 99 428 99 428 99 392 c 0,40,41
 99 351 99 351 134 329.5 c 128,-1,42
 169 308 169 308 232 284 c 0,43,44
 268 271 268 271 298.5 257.5 c 128,-1,45
 329 244 329 244 350.5 226.5 c 128,-1,46
 372 209 372 209 385 186.5 c 128,-1,47
 398 164 398 164 398 133 c 0,0,1
EndSplineSet
EndChar
StartChar: t
Encoding: 116 116 85
Width: 298
VWidth: 1494
Flags: W
HStem: -13 52<162.234 237.971> 475 45<22 93 146 256>
VStem: 93 53<53.4456 110.273 110.273 475 520 649>
Fore
217 39 m 0,0,1
 230 39 230 39 242 43.5 c 128,-1,2
 254 48 254 48 263 51 c 1,3,-1
 280 0 l 1,4,5
 265 -3 265 -3 244 -8 c 128,-1,6
 223 -13 223 -13 208 -13 c 0,7,8
 164 -13 164 -13 141 1 c 128,-1,9
 118 15 118 15 107 36.5 c 128,-1,10
 96 58 96 58 94.5 84.5 c 128,-1,11
 93 111 93 111 93 136 c 2,12,-1
 93 475 l 1,13,-1
 10 475 l 1,14,-1
 22 520 l 1,15,-1
 93 520 l 1,16,-1
 93 649 l 1,17,-1
 127 676 l 1,18,-1
 146 676 l 1,19,-1
 146 520 l 1,20,-1
 268 520 l 1,21,-1
 256 475 l 1,22,-1
 146 475 l 1,23,-1
 146 114 l 2,24,25
 146 67 146 67 165.5 53 c 128,-1,26
 185 39 185 39 217 39 c 0,0,1
EndSplineSet
EndChar
StartChar: u
Encoding: 117 117 86
Width: 530
VWidth: 1494
Flags: W
HStem: -13 49<179.021 319.656> 500 20G<66 120 401 456>
VStem: 66 54<143.031 520> 401 55<58.1188 75 174.35 211 211 520>
Fore
456 112 m 2,0,1
 456 63 456 63 463.5 40.5 c 128,-1,2
 471 18 471 18 478 1 c 1,3,-1
 429 -18 l 1,4,5
 425 -9 425 -9 413.5 11 c 128,-1,6
 402 31 402 31 402 75 c 1,7,8
 380 28 380 28 335 7.5 c 128,-1,9
 290 -13 290 -13 245 -13 c 0,10,11
 190 -13 190 -13 155.5 8.5 c 128,-1,12
 121 30 121 30 101 60.5 c 128,-1,13
 81 91 81 91 73.5 123 c 128,-1,14
 66 155 66 155 66 178 c 2,15,-1
 66 520 l 1,16,-1
 120 520 l 1,17,-1
 120 176 l 2,18,19
 120 111 120 111 159.5 73.5 c 128,-1,20
 199 36 199 36 256 36 c 0,21,22
 288 36 288 36 315 51 c 128,-1,23
 342 66 342 66 361 90.5 c 128,-1,24
 380 115 380 115 390.5 146.5 c 128,-1,25
 401 178 401 178 401 211 c 2,26,-1
 401 520 l 1,27,-1
 456 520 l 1,28,-1
 456 112 l 2,0,1
EndSplineSet
EndChar
StartChar: v
Encoding: 118 118 87
Width: 500
VWidth: 1494
Flags: W
HStem: 508 20G<28 91.4775 406.613 471>
VStem: 28 443<517 517 517 517>
Fore
414 528 m 1,0,-1
 471 517 l 1,1,2
 416 372 416 372 372 259 c 0,3,4
 354 209 354 209 336 163 c 128,-1,5
 318 117 318 117 304 81 c 128,-1,6
 290 45 290 45 282 23 c 128,-1,7
 274 1 274 1 274 0 c 0,8,9
 271 -12 271 -12 259 -14 c 128,-1,10
 247 -16 247 -16 235.5 -11.5 c 128,-1,11
 224 -7 224 -7 217.5 0 c 128,-1,12
 211 7 211 7 215 16 c 2,13,-1
 218 22 l 1,14,-1
 28 517 l 1,15,-1
 84 528 l 1,16,-1
 250 84 l 1,17,-1
 414 528 l 1,0,-1
EndSplineSet
EndChar
StartChar: w
Encoding: 119 119 88
Width: 777
VWidth: 1494
Flags: W
HStem: 514 20G<30 91.1778 682.85 744>
VStem: 369 54<488.137 522.286>
Fore
369 516 m 2,0,1
 374 525 374 525 384.5 525.5 c 128,-1,2
 395 526 395 526 405.5 522.5 c 128,-1,3
 416 519 416 519 422 512 c 128,-1,4
 428 505 428 505 423 496 c 1,5,-1
 419 477 l 1,6,-1
 550 82 l 1,7,-1
 689 534 l 1,8,-1
 744 520 l 1,9,-1
 587 30 l 1,10,-1
 592 15 l 2,11,12
 595 4 595 4 584.5 -1.5 c 128,-1,13
 574 -7 574 -7 560.5 -8 c 128,-1,14
 547 -9 547 -9 536 -4.5 c 128,-1,15
 525 0 525 0 525 12 c 1,16,-1
 387 413 l 1,17,-1
 248 12 l 1,18,19
 248 0 248 0 237 -4.5 c 128,-1,20
 226 -9 226 -9 212.5 -8 c 128,-1,21
 199 -7 199 -7 188.5 -1.5 c 128,-1,22
 178 4 178 4 181 15 c 2,23,-1
 185 30 l 1,24,-1
 30 519 l 1,25,-1
 85 532 l 1,26,-1
 224 82 l 1,27,-1
 369 516 l 2,0,1
EndSplineSet
EndChar
StartChar: x
Encoding: 120 120 89
Width: 496
VWidth: 1494
Flags: W
HStem: -9 21G<50.3529 92.8899 402.022 443.471> 517 20G<47.875 90.3698 402.714 445.125>
VStem: 31 431<25 25 25 25>
Fore
278 259 m 1,0,-1
 462 25 l 1,1,-1
 417 -9 l 1,2,-1
 247 218 l 1,3,-1
 78 -9 l 1,4,-1
 31 25 l 1,5,-1
 214 259 l 1,6,-1
 31 505 l 1,7,-1
 76 537 l 1,8,-1
 247 299 l 1,9,-1
 417 537 l 1,10,-1
 462 505 l 1,11,-1
 278 259 l 1,0,-1
EndSplineSet
EndChar
StartChar: y
Encoding: 121 121 90
Width: 517
VWidth: 1494
Flags: W
HStem: -235 21G<84.3333 95> 515 20G<40 93.0617 428.599 477.667>
VStem: 31 455<511 511 511 511>
Fore
250 -105 m 2,0,1
 238 -132 238 -132 223.5 -152 c 128,-1,2
 209 -172 209 -172 188 -188 c 0,3,4
 154 -212 154 -212 126.5 -221 c 128,-1,5
 99 -230 99 -230 91 -235 c 1,6,-1
 75 -187 l 1,7,8
 115 -170 115 -170 139 -157.5 c 128,-1,9
 163 -145 163 -145 179.5 -125 c 128,-1,10
 196 -105 196 -105 208 -72.5 c 128,-1,11
 220 -40 220 -40 236 15 c 1,12,-1
 31 511 l 1,13,-1
 85 535 l 1,14,-1
 268 81 l 1,15,-1
 436 535 l 1,16,-1
 486 511 l 1,17,18
 476 484 l 2,19,20
 466 457 466 457 449.5 414 c 128,-1,21
 433 371 433 371 412.5 316.5 c 128,-1,22
 392 262 392 262 369.5 204 c 128,-1,23
 347 146 347 146 326 91 c 128,-1,24
 305 36 305 36 288.5 -7.5 c 128,-1,25
 272 -51 272 -51 261.5 -77 c 128,-1,26
 251 -103 251 -103 250 -105 c 2,0,1
EndSplineSet
EndChar
StartChar: z
Encoding: 122 122 91
Width: 464
VWidth: 1494
Flags: W
HStem: 0 52<36.1255 46 114 432> 466 54<48 350 419 428.479>
VStem: 28 404<10.0312 41.9688 26 493.5 26 26>
Fore
46 0 m 2,0,1
 37 0 37 0 32.5 8 c 128,-1,2
 28 16 28 16 28 26 c 128,-1,3
 28 36 28 36 32.5 44 c 128,-1,4
 37 52 37 52 46 52 c 1,5,-1
 350 466 l 1,6,-1
 48 466 l 1,7,-1
 48 520 l 1,8,-1
 419 520 l 2,9,10
 428 520 428 520 432 512 c 128,-1,11
 436 504 436 504 436 493.5 c 128,-1,12
 436 483 436 483 432 474.5 c 128,-1,13
 428 466 428 466 419 466 c 1,14,-1
 114 52 l 1,15,-1
 432 52 l 1,16,-1
 432 0 l 1,17,-1
 46 0 l 2,0,1
EndSplineSet
EndChar
StartChar: braceleft
Encoding: 123 123 92
Width: 273
VWidth: 1494
Flags: W
HStem: -152 19<173 208> 753 20<173 208>
VStem: 82 51<-117.715 242.64 242.64 252.117 252.117 257.5 368.096 737.715>
Fore
208 -133 m 1,0,-1
 223 -152 l 1,1,-1
 151 -152 l 2,2,3
 120 -152 120 -152 101 -130 c 128,-1,4
 82 -108 82 -108 82 -82 c 2,5,-1
 82 239 l 2,6,7
 82 259 82 259 75.5 275 c 128,-1,8
 69 291 69 291 48 299 c 1,9,-1
 49 321 l 1,10,11
 66 329 66 329 74 345.5 c 128,-1,12
 82 362 82 362 82 381 c 2,13,-1
 82 703 l 2,14,15
 82 728 82 728 101 750.5 c 128,-1,16
 120 773 120 773 151 773 c 2,17,-1
 223 773 l 1,18,-1
 208 753 l 1,19,-1
 173 750 l 1,20,21
 161 747 161 747 147 738 c 128,-1,22
 133 729 133 729 133 704 c 2,23,-1
 133 389 l 2,24,25
 133 377 133 377 128 363.5 c 128,-1,26
 123 350 123 350 115.5 338 c 128,-1,27
 108 326 108 326 99.5 318.5 c 128,-1,28
 91 311 91 311 85 309 c 1,29,30
 91 309 91 309 99.5 301 c 128,-1,31
 108 293 108 293 115.5 282 c 128,-1,32
 123 271 123 271 128 257.5 c 128,-1,33
 133 244 133 244 133 232 c 2,34,-1
 133 -84 l 2,35,36
 133 -109 133 -109 147 -118 c 128,-1,37
 161 -127 161 -127 173 -130 c 1,38,-1
 208 -133 l 1,0,-1
EndSplineSet
EndChar
StartChar: bar
Encoding: 124 124 93
Width: 194
VWidth: 1494
Flags: W
HStem: 0 709<82 124 82 124 82 82>
VStem: 82 42<0 709>
Fore
124 709 m 1,0,-1
 124 0 l 1,1,-1
 82 0 l 1,2,-1
 82 709 l 1,3,-1
 124 709 l 1,0,-1
EndSplineSet
EndChar
StartChar: braceright
Encoding: 125 125 94
Width: 281
VWidth: 1494
Flags: W
HStem: -152 19<69 103> 753 20<69 103>
VStem: 144 50<-117.715 242.64 242.64 252.117 252.117 257.5 368.096 737.715>
Fore
103 -130 m 1,0,1
 115 -127 115 -127 129.5 -118 c 128,-1,2
 144 -109 144 -109 144 -84 c 2,3,-1
 144 232 l 2,4,5
 144 244 144 244 149 257.5 c 128,-1,6
 154 271 154 271 161.5 282 c 128,-1,7
 169 293 169 293 177 301 c 128,-1,8
 185 309 185 309 191 309 c 1,9,10
 185 311 185 311 177 318.5 c 128,-1,11
 169 326 169 326 161.5 338 c 128,-1,12
 154 350 154 350 149 363.5 c 128,-1,13
 144 377 144 377 144 389 c 2,14,-1
 144 704 l 2,15,16
 144 729 144 729 129.5 738 c 128,-1,17
 115 747 115 747 103 750 c 1,18,-1
 69 753 l 1,19,-1
 54 773 l 1,20,-1
 126 773 l 2,21,22
 157 773 157 773 175.5 750.5 c 128,-1,23
 194 728 194 728 194 703 c 2,24,-1
 194 381 l 2,25,26
 194 362 194 362 202.5 345.5 c 128,-1,27
 211 329 211 329 227 321 c 1,28,-1
 229 299 l 1,29,30
 208 291 208 291 201 275 c 128,-1,31
 194 259 194 259 194 239 c 2,32,-1
 194 -82 l 2,33,34
 194 -108 194 -108 175.5 -130 c 128,-1,35
 157 -152 157 -152 126 -152 c 2,36,-1
 54 -152 l 1,37,-1
 69 -133 l 1,38,-1
 103 -130 l 1,0,1
EndSplineSet
EndChar
StartChar: asciitilde
Encoding: 126 126 95
Width: 606
VWidth: 1494
Flags: W
HStem: 197 57<386.393 450.631> 265 58<159.499 231.387>
VStem: 64 486<227 297 202.632 273.735>
Fore
550 297 m 1,0,1
 529 259 529 259 497 228 c 128,-1,2
 465 197 465 197 413 197 c 0,3,4
 386 197 386 197 359 207.5 c 128,-1,5
 332 218 332 218 306 231 c 128,-1,6
 280 244 280 244 254.5 254.5 c 128,-1,7
 229 265 229 265 205 265 c 0,8,9
 164 265 164 265 138 235 c 128,-1,10
 112 205 112 205 96 176 c 1,11,-1
 64 227 l 1,12,13
 75 244 75 244 87.5 261 c 128,-1,14
 100 278 100 278 117.5 291.5 c 128,-1,15
 135 305 135 305 155.5 314 c 128,-1,16
 176 323 176 323 203 323 c 0,17,18
 226 323 226 323 253.5 312.5 c 128,-1,19
 281 302 281 302 310 288.5 c 128,-1,20
 339 275 339 275 367 264.5 c 128,-1,21
 395 254 395 254 416 254 c 0,22,23
 432 254 432 254 447 262.5 c 128,-1,24
 462 271 462 271 474.5 283.5 c 128,-1,25
 487 296 487 296 497 310 c 128,-1,26
 507 324 507 324 514 338 c 1,27,-1
 550 297 l 1,0,1
EndSplineSet
EndChar
StartChar: uni0E33.alt1
Encoding: 65539 -1 96
Width: 521
VWidth: 1494
Flags: W
HStem: 0 21G<378 436> 556 54<159.943 279.426> 692 52<-342.629 -256.343> 860 52<-342.629 -256.343>
VStem: -410 53<758.549 845.657> -242 52<758.549 845.657> 39 55<395.579 440.694> 378 58<0 467.654>
Fore
-410 803 m 0,0,1
 -410 848 -410 848 -377.5 880 c 128,-1,2
 -345 912 -345 912 -299 912 c 0,3,4
 -254 912 -254 912 -222 880 c 128,-1,5
 -190 848 -190 848 -190 803 c 0,6,7
 -190 756 -190 756 -222 724 c 128,-1,8
 -254 692 -254 692 -299 692 c 0,9,10
 -345 692 -345 692 -377.5 724 c 128,-1,11
 -410 756 -410 756 -410 803 c 0,0,1
-299 744 m 0,12,13
 -275 744 -275 744 -258.5 760.5 c 128,-1,14
 -242 777 -242 777 -242 803 c 0,15,16
 -242 827 -242 827 -258.5 843.5 c 128,-1,17
 -275 860 -275 860 -299 860 c 0,18,19
 -324 860 -324 860 -340.5 843.5 c 128,-1,20
 -357 827 -357 827 -357 803 c 0,21,22
 -357 777 -357 777 -340.5 760.5 c 128,-1,23
 -324 744 -324 744 -299 744 c 0,12,13
436 0 m 1,24,-1
 378 0 l 1,25,-1
 378 447 l 2,26,27
 378 466 378 466 386 478 c 1,28,29
 380 489 380 489 368 502.5 c 128,-1,30
 356 516 356 516 338 528 c 128,-1,31
 320 540 320 540 294.5 548 c 128,-1,32
 269 556 269 556 238 556 c 0,33,34
 169 556 169 556 135.5 509.5 c 128,-1,35
 102 463 102 463 94 392 c 1,36,-1
 39 392 l 1,37,38
 42 438 42 438 56 477.5 c 128,-1,39
 70 517 70 517 95 546 c 128,-1,40
 120 575 120 575 155.5 592.5 c 128,-1,41
 191 610 191 610 238 610 c 0,42,43
 275 610 275 610 305 601.5 c 128,-1,44
 335 593 335 593 357.5 580.5 c 128,-1,45
 380 568 380 568 395.5 552.5 c 128,-1,46
 411 537 411 537 419 522 c 1,47,48
 422 525 422 525 430 523.5 c 128,-1,49
 438 522 438 522 450 510 c 0,50,51
 463 493 463 493 460 485.5 c 128,-1,52
 457 478 457 478 447 468 c 256,53,54
 436 457 436 457 436 436 c 2,55,-1
 436 0 l 1,24,-1
EndSplineSet
EndChar
StartChar: quotedbl
Encoding: 34 34 97
Width: 300
VWidth: 1494
Flags: W
HStem: 460 241<66 106 196 236>
VStem: 66 40<462.485 488.008> 196 40<462.485 488.008>
Fore
236 460 m 1,0,-1
 196 460 l 1,1,-1
 181 701 l 1,2,-1
 251 701 l 1,3,-1
 236 460 l 1,0,-1
106 460 m 1,4,-1
 66 460 l 1,5,-1
 51 701 l 1,6,-1
 121 701 l 1,7,-1
 106 460 l 1,4,-1
EndSplineSet
EndChar
StartChar: exclam
Encoding: 33 33 98
Width: 340
VWidth: 1494
Flags: W
HStem: 0 99<139.47 209.561> 689 20G<138 211>
VStem: 124 100<14.4397 85.0763> 138 73<563.615 709> 151 48<169 314.385>
Fore
151 169 m 1,0,-1
 138 709 l 1,1,-1
 211 709 l 1,2,-1
 199 169 l 1,3,-1
 151 169 l 1,0,-1
224 51 m 0,4,5
 224 28 224 28 210 14 c 128,-1,6
 196 0 196 0 176 0 c 0,7,8
 154 0 154 0 139 14 c 128,-1,9
 124 28 124 28 124 51 c 0,10,11
 124 72 124 72 139 85.5 c 128,-1,12
 154 99 154 99 176 99 c 0,13,14
 196 99 196 99 210 85.5 c 128,-1,15
 224 72 224 72 224 51 c 0,4,5
EndSplineSet
EndChar
StartChar: uni0E4E.alt1
Encoding: 65540 -1 99
Width: 0
VWidth: 1494
Flags: W
HStem: 700 20G<-221 -210.364> 988 14<-180.773 -129>
VStem: -378 61<713.537 793.28>
Fore
-100 988 m 1,0,1
 -146 987 -146 987 -187.5 963 c 128,-1,2
 -229 939 -229 939 -228 902 c 128,-1,3
 -227 865 -227 865 -181 855 c 1,4,-1
 -191 821 l 1,5,6
 -305 821 -305 821 -317 755 c 1,7,8
 -317 713 -317 713 -276.5 708.5 c 128,-1,9
 -236 704 -236 704 -206 720 c 1,10,-1
 -218 665 l 1,11,12
 -272 646 -272 646 -324.5 664 c 128,-1,13
 -377 682 -377 682 -378 749 c 1,14,15
 -366 837 -366 837 -250 851 c 1,16,17
 -291 894 -291 894 -281.5 930.5 c 128,-1,18
 -272 967 -272 967 -231.5 985 c 128,-1,19
 -191 1003 -191 1003 -129 1002 c 1,20,-1
 -100 988 l 1,0,1
EndSplineSet
EndChar
StartChar: exclamdown
Encoding: 161 161 100
Width: 231
VWidth: 1494
Flags: W
HStem: 419 98<79.4707 149.561>
VStem: 64 100<433.439 503.076> 78 73<-197 -51.8846> 91 48<196.885 342>
Fore
139 342 m 1,0,-1
 151 -197 l 1,1,-1
 78 -197 l 1,2,-1
 91 342 l 1,3,-1
 139 342 l 1,0,-1
164 469 m 0,4,5
 164 447 164 447 150 433 c 128,-1,6
 136 419 136 419 117 419 c 0,7,8
 94 419 94 419 79 433 c 128,-1,9
 64 447 64 447 64 469 c 0,10,11
 64 490 64 490 79 503.5 c 128,-1,12
 94 517 94 517 117 517 c 0,13,14
 136 517 136 517 150 503.5 c 128,-1,15
 164 490 164 490 164 469 c 0,4,5
EndSplineSet
EndChar
StartChar: cent
Encoding: 162 162 101
Width: 494
VWidth: 1494
Flags: W
HStem: 0 21G<262 293> 92 53<234.698 235.5 244.5 249.673 249.673 254.28 254.28 262 293 325.897> 559 54<297.746 329.199>
VStem: 66 363<148 350 301.5 306.673> 66 54<238.944 459.889> 262 31<0 85 141 558 613 689>
Fore
293 689 m 1,0,-1
 293 613 l 1,1,2
 327 610 327 610 359.5 598 c 128,-1,3
 392 586 392 586 419 561 c 1,4,-1
 395 507 l 1,5,6
 374 532 374 532 347.5 544 c 128,-1,7
 321 556 321 556 293 559 c 1,8,-1
 293 139 l 1,9,10
 321 139 321 139 348 148.5 c 128,-1,11
 375 158 375 158 396 184 c 1,12,-1
 429 148 l 1,13,14
 404 115 404 115 368 101 c 128,-1,15
 332 87 332 87 293 85 c 1,16,-1
 293 0 l 1,17,-1
 262 0 l 1,18,-1
 262 87 l 1,19,20
 248 90 248 90 235.5 92 c 128,-1,21
 223 94 223 94 211 99 c 0,22,23
 190 106 190 106 165.5 122.5 c 128,-1,24
 141 139 141 139 118.5 168 c 128,-1,25
 96 197 96 197 81 241.5 c 128,-1,26
 66 286 66 286 66 350 c 256,27,28
 66 414 66 414 81 458 c 128,-1,29
 96 502 96 502 118.5 531.5 c 128,-1,30
 141 561 141 561 165.5 576.5 c 128,-1,31
 190 592 190 592 211 599 c 0,32,33
 238 610 238 610 262 611 c 1,34,-1
 262 689 l 1,35,-1
 293 689 l 1,0,-1
229 149 m 0,36,37
 236 146 236 146 244.5 145 c 128,-1,38
 253 144 253 144 262 141 c 1,39,-1
 262 558 l 1,40,41
 193 547 193 547 156.5 491 c 128,-1,42
 120 435 120 435 120 350 c 0,43,44
 120 274 120 274 148 221.5 c 128,-1,45
 176 169 176 169 229 149 c 0,36,37
EndSplineSet
EndChar
StartChar: sterling
Encoding: 163 163 102
Width: 571
VWidth: 1494
Flags: W
HStem: 0 51<155 516> 333 45<76 187 247 396> 607 21G<473 490.13> 664 48<271.812 432.006>
VStem: 63 453<0 37> 199.5 52.5<178.188 310.312>
Fore
63 0 m 1,0,-1
 63 37 l 1,1,2
 114 66 114 66 143 98 c 128,-1,3
 172 130 172 130 185.5 167.5 c 128,-1,4
 199 205 199 205 199.5 246 c 128,-1,5
 200 287 200 287 193 333 c 1,6,-1
 64 333 l 1,7,-1
 76 378 l 1,8,-1
 187 378 l 1,9,10
 181 404 181 404 169.5 437.5 c 128,-1,11
 158 471 158 471 157 505 c 0,12,13
 154 608 154 608 211.5 660 c 128,-1,14
 269 712 269 712 356 712 c 0,15,16
 402 712 402 712 442.5 693 c 128,-1,17
 483 674 483 674 502 653 c 1,18,-1
 481 607 l 1,19,20
 465 628 465 628 429 646 c 128,-1,21
 393 664 393 664 354 664 c 0,22,23
 283 664 283 664 244.5 619.5 c 128,-1,24
 206 575 206 575 212 504 c 0,25,26
 215 465 215 465 225 434.5 c 128,-1,27
 235 404 235 404 241 378 c 1,28,-1
 408 378 l 1,29,-1
 396 333 l 1,30,-1
 247 333 l 1,31,32
 254 297 254 297 252 256 c 128,-1,33
 250 215 250 215 238.5 177 c 128,-1,34
 227 139 227 139 206 105.5 c 128,-1,35
 185 72 185 72 155 51 c 1,36,-1
 516 51 l 1,37,-1
 516 0 l 1,38,-1
 63 0 l 1,0,-1
EndSplineSet
EndChar
StartChar: currency
Encoding: 164 164 103
Width: 657
VWidth: 1494
Flags: W
HStem: 154 48<274.416 387.372> 490 48<274.275 386.434>
VStem: 139 48<289.416 423.486> 474 48<289.416 402.226>
Fore
522 345 m 256,0,1
 522 311 522 311 510 280.5 c 128,-1,2
 498 250 498 250 477 224 c 1,3,-1
 567 136 l 1,4,-1
 538 108 l 1,5,-1
 448 194 l 1,6,7
 425 176 425 176 395 165 c 128,-1,8
 365 154 365 154 330 154 c 256,9,10
 296 154 296 154 265.5 166 c 128,-1,11
 235 178 235 178 211 197 c 1,12,-1
 118 108 l 1,13,-1
 91 136 l 1,14,-1
 181 226 l 1,15,16
 163 250 163 250 151 280.5 c 128,-1,17
 139 311 139 311 139 345 c 0,18,19
 139 414 139 414 179 463 c 1,20,-1
 91 552 l 1,21,-1
 118 580 l 1,22,-1
 208 493 l 1,23,24
 233 514 233 514 264.5 526 c 128,-1,25
 296 538 296 538 330 538 c 256,26,27
 365 538 365 538 395.5 526 c 128,-1,28
 426 514 426 514 450 495 c 1,29,-1
 538 580 l 1,30,-1
 567 552 l 1,31,-1
 480 466 l 1,32,33
 498 441 498 441 510 410.5 c 128,-1,34
 522 380 522 380 522 345 c 256,0,1
330 202 m 256,35,36
 390 202 390 202 432 244 c 128,-1,37
 474 286 474 286 474 345 c 0,38,39
 474 407 474 407 432 448.5 c 128,-1,40
 390 490 390 490 330 490 c 256,41,42
 271 490 271 490 229 448.5 c 128,-1,43
 187 407 187 407 187 345 c 0,44,45
 187 286 187 286 229 244 c 128,-1,46
 271 202 271 202 330 202 c 256,35,36
EndSplineSet
EndChar
StartChar: yen
Encoding: 165 165 104
Width: 571
VWidth: 1494
Flags: W
HStem: -4 21G<254 312> 200 47<76 254 312 495> 339 42<76 218 348 495> 698 20G<50 94.1791 487 522>
VStem: 254 58<-4 200 247 320>
Fore
348 381 m 1,0,-1
 495 381 l 1,1,-1
 495 339 l 1,2,-1
 323 339 l 1,3,-1
 312 320 l 1,4,-1
 312 247 l 1,5,-1
 495 247 l 1,6,-1
 495 200 l 1,7,-1
 312 200 l 1,8,-1
 312 -4 l 1,9,-1
 254 -4 l 1,10,-1
 254 200 l 1,11,-1
 76 200 l 1,12,-1
 76 247 l 1,13,-1
 254 247 l 1,14,-1
 254 320 l 1,15,-1
 244 339 l 1,16,-1
 76 339 l 1,17,-1
 76 381 l 1,18,-1
 218 381 l 1,19,20
 155 486 155 486 120 542.5 c 128,-1,21
 85 599 85 599 68 628.5 c 128,-1,22
 51 658 51 658 45.5 668.5 c 128,-1,23
 40 679 40 679 34 688 c 1,24,-1
 82 718 l 1,25,-1
 286 383 l 1,26,27
 353 498 353 498 391 560.5 c 128,-1,28
 429 623 429 623 449 654.5 c 128,-1,29
 469 686 469 686 476.5 696.5 c 128,-1,30
 484 707 484 707 490 718 c 1,31,-1
 538 688 l 1,32,-1
 348 381 l 1,0,-1
EndSplineSet
EndChar
StartChar: brokenbar
Encoding: 166 166 105
Width: 261
VWidth: 1494
Flags: W
HStem: 695 20G<106 158>
VStem: 106 52<-190 178 347 715>
Fore
158 347 m 1,0,-1
 106 347 l 1,1,-1
 106 715 l 1,2,-1
 158 715 l 1,3,-1
 158 347 l 1,0,-1
158 -190 m 1,4,-1
 106 -190 l 1,5,-1
 106 178 l 1,6,-1
 158 178 l 1,7,-1
 158 -190 l 1,4,-1
EndSplineSet
EndChar
StartChar: section
Encoding: 167 167 106
Width: 571
VWidth: 1494
Flags: W
HStem: -60 47<182.16 360.102> 688 43<215.365 378.645>
VStem: 84 48<331.319 425.852> 118 54<546.184 648.362> 407 52<29.8268 125.793> 436 50<257.603 367.478>
Fore
486 321 m 0,0,1
 486 281 486 281 469.5 250.5 c 128,-1,2
 453 220 453 220 423 191 c 1,3,4
 436 179 436 179 447.5 154.5 c 128,-1,5
 459 130 459 130 459 99 c 0,6,7
 459 24 459 24 403.5 -18 c 128,-1,8
 348 -60 348 -60 268 -60 c 0,9,10
 215 -60 215 -60 175.5 -46.5 c 128,-1,11
 136 -33 136 -33 111 -10 c 1,12,-1
 135 33 l 1,13,14
 152 15 152 15 186.5 1 c 128,-1,15
 221 -13 221 -13 271 -13 c 0,16,17
 332 -13 332 -13 369.5 15 c 128,-1,18
 407 43 407 43 407 91 c 0,19,20
 407 114 407 114 400 131.5 c 128,-1,21
 393 149 393 149 376.5 165 c 128,-1,22
 360 181 360 181 331.5 194.5 c 128,-1,23
 303 208 303 208 260 223 c 0,24,25
 172 251 172 251 128 284.5 c 128,-1,26
 84 318 84 318 84 381 c 0,27,28
 84 408 84 408 97.5 438.5 c 128,-1,29
 111 469 111 469 152 502 c 1,30,31
 136 517 136 517 127 539 c 128,-1,32
 118 561 118 561 118 584 c 0,33,34
 118 652 118 652 169.5 691.5 c 128,-1,35
 221 731 221 731 300 731 c 0,36,37
 351 731 351 731 388.5 718.5 c 128,-1,38
 426 706 426 706 450 692 c 1,39,-1
 423 647 l 1,40,41
 404 661 404 661 371 674.5 c 128,-1,42
 338 688 338 688 293 688 c 0,43,44
 242 688 242 688 207 661 c 128,-1,45
 172 634 172 634 172 593 c 0,46,47
 172 546 172 546 214.5 519.5 c 128,-1,48
 257 493 257 493 324 472 c 0,49,50
 359 460 359 460 389 446.5 c 128,-1,51
 419 433 419 433 440.5 417 c 128,-1,52
 462 401 462 401 474 377.5 c 128,-1,53
 486 354 486 354 486 321 c 0,0,1
436 314 m 0,54,55
 436 347 436 347 407 375.5 c 128,-1,56
 378 404 378 404 314 426 c 0,57,58
 284 435 284 435 248 448.5 c 128,-1,59
 212 462 212 462 187 477 c 1,60,61
 132 432 132 432 132 384 c 0,62,63
 132 354 132 354 160 323.5 c 128,-1,64
 188 293 188 293 271 266 c 0,65,66
 320 248 320 248 347 240 c 128,-1,67
 374 232 374 232 390 220 c 1,68,69
 408 239 408 239 422 263 c 128,-1,70
 436 287 436 287 436 314 c 0,54,55
EndSplineSet
EndChar
StartChar: dieresis
Encoding: 168 168 107
Width: 346
VWidth: 1494
Flags: W
HStem: 601 94<45.8927 113.076 231.408 298.592>
VStem: 33 94<613.893 681.076> 218 94<613.893 681.076>
Fore
33 647 m 256,0,1
 33 668 33 668 45.5 681.5 c 128,-1,2
 58 695 58 695 79 695 c 256,3,4
 100 695 100 695 113.5 681.5 c 128,-1,5
 127 668 127 668 127 647 c 256,6,7
 127 626 127 626 113.5 613.5 c 128,-1,8
 100 601 100 601 79 601 c 256,9,10
 58 601 58 601 45.5 613.5 c 128,-1,11
 33 626 33 626 33 647 c 256,0,1
218 647 m 256,12,13
 218 668 218 668 231 681.5 c 128,-1,14
 244 695 244 695 265 695 c 256,15,16
 286 695 286 695 299 681.5 c 128,-1,17
 312 668 312 668 312 647 c 256,18,19
 312 626 312 626 299 613.5 c 128,-1,20
 286 601 286 601 265 601 c 256,21,22
 244 601 244 601 231 613.5 c 128,-1,23
 218 626 218 626 218 647 c 256,12,13
EndSplineSet
EndChar
StartChar: copyright
Encoding: 169 169 108
Width: 801
VWidth: 1494
Flags: W
HStem: -22 44<289.087 514.271> 683 43<289.087 515.324>
VStem: 42 45<232.75 473.15> 208 49<246.233 446.37> 718 43<232.75 472.065>
Fore
402 726 m 0,0,1
 475 726 475 726 541 696.5 c 128,-1,2
 607 667 607 667 655.5 616 c 128,-1,3
 704 565 704 565 732.5 497 c 128,-1,4
 761 429 761 429 761 353 c 0,5,6
 761 275 761 275 732.5 207 c 128,-1,7
 704 139 704 139 655.5 88 c 128,-1,8
 607 37 607 37 541 7.5 c 128,-1,9
 475 -22 475 -22 402 -22 c 0,10,11
 327 -22 327 -22 262 7.5 c 128,-1,12
 197 37 197 37 148 88 c 128,-1,13
 99 139 99 139 70.5 207 c 128,-1,14
 42 275 42 275 42 353 c 0,15,16
 42 429 42 429 70.5 497 c 128,-1,17
 99 565 99 565 148 616 c 128,-1,18
 197 667 197 667 262 696.5 c 128,-1,19
 327 726 327 726 402 726 c 0,0,1
402 22 m 256,20,21
 468 22 468 22 525.5 48.5 c 128,-1,22
 583 75 583 75 625.5 119.5 c 128,-1,23
 668 164 668 164 693 225 c 128,-1,24
 718 286 718 286 718 353 c 256,25,26
 718 420 718 420 693 480.5 c 128,-1,27
 668 541 668 541 625.5 586 c 128,-1,28
 583 631 583 631 525.5 657 c 128,-1,29
 468 683 468 683 402 683 c 256,30,31
 336 683 336 683 278.5 657 c 128,-1,32
 221 631 221 631 178.5 586 c 128,-1,33
 136 541 136 541 111.5 480.5 c 128,-1,34
 87 420 87 420 87 353 c 256,35,36
 87 286 87 286 111.5 225 c 128,-1,37
 136 164 136 164 178.5 119.5 c 128,-1,38
 221 75 221 75 278.5 48.5 c 128,-1,39
 336 22 336 22 402 22 c 256,20,21
552 161 m 1,40,41
 516 126 516 126 457.5 114.5 c 128,-1,42
 399 103 399 103 345 123 c 0,43,44
 326 129 326 129 302 143.5 c 128,-1,45
 278 158 278 158 257 183.5 c 128,-1,46
 236 209 236 209 222 248.5 c 128,-1,47
 208 288 208 288 208 347 c 0,48,49
 208 404 208 404 222 443.5 c 128,-1,50
 236 483 236 483 257 509 c 128,-1,51
 278 535 278 535 302 549.5 c 128,-1,52
 326 564 326 564 345 571 c 0,53,54
 395 589 395 589 448 578.5 c 128,-1,55
 501 568 501 568 540 532 c 1,56,-1
 517 489 l 1,57,58
 487 522 487 522 444 531 c 128,-1,59
 401 540 401 540 360 525 c 0,60,61
 312 508 312 508 284.5 461 c 128,-1,62
 257 414 257 414 257 347 c 256,63,64
 257 280 257 280 284.5 232 c 128,-1,65
 312 184 312 184 360 167 c 0,66,67
 378 161 378 161 400 159 c 128,-1,68
 422 157 422 157 442.5 160.5 c 128,-1,69
 463 164 463 164 483.5 174 c 128,-1,70
 504 184 504 184 519 200 c 1,71,-1
 552 161 l 1,40,41
EndSplineSet
EndChar
StartChar: ordfeminine
Encoding: 170 170 109
Width: 376
VWidth: 1494
Flags: W
HStem: 280 47<125.387 233.22> 573 47<125.812 234.339>
VStem: 36 45<412.094 487.107> 278 40<290 339 381.029 523.927 561 620>
Fore
172 280 m 0,0,1
 136 280 136 280 110.5 294.5 c 128,-1,2
 85 309 85 309 68.5 333 c 128,-1,3
 52 357 52 357 44 388 c 128,-1,4
 36 419 36 419 36 450 c 256,5,6
 36 481 36 481 44 512 c 128,-1,7
 52 543 52 543 68.5 566.5 c 128,-1,8
 85 590 85 590 110.5 605 c 128,-1,9
 136 620 136 620 172 620 c 0,10,11
 209 620 209 620 234.5 603.5 c 128,-1,12
 260 587 260 587 277 561 c 1,13,-1
 277 620 l 1,14,-1
 318 620 l 1,15,-1
 318 338 l 1,16,-1
 321 290 l 1,17,-1
 278 290 l 1,18,-1
 278 339 l 1,19,20
 262 312 262 312 235.5 296 c 128,-1,21
 209 280 209 280 172 280 c 0,0,1
175 573 m 0,22,23
 149 573 149 573 131.5 561 c 128,-1,24
 114 549 114 549 102.5 531 c 128,-1,25
 91 513 91 513 86 491 c 128,-1,26
 81 469 81 469 81 450 c 0,27,28
 81 429 81 429 86 407.5 c 128,-1,29
 91 386 91 386 102.5 368 c 128,-1,30
 114 350 114 350 131.5 338.5 c 128,-1,31
 149 327 149 327 175 327 c 0,32,33
 221 327 221 327 245 363 c 128,-1,34
 269 399 269 399 271 456 c 0,35,36
 271 504 271 504 246 538.5 c 128,-1,37
 221 573 221 573 175 573 c 0,22,23
EndSplineSet
EndChar
StartChar: guillemotleft
Encoding: 171 171 110
Width: 448
VWidth: 1494
Flags: W
HStem: 43 419<178 238 178 178>
VStem: 55 343<239 462 239 239>
Fore
178 462 m 1,0,-1
 238 462 l 1,1,-1
 103 253 l 1,2,-1
 238 43 l 1,3,-1
 178 43 l 1,4,-1
 55 239 l 2,5,6
 48 253 48 253 55 266 c 2,7,-1
 178 462 l 1,0,-1
338 462 m 1,8,-1
 398 462 l 1,9,-1
 263 253 l 1,10,-1
 398 43 l 1,11,-1
 338 43 l 1,12,-1
 215 239 l 2,13,14
 208 253 208 253 215 266 c 2,15,-1
 338 462 l 1,8,-1
EndSplineSet
EndChar
StartChar: logicalnot
Encoding: 172 172 111
Width: 611
VWidth: 1494
Flags: W
HStem: 139 283<507 565 42 507 565 565> 368 54<42 507>
VStem: 507 58<139 368>
Fore
507 139 m 1,0,-1
 507 368 l 1,1,-1
 42 368 l 1,2,-1
 42 422 l 1,3,-1
 565 422 l 1,4,-1
 565 139 l 1,5,-1
 507 139 l 1,0,-1
EndSplineSet
EndChar
StartChar: registered
Encoding: 174 174 112
Width: 804
VWidth: 1494
Flags: W
HStem: -21 43<288.087 512.617> 302 34<318 399> 538 36<318 427.304> 685 43<288.087 512.617>
VStem: 42 43<232.75 471.937> 281 36<120 302 336 537.776> 513 37<377.018 498.632> 716 43<232.75 473.03>
Fore
401 728 m 0,0,1
 474 728 474 728 539.5 698 c 128,-1,2
 605 668 605 668 654 617.5 c 128,-1,3
 703 567 703 567 731 499 c 128,-1,4
 759 431 759 431 759 353 c 256,5,6
 759 275 759 275 731 207 c 128,-1,7
 703 139 703 139 654 88 c 128,-1,8
 605 37 605 37 539.5 8 c 128,-1,9
 474 -21 474 -21 401 -21 c 0,10,11
 326 -21 326 -21 261 8 c 128,-1,12
 196 37 196 37 147.5 88 c 128,-1,13
 99 139 99 139 70.5 207 c 128,-1,14
 42 275 42 275 42 353 c 256,15,16
 42 431 42 431 70.5 499 c 128,-1,17
 99 567 99 567 147.5 617.5 c 128,-1,18
 196 668 196 668 261 698 c 128,-1,19
 326 728 326 728 401 728 c 0,0,1
401 22 m 256,20,21
 466 22 466 22 523.5 48.5 c 128,-1,22
 581 75 581 75 624 119.5 c 128,-1,23
 667 164 667 164 691.5 225 c 128,-1,24
 716 286 716 286 716 353 c 256,25,26
 716 420 716 420 691.5 480.5 c 128,-1,27
 667 541 667 541 624 586.5 c 128,-1,28
 581 632 581 632 523.5 658.5 c 128,-1,29
 466 685 466 685 401 685 c 256,30,31
 335 685 335 685 277.5 658.5 c 128,-1,32
 220 632 220 632 177.5 586.5 c 128,-1,33
 135 541 135 541 110 480.5 c 128,-1,34
 85 420 85 420 85 353 c 256,35,36
 85 286 85 286 110 225 c 128,-1,37
 135 164 135 164 177.5 119.5 c 128,-1,38
 220 75 220 75 277.5 48.5 c 128,-1,39
 335 22 335 22 401 22 c 256,20,21
317 302 m 1,40,-1
 317 120 l 1,41,-1
 281 120 l 1,42,-1
 281 535 l 2,43,44
 281 544 281 544 272 551.5 c 128,-1,45
 263 559 263 559 266 568 c 0,46,47
 268 571 268 571 274 575.5 c 128,-1,48
 280 580 280 580 288 580 c 0,49,50
 294 580 294 580 305 574 c 1,51,-1
 383 574 l 2,52,53
 414 574 414 574 444.5 567.5 c 128,-1,54
 475 561 475 561 498.5 545 c 128,-1,55
 522 529 522 529 536 503 c 128,-1,56
 550 477 550 477 550 438 c 0,57,58
 550 380 550 380 518.5 349 c 128,-1,59
 487 318 487 318 445 306 c 1,60,-1
 565 121 l 1,61,-1
 523 112 l 1,62,-1
 399 302 l 1,63,-1
 317 302 l 1,40,-1
318 538 m 1,64,-1
 318 336 l 1,65,-1
 384 336 l 2,66,67
 450 336 450 336 481.5 366 c 128,-1,68
 513 396 513 396 513 439 c 0,69,70
 513 478 513 478 483 508 c 128,-1,71
 453 538 453 538 383 538 c 2,72,-1
 318 538 l 1,64,-1
EndSplineSet
EndChar
StartChar: macron
Encoding: 175 175 113
Width: 322
VWidth: 1494
Flags: W
HStem: 631 48<42 280 42 280 42 42>
Fore
42 631 m 1,0,-1
 42 679 l 1,1,-1
 280 679 l 1,2,-1
 280 631 l 1,3,-1
 42 631 l 1,0,-1
EndSplineSet
EndChar
StartChar: degree
Encoding: 176 176 114
Width: 322
VWidth: 1494
Flags: W
HStem: 463 41<104.527 218.198> 676 39<105.71 216.701>
VStem: 36 40<532.538 646.158> 247 40<532.468 645.388>
Fore
161 715 m 256,0,1
 214 715 214 715 250.5 678 c 128,-1,2
 287 641 287 641 287 589 c 256,3,4
 287 537 287 537 250.5 500 c 128,-1,5
 214 463 214 463 161 463 c 256,6,7
 109 463 109 463 73 500 c 128,-1,8
 37 537 37 537 36 589 c 0,9,10
 36 641 36 641 72.5 678 c 128,-1,11
 109 715 109 715 161 715 c 256,0,1
161 504 m 128,-1,13
 196 504 196 504 221.5 528.5 c 128,-1,14
 247 553 247 553 247 589 c 0,15,16
 247 623 247 623 221.5 649.5 c 128,-1,17
 196 676 196 676 161 676 c 128,-1,18
 126 676 126 676 100.5 649.5 c 128,-1,19
 75 623 75 623 76 589 c 0,20,21
 76 553 76 553 101 528.5 c 128,-1,12
 126 504 126 504 161 504 c 128,-1,13
EndSplineSet
EndChar
StartChar: plusminus
Encoding: 177 177 115
Width: 605
VWidth: 1494
Flags: W
HStem: 0 52<64 543> 336 57<64 275 333 543> 584 20G<275 333>
VStem: 64 479<0 52 336 393> 275 58<124 336 393 604>
Fore
543 336 m 1,0,-1
 333 336 l 1,1,-1
 333 124 l 1,2,-1
 275 124 l 1,3,-1
 275 336 l 1,4,-1
 64 336 l 1,5,-1
 64 393 l 1,6,-1
 275 393 l 1,7,-1
 275 604 l 1,8,-1
 333 604 l 1,9,-1
 333 393 l 1,10,-1
 543 393 l 1,11,-1
 543 336 l 1,0,-1
543 0 m 1,12,-1
 64 0 l 1,13,-1
 64 52 l 1,14,-1
 543 52 l 1,15,-1
 543 0 l 1,12,-1
EndSplineSet
EndChar
StartChar: twosuperior
Encoding: 178 178 116
Width: 387
VWidth: 1494
Flags: W
HStem: 284 52<65.2188 78 138 294>
VStem: 81 48<548.955 584.978> 278 52<518.217 633.168>
Fore
100 661 m 0,0,1
 123 694 123 694 162.5 706 c 128,-1,2
 202 718 202 718 244 704 c 0,3,4
 283 692 283 692 306.5 658.5 c 128,-1,5
 330 625 330 625 330 577 c 0,6,7
 330 547 330 547 316.5 519.5 c 128,-1,8
 303 492 303 492 283 467 c 128,-1,9
 263 442 263 442 238.5 421.5 c 128,-1,10
 214 401 214 401 191 383 c 0,11,12
 170 366 170 366 159 357 c 128,-1,13
 148 348 148 348 138 336 c 1,14,-1
 294 336 l 1,15,-1
 308 363 l 1,16,17
 309 363 309 363 325.5 357 c 128,-1,18
 342 351 342 351 356 347 c 1,19,-1
 326 284 l 1,20,-1
 84 284 l 2,21,22
 54 283 54 283 58 311 c 0,23,24
 61 324 61 324 63.5 330 c 128,-1,25
 66 336 66 336 76 336 c 2,26,-1
 78 336 l 1,27,28
 93 360 93 360 119.5 385.5 c 128,-1,29
 146 411 146 411 161 423 c 0,30,31
 208 462 208 462 243 499.5 c 128,-1,32
 278 537 278 537 278 578 c 0,33,34
 278 607 278 607 264.5 628.5 c 128,-1,35
 251 650 251 650 226 658 c 0,36,37
 202 665 202 665 178.5 658.5 c 128,-1,38
 155 652 155 652 139 631 c 0,39,40
 127 611 127 611 125.5 594.5 c 128,-1,41
 124 578 124 578 129 558 c 1,42,-1
 81 544 l 1,43,44
 67 614 67 614 100 661 c 0,0,1
EndSplineSet
EndChar
StartChar: threesuperior
Encoding: 179 179 117
Width: 388
VWidth: 1494
Flags: W
HStem: 602 21G<83 106.5> 658 51<116.914 236 300.307 318.439>
VStem: 40 299<410 477.5 349.003 365.892>
Fore
306 709 m 1,0,1
 314 710 314 710 320 705 c 128,-1,2
 326 700 326 700 326 692 c 0,3,4
 326 683 326 683 321.5 668 c 128,-1,5
 317 653 317 653 303 658 c 1,6,7
 302 656 302 656 291.5 645 c 128,-1,8
 281 634 281 634 267.5 619 c 128,-1,9
 254 604 254 604 241.5 590.5 c 128,-1,10
 229 577 229 577 223 571 c 1,11,12
 272 573 272 573 301 545 c 128,-1,13
 330 517 330 517 339 477.5 c 128,-1,14
 348 438 348 438 338.5 394 c 128,-1,15
 329 350 329 350 302 321 c 0,16,17
 272 287 272 287 231.5 279 c 128,-1,18
 191 271 191 271 152.5 283.5 c 128,-1,19
 114 296 114 296 82.5 329 c 128,-1,20
 51 362 51 362 40 410 c 1,21,-1
 88 425 l 1,22,23
 102 374 102 374 132.5 349 c 128,-1,24
 163 324 163 324 195 323.5 c 128,-1,25
 227 323 227 323 255.5 344 c 128,-1,26
 284 365 284 365 293 407 c 0,27,28
 300 438 300 438 290 467 c 128,-1,29
 280 496 280 496 259.5 513.5 c 128,-1,30
 239 531 239 531 213.5 529.5 c 128,-1,31
 188 528 188 528 164 499 c 0,32,33
 155 490 155 490 147 494 c 128,-1,34
 139 498 139 498 133 504 c 0,35,36
 129 508 129 508 123.5 516.5 c 128,-1,37
 118 525 118 525 129 534 c 1,38,39
 152 562 152 562 175 587 c 0,40,41
 202 618.5 l 0,42,43
 229 650 229 650 236 658 c 1,44,-1
 118 658 l 1,45,46
 117 655 117 655 114 645 c 128,-1,47
 111 635 111 635 108 626 c 0,48,-1
 99 602 l 1,49,50
 67 617 67 617 61 620 c 128,-1,51
 55 623 55 623 57 623 c 1,52,-1
 81 709 l 1,53,-1
 306 709 l 1,0,1
EndSplineSet
EndChar
StartChar: acute
Encoding: 180 180 118
Width: 322
VWidth: 1494
Flags: W
HStem: 577 155<167 221 221 221>
Fore
167 577 m 1,0,-1
 121 577 l 1,1,-1
 221 732 l 1,2,-1
 309 732 l 1,3,-1
 167 577 l 1,0,-1
EndSplineSet
EndChar
StartChar: mu
Encoding: 181 181 119
Width: 575
VWidth: 1494
Flags: W
HStem: -13 49<201.156 342.863> 503 20G<87 142 423 478>
VStem: 87 55<-247 36 95.3622 523> 423 55<46.5391 75 174.35 211 211 523>
Fore
478 112 m 2,0,1
 478 63 478 63 482.5 40.5 c 128,-1,2
 487 18 487 18 495 1 c 1,3,-1
 445 -18 l 1,4,5
 441 -9 441 -9 433 11 c 128,-1,6
 425 31 425 31 425 75 c 1,7,8
 402 28 402 28 357 7.5 c 128,-1,9
 312 -13 312 -13 268 -13 c 128,-1,10
 224 -13 224 -13 193.5 1 c 128,-1,11
 163 15 163 15 142 36 c 1,12,-1
 141 -247 l 1,13,-1
 87 -247 l 1,14,-1
 87 523 l 1,15,-1
 142 523 l 1,16,-1
 142 176 l 2,17,18
 142 111 142 111 181.5 73.5 c 128,-1,19
 221 36 221 36 278 36 c 0,20,21
 311 36 311 36 338 51 c 128,-1,22
 365 66 365 66 383.5 90.5 c 128,-1,23
 402 115 402 115 412.5 146.5 c 128,-1,24
 423 178 423 178 423 211 c 2,25,-1
 423 523 l 1,26,-1
 478 523 l 1,27,-1
 478 112 l 2,0,1
EndSplineSet
EndChar
StartChar: paragraph
Encoding: 182 182 120
Width: 571
VWidth: 1494
Flags: W
HStem: 673 37<321 399 444 498>
VStem: 34 464<520 710 421 466> 34 287<432.098 608.871> 278 43<-182 338> 399 45<-182 673>
Fore
245 338 m 2,0,1
 212 338 212 338 175.5 346 c 128,-1,2
 139 354 139 354 107.5 375 c 128,-1,3
 76 396 76 396 55 431 c 128,-1,4
 34 466 34 466 34 520 c 256,5,6
 34 574 34 574 52 610 c 128,-1,7
 70 646 70 646 99.5 668.5 c 128,-1,8
 129 691 129 691 167 700.5 c 128,-1,9
 205 710 205 710 245 710 c 2,10,-1
 498 710 l 1,11,-1
 498 673 l 1,12,-1
 444 673 l 1,13,-1
 444 -182 l 1,14,-1
 399 -184 l 1,15,-1
 399 673 l 1,16,-1
 321 673 l 1,17,-1
 321 -182 l 1,18,-1
 278 -182 l 1,19,-1
 278 338 l 1,20,-1
 245 338 l 2,0,1
EndSplineSet
EndChar
StartChar: periodcentered
Encoding: 183 183 121
Width: 343
VWidth: 1494
Flags: W
HStem: 248 200<115.413 240.587>
VStem: 78 200<285.413 410.587>
Fore
78 348 m 256,0,1
 78 390 78 390 107 419 c 128,-1,2
 136 448 136 448 178 448 c 256,3,4
 220 448 220 448 249 419 c 128,-1,5
 278 390 278 390 278 348 c 256,6,7
 278 306 278 306 249 277 c 128,-1,8
 220 248 220 248 178 248 c 256,9,10
 136 248 136 248 107 277 c 128,-1,11
 78 306 78 306 78 348 c 256,0,1
EndSplineSet
EndChar
StartChar: cedilla
Encoding: 184 184 122
Width: 322
VWidth: 1494
Flags: W
HStem: -207.5 44.5<67.5309 83.5 99.5 104.769 104.769 114.273 109.521 169.048>
VStem: 185 54<-159.147 -101.553>
Fore
239 -124 m 0,0,1
 239 -172 239 -172 203 -192 c 128,-1,2
 167 -212 167 -212 121 -212 c 0,3,4
 106 -212 106 -212 83.5 -207.5 c 128,-1,5
 61 -203 61 -203 48 -194 c 1,6,-1
 67 -151 l 1,7,8
 84 -160 84 -160 99.5 -163 c 128,-1,9
 115 -166 115 -166 129 -166 c 0,10,11
 149 -166 149 -166 167 -159 c 128,-1,12
 185 -152 185 -152 185 -133 c 0,13,14
 185 -108 185 -108 157 -99 c 128,-1,15
 129 -90 129 -90 90 -87 c 1,16,-1
 145 6 l 1,17,-1
 202 6 l 1,18,-1
 160 -52 l 1,19,20
 190 -58 190 -58 214.5 -76 c 128,-1,21
 239 -94 239 -94 239 -124 c 0,0,1
EndSplineSet
EndChar
StartChar: onesuperior
Encoding: 185 185 123
Width: 322
VWidth: 1494
Flags: W
HStem: 284 423<181 182 183.75 207.25 198 209 181 181>
VStem: 67 162<616 688 618.75 642.25> 160 49<284 626>
Fore
182 707 m 1,0,1
 190 715 190 715 198 712 c 128,-1,2
 214 706 l 1,3,4
 218 703 218 703 223.5 698.5 c 128,-1,5
 229 694 229 694 229 688 c 2,6,-1
 229 686 l 2,7,8
 229 677 229 677 209 664 c 1,9,-1
 209 284 l 1,10,-1
 160 284 l 1,11,-1
 160 626 l 1,12,13
 154 622 154 622 144.5 614.5 c 128,-1,14
 135 607 135 607 124 599 c 0,15,16
 100 581 l 1,17,-1
 67 616 l 1,18,-1
 181 707 l 1,19,-1
 182 707 l 1,0,1
EndSplineSet
EndChar
StartChar: ordmasculine
Encoding: 186 186 124
Width: 376
VWidth: 1494
Flags: W
HStem: 280 44<138.235 242.832> 592 45<141.97 254.334>
VStem: 7 51<392.634 508.726> 320 49<378.917 492.276>
Fore
369 460 m 0,0,1
 369 413 369 413 352 378.5 c 128,-1,2
 335 344 335 344 308 322 c 128,-1,3
 281 300 281 300 249 290 c 128,-1,4
 217 280 217 280 187 280 c 0,5,6
 148 280 148 280 115 293 c 128,-1,7
 82 306 82 306 58 329.5 c 128,-1,8
 34 353 34 353 20.5 385 c 128,-1,9
 7 417 7 417 7 454 c 0,10,11
 7 496 7 496 23 530.5 c 128,-1,12
 39 565 39 565 63.5 588 c 128,-1,13
 88 611 88 611 120 624 c 128,-1,14
 152 637 152 637 187 637 c 0,15,16
 229 637 229 637 263 622.5 c 128,-1,17
 297 608 297 608 320.5 584.5 c 128,-1,18
 344 561 344 561 356.5 528.5 c 128,-1,19
 369 496 369 496 369 460 c 0,0,1
320 457 m 0,20,21
 320 480 320 480 312.5 504 c 128,-1,22
 305 528 305 528 288.5 547.5 c 128,-1,23
 272 567 272 567 247.5 579.5 c 128,-1,24
 223 592 223 592 188 592 c 0,25,26
 155 592 155 592 131.5 580 c 128,-1,27
 108 568 108 568 91.5 549.5 c 128,-1,28
 75 531 75 531 66.5 506 c 128,-1,29
 58 481 58 481 58 456 c 0,30,31
 58 423 58 423 70 398.5 c 128,-1,32
 82 374 82 374 101 357.5 c 128,-1,33
 120 341 120 341 143 332.5 c 128,-1,34
 166 324 166 324 188 324 c 0,35,36
 238 324 238 324 279 357 c 128,-1,37
 320 390 320 390 320 457 c 0,20,21
EndSplineSet
EndChar
StartChar: guillemotright
Encoding: 187 187 125
Width: 451
VWidth: 1494
Flags: W
HStem: 43 419<211 271 211 211>
VStem: 51 342<43 266 43 43>
Fore
393 266 m 2,0,1
 401 253 401 253 393 239 c 2,2,-1
 271 43 l 1,3,-1
 211 43 l 1,4,-1
 345 253 l 1,5,-1
 211 462 l 1,6,-1
 271 462 l 1,7,-1
 393 266 l 2,0,1
233 266 m 2,8,9
 241 253 241 253 233 239 c 2,10,-1
 111 43 l 1,11,-1
 51 43 l 1,12,-1
 185 253 l 1,13,-1
 51 462 l 1,14,-1
 111 462 l 1,15,-1
 233 266 l 2,8,9
EndSplineSet
EndChar
StartChar: onequarter
Encoding: 188 188 126
Width: 828
VWidth: 1494
Flags: W
HStem: -13 21G<160 221 664 715> 91 53<517 664 715 770> 692 20G<581.055 644>
VStem: 151 49<284 626> 664 51<0 91 144 320>
Fore
209 -13 m 1,0,-1
 160 -13 l 1,1,-1
 593 712 l 1,2,-1
 644 712 l 1,3,-1
 209 -13 l 1,0,-1
680 422 m 2,4,5
 686 431 686 431 693.5 430 c 128,-1,6
 701 429 701 429 708 423 c 128,-1,7
 715 417 715 417 717.5 408 c 128,-1,8
 720 399 720 399 719 393 c 1,9,-1
 716 390 l 2,10,11
 715 389 715 389 715 384 c 2,12,-1
 715 144 l 1,13,-1
 770 144 l 1,14,-1
 770 91 l 1,15,-1
 715 91 l 1,16,-1
 715 0 l 1,17,-1
 664 0 l 1,18,-1
 664 91 l 1,19,-1
 465 91 l 1,20,21
 451 94 451 94 445 107 c 128,-1,22
 439 120 439 120 445 133 c 1,23,-1
 680 422 l 2,4,5
664 320 m 1,24,25
 656 309 656 309 634.5 283 c 128,-1,26
 613 257 613 257 588.5 228.5 c 128,-1,27
 564 200 564 200 543.5 175.5 c 128,-1,28
 523 151 523 151 517 144 c 1,29,-1
 664 144 l 1,30,-1
 664 320 l 1,24,25
172 707 m 2,31,32
 181 715 181 715 189 712 c 128,-1,33
 205 706 l 1,34,35
 209 703 209 703 214.5 698.5 c 128,-1,36
 220 694 220 694 220 688 c 2,37,-1
 220 686 l 2,38,39
 220 680 220 680 200 667 c 1,40,-1
 200 665 l 1,41,-1
 200 284 l 1,42,-1
 151 284 l 1,43,-1
 151 626 l 1,44,45
 145 622 145 622 135.5 614.5 c 128,-1,46
 126 607 126 607 115 599 c 0,47,48
 91 581 l 1,49,-1
 58 616 l 1,50,-1
 172 707 l 2,31,32
EndSplineSet
Ligature2: "'frac' Diagonal Fractions in Latin lookup 0 subtable" one fraction four
Ligature2: "'frac' Diagonal Fractions in Latin lookup 0 subtable" one slash four
EndChar
StartChar: onehalf
Encoding: 189 189 127
Width: 846
VWidth: 1494
Flags: W
HStem: 0 52<501.562 514 574 731> 692 20G<562.055 625>
VStem: 151 49<284 626> 517 48<266.921 302.895> 715 52<234.217 349.168>
Fore
191 -13 m 1,0,-1
 141 -13 l 1,1,-1
 574 712 l 1,2,-1
 625 712 l 1,3,-1
 191 -13 l 1,0,-1
537 377 m 0,4,5
 559 410 559 410 598.5 421.5 c 128,-1,6
 638 433 638 433 680 420 c 0,7,8
 719 408 719 408 743 374.5 c 128,-1,9
 767 341 767 341 767 293 c 0,10,11
 767 263 767 263 753.5 235.5 c 128,-1,12
 740 208 740 208 720 183 c 128,-1,13
 700 158 700 158 675 137.5 c 128,-1,14
 650 117 650 117 628 99 c 1,15,16
 607 87 607 87 595.5 75.5 c 128,-1,17
 584 64 584 64 574 52 c 1,18,-1
 731 52 l 1,19,-1
 744 79 l 1,20,21
 746 79 746 79 762.5 73 c 128,-1,22
 779 67 779 67 792 63 c 1,23,-1
 762 0 l 1,24,-1
 520 0 l 2,25,26
 490 -1 490 -1 495 27 c 0,27,28
 498 40 498 40 500 46 c 128,-1,29
 502 52 502 52 513 52 c 2,30,-1
 514 52 l 1,31,32
 529 76 529 76 556 101.5 c 128,-1,33
 583 127 583 127 598 139 c 0,34,35
 644 178 644 178 679.5 215.5 c 128,-1,36
 715 253 715 253 715 294 c 0,37,38
 715 323 715 323 701.5 344.5 c 128,-1,39
 688 366 688 366 662 374 c 0,40,41
 638 381 638 381 615 374.5 c 128,-1,42
 592 368 592 368 575 347 c 0,43,44
 564 327 564 327 562.5 310.5 c 128,-1,45
 561 294 561 294 565 274 c 1,46,-1
 517 260 l 1,47,48
 504 330 504 330 537 377 c 0,4,5
173 707 m 1,49,50
 181 715 181 715 189 712 c 128,-1,51
 205 706 l 1,52,53
 209 703 209 703 214.5 698.5 c 128,-1,54
 220 694 220 694 220 688 c 2,55,-1
 220 686 l 2,56,57
 220 680 220 680 200 667 c 1,58,-1
 200 665 l 1,59,-1
 200 284 l 1,60,-1
 151 284 l 1,61,-1
 151 626 l 1,62,63
 145 622 145 622 135.5 614.5 c 128,-1,64
 126 607 126 607 115 599 c 0,65,66
 91 581 l 1,67,-1
 58 616 l 1,68,-1
 172 707 l 1,69,-1
 173 707 l 1,49,50
EndSplineSet
Ligature2: "'frac' Diagonal Fractions in Latin lookup 0 subtable" one fraction two
Ligature2: "'frac' Diagonal Fractions in Latin lookup 0 subtable" one slash two
EndChar
StartChar: threequarters
Encoding: 190 190 128
Width: 874
VWidth: 1494
Flags: W
HStem: -13 21G<230 294.945> 692 20G<653 716>
Fore
283 -13 m 1,0,-1
 230 -13 l 1,1,-1
 665 712 l 1,2,-1
 716 712 l 1,3,-1
 283 -13 l 1,0,-1
94 709 m 1,4,-1
 70 628 l 1,5,6
 70 623 70 623 75.5 620 c 128,-1,7
 81 617 81 617 112 602 c 1,8,9
 121 626 l 0,10,11
 124 635 124 635 127 645 c 128,-1,12
 130 655 130 655 132 658 c 1,13,-1
 250 658 l 1,14,15
 242 650 242 650 233 639.5 c 0,16,-1
 188 587 l 0,17,18
 166 562 166 562 142 534 c 1,19,20
 132 525 132 525 137 516.5 c 128,-1,21
 142 508 142 508 146 504 c 0,22,23
 152 498 152 498 160.5 494 c 128,-1,24
 169 490 169 490 178 499 c 0,25,26
 202 528 202 528 227.5 529.5 c 128,-1,27
 253 531 253 531 273 513.5 c 128,-1,28
 293 496 293 496 303.5 467 c 128,-1,29
 314 438 314 438 306 407 c 0,30,31
 297 365 297 365 269 344 c 128,-1,32
 241 323 241 323 208.5 323.5 c 128,-1,33
 176 324 176 324 145.5 349 c 128,-1,34
 115 374 115 374 102 425 c 1,35,-1
 54 410 l 1,36,37
 64 362 64 362 95.5 329 c 128,-1,38
 127 296 127 296 166 283.5 c 128,-1,39
 205 271 205 271 245.5 279 c 128,-1,40
 286 287 286 287 315 321 c 0,41,42
 342 350 342 350 352 394 c 128,-1,43
 362 438 362 438 353 477.5 c 128,-1,44
 344 517 344 517 315 545 c 128,-1,45
 286 573 286 573 236 571 c 1,46,47
 242 577 242 577 255 590.5 c 128,-1,48
 268 604 268 604 281 619 c 128,-1,49
 294 634 294 634 304.5 645 c 128,-1,50
 315 656 315 656 317 658 c 1,51,52
 330 653 330 653 334.5 668 c 128,-1,53
 339 683 339 683 339 692 c 0,54,55
 339 700 339 700 333 705 c 128,-1,56
 327 710 327 710 320 709 c 1,57,-1
 94 709 l 1,4,-1
495 133 m 1,58,59
 489 120 489 120 495 107 c 128,-1,60
 501 94 501 94 514 91 c 1,61,-1
 713 91 l 1,62,-1
 713 0 l 1,63,-1
 764 0 l 1,64,-1
 764 91 l 1,65,-1
 819 91 l 1,66,-1
 819 144 l 1,67,-1
 764 144 l 1,68,-1
 764 384 l 2,69,70
 764 389 764 389 765 390 c 2,71,-1
 768 393 l 1,72,73
 770 399 770 399 767 408 c 128,-1,74
 764 417 764 417 757 423 c 128,-1,75
 750 429 750 429 742.5 430 c 128,-1,76
 735 431 735 431 729 422 c 2,77,-1
 495 133 l 1,58,59
713 320 m 1,78,-1
 713 144 l 1,79,-1
 567 144 l 1,80,81
 573 151 573 151 593 175.5 c 128,-1,82
 613 200 613 200 637.5 228.5 c 128,-1,83
 662 257 662 257 684 283 c 128,-1,84
 706 309 706 309 713 320 c 1,78,-1
EndSplineSet
Ligature2: "'frac' Diagonal Fractions in Latin lookup 0 subtable" three fraction four
Ligature2: "'frac' Diagonal Fractions in Latin lookup 0 subtable" three slash four
EndChar
StartChar: questiondown
Encoding: 191 191 129
Width: 515
VWidth: 1494
Flags: W
HStem: 408 111<231.018 308.983>
VStem: 214 112<423.987 502.499> 239 60<199.674 363>
Fore
326 465 m 0,0,1
 326 439 326 439 309.5 423.5 c 128,-1,2
 293 408 293 408 272 408 c 0,3,4
 247 408 247 408 230.5 423.5 c 128,-1,5
 214 439 214 439 214 465 c 0,6,7
 214 487 214 487 230.5 503 c 128,-1,8
 247 519 247 519 272 519 c 0,9,10
 293 519 293 519 309.5 503 c 128,-1,11
 326 487 326 487 326 465 c 0,0,1
155 118 m 0,12,13
 188 157 188 157 213.5 193.5 c 128,-1,14
 239 230 239 230 239 278 c 2,15,-1
 239 363 l 1,16,-1
 299 363 l 1,17,-1
 299 278 l 2,18,19
 299 214 299 214 267 167 c 128,-1,20
 235 120 235 120 199 79 c 0,21,22
 154 28 154 28 144.5 -19.5 c 128,-1,23
 135 -67 135 -67 163 -115 c 0,24,25
 178 -141 178 -141 213 -154 c 128,-1,26
 248 -167 248 -167 290 -163 c 0,27,28
 338 -157 338 -157 367 -126.5 c 128,-1,29
 396 -96 396 -96 408 -61 c 1,30,-1
 462 -91 l 1,31,32
 444 -142 444 -142 403.5 -175.5 c 128,-1,33
 363 -209 363 -209 305 -217 c 0,34,35
 247 -226 247 -226 194 -210 c 128,-1,36
 141 -194 141 -194 114 -152 c 0,37,38
 87 -112 87 -112 81.5 -74.5 c 128,-1,39
 76 -37 76 -37 85 -3 c 128,-1,40
 94 31 94 31 113.5 62 c 128,-1,41
 133 93 133 93 155 118 c 0,12,13
EndSplineSet
EndChar
StartChar: Aring
Encoding: 197 197 134
Width: 617
VWidth: 1494
Flags: W
HStem: -12 21G<9 73.5 536.788 602> 196 49<163 450> 764 42<262.395 347.264> 919 44<262.395 347.264>
VStem: 205 43<820.368 904.184> 362 42<820.368 904.184>
Fore
205 862 m 256,0,1
 205 904 205 904 233.5 933.5 c 128,-1,2
 262 963 262 963 303 963 c 256,3,4
 345 963 345 963 374.5 933.5 c 128,-1,5
 404 904 404 904 404 862 c 256,6,7
 404 821 404 821 374.5 792.5 c 128,-1,8
 345 764 345 764 303 764 c 256,9,10
 262 764 262 764 233.5 792.5 c 128,-1,11
 205 821 205 821 205 862 c 256,0,1
248 862 m 256,12,13
 248 839 248 839 264.5 822.5 c 128,-1,14
 281 806 281 806 305 806 c 256,15,16
 329 806 329 806 345.5 822.5 c 128,-1,17
 362 839 362 839 362 862 c 256,18,19
 362 886 362 886 345.5 902.5 c 128,-1,20
 329 919 329 919 305 919 c 256,21,22
 281 919 281 919 264.5 902.5 c 128,-1,23
 248 886 248 886 248 862 c 256,12,13
602 0 m 1,24,-1
 544 -12 l 1,25,-1
 469 196 l 1,26,-1
 144 196 l 1,27,-1
 66 -12 l 1,28,-1
 9 0 l 1,29,30
 82 193 82 193 141 345 c 2,31,-1
 272 692 l 2,32,33
 281 713 281 713 293.5 721 c 128,-1,34
 306 729 306 729 311 731 c 0,35,36
 323 732 323 732 335.5 721 c 128,-1,37
 348 710 348 710 351 704 c 0,38,39
 354 700 354 700 350.5 694 c 128,-1,40
 347 688 347 688 344 685 c 1,41,-1
 602 0 l 1,24,-1
450 245 m 1,42,-1
 305 622 l 1,43,-1
 163 245 l 1,44,-1
 450 245 l 1,42,-1
EndSplineSet
EndChar
StartChar: AE
Encoding: 198 198 135
Width: 841
VWidth: 1494
Flags: W
HStem: 1 59<514 807> 190 54<203 454> 339 59<514 774> 653 59<428 454 514 807>
VStem: 454 60<60 190 244 339 398 652>
Fore
514 653 m 1,0,-1
 514 398 l 1,1,-1
 774 398 l 1,2,-1
 776 339 l 1,3,-1
 514 339 l 1,4,-1
 514 60 l 1,5,-1
 807 60 l 1,6,-1
 807 1 l 1,7,-1
 508 1 l 2,8,9
 481 1 481 1 467 19 c 128,-1,10
 453 37 453 37 453 57 c 2,11,-1
 454 190 l 1,12,-1
 175 190 l 1,13,-1
 54 -10 l 1,14,-1
 3 16 l 1,15,-1
 377 664 l 2,16,17
 386 683 386 683 401.5 697.5 c 128,-1,18
 417 712 417 712 438 712 c 2,19,-1
 809 712 l 1,20,-1
 807 653 l 1,21,-1
 514 653 l 1,0,-1
454 244 m 1,22,-1
 454 649 l 1,23,-1
 454 652 l 1,24,-1
 428 650 l 1,25,-1
 203 244 l 1,26,-1
 454 244 l 1,22,-1
EndSplineSet
EndChar
StartChar: Eth
Encoding: 208 208 145
Width: 711
VWidth: 1494
Flags: W
HStem: 0 58<157 404.825> 332 57<3 99 157 318> 650 59<157 373.123>
VStem: 99 58<58 332 389 650> 575 63<232.305 481.519>
Fore
99 332 m 1,0,-1
 3 332 l 1,1,-1
 3 389 l 1,2,-1
 99 389 l 1,3,-1
 99 650 l 2,4,5
 97 662 97 662 85 672.5 c 128,-1,6
 73 683 73 683 76 697 c 1,7,8
 79 704 79 704 88 713 c 128,-1,9
 97 722 97 722 112 722 c 0,10,11
 121 722 121 722 135 709 c 1,12,-1
 272 709 l 2,13,14
 350 709 350 709 417 686.5 c 128,-1,15
 484 664 484 664 533.5 619.5 c 128,-1,16
 583 575 583 575 610.5 508.5 c 128,-1,17
 638 442 638 442 638 356 c 0,18,19
 638 268 638 268 610.5 201.5 c 128,-1,20
 583 135 583 135 533.5 90 c 128,-1,21
 484 45 484 45 417 22.5 c 128,-1,22
 350 0 350 0 272 0 c 2,23,-1
 99 0 l 1,24,-1
 99 332 l 1,0,-1
286 58 m 2,25,26
 353 58 353 58 406.5 79 c 128,-1,27
 460 100 460 100 497.5 139.5 c 128,-1,28
 535 179 535 179 555 233.5 c 128,-1,29
 575 288 575 288 575 356 c 0,30,31
 575 433 575 433 550 489.5 c 128,-1,32
 525 546 525 546 480 581.5 c 128,-1,33
 435 617 435 617 375 633.5 c 128,-1,34
 315 650 315 650 247 650 c 2,35,-1
 157 650 l 1,36,-1
 157 389 l 1,37,-1
 318 389 l 1,38,-1
 318 332 l 1,39,-1
 157 332 l 1,40,-1
 157 58 l 1,41,-1
 286 58 l 2,25,26
EndSplineSet
EndChar
StartChar: multiply
Encoding: 215 215 152
Width: 597
VWidth: 1494
Flags: W
HStem: 24 439<123 486 123 123>
VStem: 84 441<61 425 425 425>
Fore
525 61 m 1,0,-1
 486 24 l 1,1,-1
 300 209 l 1,2,-1
 123 30 l 1,3,-1
 85 67 l 1,4,-1
 263 245 l 1,5,-1
 84 425 l 1,6,-1
 123 463 l 1,7,-1
 302 284 l 1,8,-1
 477 463 l 1,9,-1
 514 425 l 1,10,-1
 339 247 l 1,11,-1
 525 61 l 1,0,-1
EndSplineSet
EndChar
StartChar: Oslash
Encoding: 216 216 153
Width: 696
VWidth: 1494
Flags: W
HStem: -6 55<283.225 441.278> 677 55<254.087 441.126>
VStem: 64 59<225.678 468.576> 573 59<261.043 501>
Fore
540 653 m 1,0,1
 584 605 584 605 608 532 c 128,-1,2
 632 459 632 459 632 365 c 0,3,4
 632 281 632 281 613.5 213 c 128,-1,5
 595 145 595 145 558.5 96.5 c 128,-1,6
 522 48 522 48 469 21 c 128,-1,7
 416 -6 416 -6 348 -6 c 0,8,9
 260 -6 260 -6 199 37 c 1,10,-1
 138 -72 l 2,11,12
 132 -81 132 -81 126 -78 c 128,-1,13
 120 -75 120 -75 109 -70 c 1,14,15
 100 -64 100 -64 92.5 -59.5 c 128,-1,16
 85 -55 85 -55 91 -46 c 2,17,-1
 157 72 l 1,18,19
 64 173 64 173 64 365 c 0,20,21
 64 447 64 447 83 515 c 128,-1,22
 102 583 102 583 137.5 631 c 128,-1,23
 173 679 173 679 226.5 705.5 c 128,-1,24
 280 732 280 732 348 732 c 0,25,26
 435 732 435 732 499 689 c 1,27,-1
 550 783 l 2,28,29
 556 792 556 792 563 788.5 c 128,-1,30
 570 785 570 785 578 780 c 0,31,32
 589 774 589 774 595.5 770.5 c 128,-1,33
 602 767 602 767 596 758 c 2,34,-1
 540 653 l 1,0,1
123 365 m 0,35,36
 123 297 123 297 138.5 235 c 128,-1,37
 154 173 154 173 188 129 c 1,38,-1
 469 637 l 1,39,40
 420 677 420 677 348 677 c 0,41,42
 287 677 287 677 244.5 650 c 128,-1,43
 202 623 202 623 175 579 c 128,-1,44
 148 535 148 535 135.5 479 c 128,-1,45
 123 423 123 423 123 365 c 0,35,36
348 49 m 0,46,47
 408 49 408 49 450.5 76 c 128,-1,48
 493 103 493 103 520 148 c 128,-1,49
 547 193 547 193 560 249.5 c 128,-1,50
 573 306 573 306 573 365 c 0,51,52
 573 429 573 429 558 490.5 c 128,-1,53
 543 552 543 552 508 598 c 1,54,-1
 227 90 l 1,55,56
 253 70 253 70 282 59.5 c 128,-1,57
 311 49 311 49 348 49 c 0,46,47
EndSplineSet
EndChar
StartChar: Thorn
Encoding: 222 222 159
Width: 588
VWidth: 1494
Flags: W
HStem: 0 21G<81 129> 173 51<129 379.211> 547 46<129 313.636> 706 20G<81 129>
VStem: 81 48<0 173 224 547 593 726> 468 51<298.782 462.401>
Fore
519 392 m 0,0,1
 519 275 519 275 443.5 224 c 128,-1,2
 368 173 368 173 238 173 c 2,3,-1
 129 173 l 1,4,-1
 129 0 l 1,5,-1
 81 0 l 1,6,-1
 81 726 l 1,7,-1
 129 726 l 1,8,-1
 129 593 l 1,9,-1
 265 593 l 2,10,11
 318 593 318 593 364.5 581.5 c 128,-1,12
 411 570 411 570 445.5 545 c 128,-1,13
 480 520 480 520 499.5 482 c 128,-1,14
 519 444 519 444 519 392 c 0,0,1
468 384 m 0,15,16
 468 428 468 428 451.5 458.5 c 128,-1,17
 435 489 435 489 407.5 509 c 128,-1,18
 380 529 380 529 343 538 c 128,-1,19
 306 547 306 547 266 547 c 2,20,-1
 129 547 l 1,21,-1
 129 224 l 1,22,-1
 241 224 l 2,23,24
 351 224 351 224 409.5 261.5 c 128,-1,25
 468 299 468 299 468 384 c 0,15,16
EndSplineSet
EndChar
StartChar: uni00DF
Encoding: 223 223 160
Width: 618
VWidth: 1494
Flags: W
HStem: -13 49<191 382.78> 472 50<179 330.797> 746.5 36.5<232.667 327.559>
VStem: 91 48<-238 623.784> 420 49<588.653 658.246> 505 47<205.473 298.713>
Fore
511 398 m 0,0,1
 532 368 532 368 542 331 c 128,-1,2
 552 294 552 294 552 251 c 0,3,4
 552 199 552 199 535.5 151 c 128,-1,5
 519 103 519 103 488 67 c 128,-1,6
 457 31 457 31 412.5 9.5 c 128,-1,7
 368 -12 368 -12 312 -12 c 2,8,-1
 191 -13 l 1,9,-1
 191 36 l 1,10,-1
 299 36 l 2,11,12
 345 36 345 36 384 53 c 128,-1,13
 423 70 423 70 450 100 c 128,-1,14
 477 130 477 130 492 170.5 c 128,-1,15
 507 211 507 211 505 256 c 256,16,17
 504 300 504 300 486 340 c 128,-1,18
 468 380 468 380 437.5 409 c 128,-1,19
 407 438 407 438 367 455 c 128,-1,20
 327 472 327 472 283 472 c 2,21,-1
 179 472 l 1,22,-1
 179 522 l 1,23,-1
 286 522 l 1,24,-1
 287 522 l 1,25,-1
 288 522 l 2,26,27
 309 522 309 522 331.5 524 c 128,-1,28
 354 526 354 526 373.5 535 c 128,-1,29
 393 544 393 544 406 562.5 c 128,-1,30
 419 581 419 581 420 613 c 0,31,32
 422 656 422 656 407.5 682.5 c 128,-1,33
 393 709 393 709 371 722 c 0,34,35
 335 746 335 746 287 746.5 c 128,-1,36
 239 747 239 747 202 725 c 0,37,38
 193 720 193 720 182.5 710.5 c 128,-1,39
 172 701 172 701 162 684 c 128,-1,40
 152 667 152 667 145.5 640 c 128,-1,41
 139 613 139 613 139 573 c 2,42,-1
 139 -238 l 1,43,-1
 91 -238 l 1,44,-1
 91 581 l 2,45,46
 91 625 91 625 104 662.5 c 128,-1,47
 117 700 117 700 141.5 727.5 c 128,-1,48
 166 755 166 755 201 770 c 128,-1,49
 236 785 236 785 283 783 c 0,50,51
 317 783 317 783 348.5 775.5 c 128,-1,52
 380 768 380 768 408 746 c 0,53,54
 442 719 442 719 455.5 687 c 128,-1,55
 469 655 469 655 469 620 c 0,56,57
 469 596 469 596 461.5 574 c 128,-1,58
 454 552 454 552 443 534.5 c 128,-1,59
 432 517 432 517 418 506 c 128,-1,60
 404 495 404 495 392 493 c 1,61,62
 471 457 471 457 511 398 c 0,0,1
EndSplineSet
EndChar
StartChar: ae
Encoding: 230 230 167
Width: 941
VWidth: 1494
Flags: W
HStem: -19 55<185.329 337.592> -7 54<611.062 682.031 682.031 698.123 698.123 719 730.5 768.909> 241 56<501 839> 474 55<186.023 336.322> 490 51<587.629 748.401>
VStem: 43 51<184.471 325.637> 435 58<19.8 78 453 531> 435 63<-3 50.2 158.547 226 226 241>
Fore
671 541 m 0,0,1
 747 541 747 541 792 508 c 128,-1,2
 837 475 837 475 860 431 c 128,-1,3
 883 387 883 387 890 343.5 c 128,-1,4
 897 300 897 300 897 278 c 0,5,6
 897 254 897 254 886 247 c 1,7,8
 880 241 880 241 854 241 c 2,9,-1
 501 241 l 1,10,11
 501 170 501 170 531 126 c 128,-1,12
 561 82 561 82 610 61 c 0,13,14
 644 48 644 48 675 47 c 128,-1,15
 706 46 706 46 730.5 53 c 128,-1,16
 755 60 755 60 772 70.5 c 128,-1,17
 789 81 789 81 798 87 c 1,18,-1
 834 39 l 1,19,20
 816 27 816 27 785.5 15 c 128,-1,21
 755 3 755 3 719 -3.5 c 128,-1,22
 683 -10 683 -10 645 -7 c 128,-1,23
 607 -4 607 -4 574 12 c 0,24,25
 525 36 525 36 493 78 c 1,26,-1
 493 73 l 1,27,-1
 498 -3 l 1,28,-1
 436 -3 l 1,29,-1
 435 78 l 1,30,31
 410 34 410 34 366.5 7.5 c 128,-1,32
 323 -19 323 -19 262 -19 c 0,33,34
 206 -19 206 -19 165 4.5 c 128,-1,35
 124 28 124 28 97 67 c 128,-1,36
 70 106 70 106 56.5 155.5 c 128,-1,37
 43 205 43 205 43 256 c 256,38,39
 43 306 43 306 56.5 355 c 128,-1,40
 70 404 70 404 97 442.5 c 128,-1,41
 124 481 124 481 165 505 c 128,-1,42
 206 529 206 529 262 529 c 0,43,44
 323 529 323 529 365.5 503.5 c 128,-1,45
 408 478 408 478 435 435 c 1,46,-1
 435 531 l 1,47,-1
 493 531 l 1,48,-1
 493 453 l 1,49,50
 522 492 522 492 565 516.5 c 128,-1,51
 608 541 608 541 671 541 c 0,0,1
262 36 m 0,52,53
 303 36 303 36 334 53 c 128,-1,54
 365 70 365 70 386.5 97 c 128,-1,55
 408 124 408 124 420 157.5 c 128,-1,56
 432 191 432 191 435 226 c 2,57,-1
 435 286 l 2,58,59
 432 318 432 318 419.5 352 c 128,-1,60
 407 386 407 386 386 412.5 c 128,-1,61
 365 439 365 439 333.5 456.5 c 128,-1,62
 302 474 302 474 262 474 c 0,63,64
 218 474 218 474 186 453 c 128,-1,65
 154 432 154 432 134 400.5 c 128,-1,66
 114 369 114 369 104 330 c 128,-1,67
 94 291 94 291 94 256 c 0,68,69
 94 218 94 218 104 179.5 c 128,-1,70
 114 141 114 141 134 108.5 c 128,-1,71
 154 76 154 76 186 56 c 128,-1,72
 218 36 218 36 262 36 c 0,52,53
839 297 m 1,73,74
 840 326 840 326 831 360.5 c 128,-1,75
 822 395 822 395 801 423 c 128,-1,76
 780 451 780 451 747.5 470.5 c 128,-1,77
 715 490 715 490 668 490 c 0,78,79
 620 490 620 490 588 470 c 128,-1,80
 556 450 556 450 536 420 c 128,-1,81
 516 390 516 390 507 356.5 c 128,-1,82
 498 323 498 323 498 297 c 1,83,-1
 839 297 l 1,73,74
EndSplineSet
EndChar
StartChar: eth
Encoding: 240 240 177
Width: 621
VWidth: 1494
Flags: W
HStem: -13 49<221.392 389.898> 481 50<215.088 374.724>
VStem: 46 56<155.366 328.047> 511 60<159.865 367.534>
Fore
571 272 m 0,0,1
 571 197 571 197 547 142.5 c 128,-1,2
 523 88 523 88 485 53.5 c 128,-1,3
 447 19 447 19 399 3 c 128,-1,4
 351 -13 351 -13 303 -13 c 0,5,6
 247 -13 247 -13 199 7 c 128,-1,7
 151 27 151 27 117.5 63 c 128,-1,8
 84 99 84 99 65 146.5 c 128,-1,9
 46 194 46 194 46 251 c 0,10,11
 46 315 46 315 68.5 367 c 128,-1,12
 91 419 91 419 128.5 455.5 c 128,-1,13
 166 492 166 492 212.5 511.5 c 128,-1,14
 259 531 259 531 308 531 c 0,15,16
 351 531 351 531 392 519 c 128,-1,17
 433 507 433 507 477 469 c 1,18,19
 447 517 447 517 408 559.5 c 128,-1,20
 369 602 369 602 317 643 c 1,21,22
 274 623 274 623 232 603 c 128,-1,23
 190 583 190 583 146 564 c 1,24,-1
 129 607 l 1,25,-1
 271 674 l 1,26,27
 245 691 245 691 211.5 706.5 c 128,-1,28
 178 722 178 722 144 734 c 1,29,-1
 167 783 l 1,30,31
 209 765 209 765 248.5 745 c 128,-1,32
 288 725 288 725 324 700 c 1,33,34
 359 716 359 716 395.5 734 c 128,-1,35
 432 752 432 752 466 768 c 1,36,-1
 487 722 l 1,37,-1
 368 668 l 1,38,39
 419 629 419 629 457 582 c 128,-1,40
 495 535 495 535 525 481 c 0,41,42
 546 433 546 433 558.5 382.5 c 128,-1,43
 571 332 571 332 571 272 c 0,0,1
511 265 m 256,44,45
 511 321 511 321 497.5 358.5 c 128,-1,46
 484 396 484 396 460 422 c 0,47,48
 435 442 435 442 397.5 461.5 c 128,-1,49
 360 481 360 481 308 481 c 0,50,51
 254 481 254 481 215 460 c 128,-1,52
 176 439 176 439 151 406.5 c 128,-1,53
 126 374 126 374 114 333.5 c 128,-1,54
 102 293 102 293 102 253 c 0,55,56
 102 200 102 200 119 160 c 128,-1,57
 136 120 136 120 164.5 92 c 128,-1,58
 193 64 193 64 229 50 c 128,-1,59
 265 36 265 36 302 36 c 0,60,61
 345 36 345 36 383.5 51 c 128,-1,62
 422 66 422 66 450 94.5 c 128,-1,63
 478 123 478 123 494.5 165.5 c 128,-1,64
 511 208 511 208 511 265 c 256,44,45
EndSplineSet
EndChar
StartChar: divide
Encoding: 247 247 184
Width: 690
VWidth: 1494
Flags: W
HStem: 37 411<326 365 345 345 345 345> 37 95<311.954 378.077> 215 59<96 586> 354 94<311.954 378.077>
VStem: 96 490<215 274> 297 95<50.9235 117.046 368.954 434.592>
Fore
586 215 m 1,0,-1
 96 215 l 1,1,-1
 96 274 l 1,2,-1
 586 274 l 1,3,-1
 586 215 l 1,0,-1
392 402 m 256,4,5
 392 383 392 383 378.5 368.5 c 128,-1,6
 365 354 365 354 345 354 c 256,7,8
 326 354 326 354 311.5 368.5 c 128,-1,9
 297 383 297 383 297 402 c 256,10,11
 297 422 297 422 311.5 435 c 128,-1,12
 326 448 326 448 345 448 c 256,13,14
 365 448 365 448 378.5 435 c 128,-1,15
 392 422 392 422 392 402 c 256,4,5
392 84 m 256,16,17
 392 64 392 64 378.5 50.5 c 128,-1,18
 365 37 365 37 345 37 c 256,19,20
 326 37 326 37 311.5 50.5 c 128,-1,21
 297 64 297 64 297 84 c 256,22,23
 297 103 297 103 311.5 117.5 c 128,-1,24
 326 132 326 132 345 132 c 256,25,26
 365 132 365 132 378.5 117.5 c 128,-1,27
 392 103 392 103 392 84 c 256,16,17
EndSplineSet
EndChar
StartChar: oslash
Encoding: 248 248 185
Width: 524
VWidth: 1494
Flags: W
HStem: 1 54<194.148 334.806> 469 54<194.416 319.756>
VStem: 58 57<184.269 310.756> 414 57<215.108 338.318>
Fore
404 462 m 1,0,1
 438 425 438 425 454.5 371.5 c 128,-1,2
 471 318 471 318 471 263 c 0,3,4
 471 214 471 214 458 167.5 c 128,-1,5
 445 121 445 121 420 83.5 c 128,-1,6
 395 46 395 46 356 23.5 c 128,-1,7
 317 1 317 1 265 1 c 0,8,9
 208 1 208 1 164 28 c 1,10,-1
 121 -49 l 2,11,12
 118 -57 118 -57 111.5 -54.5 c 128,-1,13
 105 -52 105 -52 97 -48 c 256,14,15
 90 -43 90 -43 85.5 -39.5 c 128,-1,16
 81 -36 81 -36 85 -28 c 2,17,-1
 130 55 l 1,18,19
 93 94 93 94 75.5 148.5 c 128,-1,20
 58 203 58 203 58 263 c 0,21,22
 58 311 58 311 70 358 c 128,-1,23
 82 405 82 405 107.5 441.5 c 128,-1,24
 133 478 133 478 172 500.5 c 128,-1,25
 211 523 211 523 265 523 c 0,26,27
 296 523 296 523 323 515 c 128,-1,28
 350 507 350 507 371 492 c 1,29,-1
 413 565 l 2,30,31
 417 573 417 573 422.5 570 c 128,-1,32
 428 567 428 567 435 564 c 1,33,34
 442 559 442 559 447.5 555.5 c 128,-1,35
 453 552 453 552 450 544 c 2,36,-1
 404 462 l 1,0,1
115 263 m 0,37,38
 115 224 115 224 125.5 182.5 c 128,-1,39
 136 141 136 141 160 109 c 1,40,-1
 344 441 l 1,41,42
 311 469 311 469 265 469 c 0,43,44
 224 469 224 469 195.5 450 c 128,-1,45
 167 431 167 431 149.5 401 c 128,-1,46
 132 371 132 371 123.5 334 c 128,-1,47
 115 297 115 297 115 263 c 0,37,38
265 55 m 0,48,49
 305 55 305 55 333.5 74.5 c 128,-1,50
 362 94 362 94 380 124.5 c 128,-1,51
 398 155 398 155 406 192 c 128,-1,52
 414 229 414 229 414 263 c 0,53,54
 414 299 414 299 404.5 338 c 128,-1,55
 395 377 395 377 374 408 c 1,56,-1
 191 79 l 1,57,58
 223 55 223 55 265 55 c 0,48,49
EndSplineSet
EndChar
StartChar: thorn
Encoding: 254 254 191
Width: 677
VWidth: 1494
Flags: W
HStem: -13 47<259.451 427.912> 483 48<259.451 427.912> 699 20G<82 133>
VStem: 82 51<-212 102 172.283 344.718 414 719> 553 51<165.5 351.502>
Fore
82 719 m 1,0,-1
 133 719 l 1,1,-1
 133 414 l 1,2,3
 167 466 167 466 222 498.5 c 128,-1,4
 277 531 277 531 344 531 c 0,5,6
 398 531 398 531 445.5 510 c 128,-1,7
 493 489 493 489 528.5 451.5 c 128,-1,8
 564 414 564 414 584 364.5 c 128,-1,9
 604 315 604 315 604 259 c 256,10,11
 604 202 604 202 584 152.5 c 128,-1,12
 564 103 564 103 528.5 65.5 c 128,-1,13
 493 28 493 28 445.5 7.5 c 128,-1,14
 398 -13 398 -13 344 -13 c 0,15,16
 277 -13 277 -13 222 18 c 128,-1,17
 167 49 167 49 133 102 c 1,18,-1
 133 -212 l 1,19,-1
 82 -212 l 1,20,-1
 82 719 l 1,0,-1
135 259 m 256,21,22
 135 212 135 212 151 171 c 128,-1,23
 167 130 167 130 195.5 100 c 128,-1,24
 224 70 224 70 262 52 c 128,-1,25
 300 34 300 34 344 34 c 256,26,27
 387 34 387 34 425 52 c 128,-1,28
 463 70 463 70 491.5 100 c 128,-1,29
 520 130 520 130 536.5 171 c 128,-1,30
 553 212 553 212 553 259 c 256,31,32
 553 305 553 305 536.5 346 c 128,-1,33
 520 387 520 387 491.5 417 c 128,-1,34
 463 447 463 447 425 465 c 128,-1,35
 387 483 387 483 344 483 c 256,36,37
 300 483 300 483 262 465 c 128,-1,38
 224 447 224 447 195.5 417 c 128,-1,39
 167 387 167 387 151 346 c 128,-1,40
 135 305 135 305 135 259 c 256,21,22
EndSplineSet
EndChar
StartChar: Lslash
Encoding: 321 321 193
Width: 475
VWidth: 1494
Flags: W
HStem: 0 52<149 456> 689 20G<91 149>
VStem: 91 58<52.1388 312 408 709>
Fore
-7 247 m 1,0,-1
 -7 303 l 1,1,-1
 91 369 l 1,2,-1
 91 709 l 1,3,-1
 149 709 l 1,4,-1
 149 408 l 1,5,-1
 305 511 l 1,6,-1
 305 454 l 1,7,-1
 149 351 l 1,8,-1
 149 52 l 1,9,-1
 456 52 l 1,10,-1
 456 0 l 1,11,-1
 127 0 l 1,12,13
 121 -7 121 -7 113.5 -12.5 c 128,-1,14
 106 -18 106 -18 102 -18 c 0,15,16
 87 -18 87 -18 78 -6 c 128,-1,17
 69 6 69 6 66 13 c 0,18,19
 64 19 64 19 68 24.5 c 128,-1,20
 72 30 72 30 77 35 c 128,-1,21
 82 40 82 40 86.5 48.5 c 128,-1,22
 91 57 91 57 91 70 c 2,23,-1
 91 312 l 1,24,-1
 -7 247 l 1,0,-1
EndSplineSet
EndChar
StartChar: lslash
Encoding: 322 322 194
Width: 242
VWidth: 1494
Flags: W
HStem: 0 21G<91 145>
VStem: 91 54<0 350 450 741>
Fore
145 390 m 1,0,-1
 145 0 l 1,1,-1
 91 0 l 1,2,-1
 91 350 l 1,3,4
 73 335 73 335 53 317.5 c 128,-1,5
 33 300 33 300 15 286 c 1,6,-1
 15 342 l 1,7,-1
 91 404 l 1,8,-1
 91 741 l 1,9,-1
 118 770 l 1,10,-1
 145 770 l 1,11,-1
 145 450 l 1,12,13
 163 465 163 465 184 480.5 c 128,-1,14
 205 496 205 496 221 511 c 1,15,-1
 221 454 l 1,16,-1
 145 390 l 1,0,-1
EndSplineSet
EndChar
StartChar: OE
Encoding: 338 338 195
Width: 958
VWidth: 1494
Flags: W
HStem: -19 55<234.561 422.384> 0 58<616 924> 338 58<616 892> 650 59<616 925> 664 55<234.561 422.384>
VStem: 45 58<246.043 451.892> 556 60<58 108 289.821 338 396 409.281 590 650>
Fore
329 36 m 0,0,1
 389 36 389 36 431.5 63 c 128,-1,2
 474 90 474 90 501 134 c 128,-1,3
 528 178 528 178 540.5 234.5 c 128,-1,4
 553 291 553 291 553 350 c 256,5,6
 553 408 553 408 540.5 464 c 128,-1,7
 528 520 528 520 501 565 c 128,-1,8
 474 610 474 610 431.5 637 c 128,-1,9
 389 664 389 664 329 664 c 0,10,11
 268 664 268 664 225 637 c 128,-1,12
 182 610 182 610 155.5 565 c 128,-1,13
 129 520 129 520 116 464 c 128,-1,14
 103 408 103 408 103 350 c 256,15,16
 103 291 103 291 116 234.5 c 128,-1,17
 129 178 129 178 155.5 134 c 128,-1,18
 182 90 182 90 225 63 c 128,-1,19
 268 36 268 36 329 36 c 0,0,1
329 719 m 0,20,21
 405 719 405 719 462.5 685.5 c 128,-1,22
 520 652 520 652 556 590 c 1,23,-1
 556 650 l 2,24,25
 555 662 555 662 543 672.5 c 128,-1,26
 531 683 531 683 534 697 c 1,27,28
 537 704 537 704 546 713 c 128,-1,29
 555 722 555 722 570 722 c 0,30,31
 578 722 578 722 592 709 c 1,32,-1
 925 709 l 1,33,-1
 925 650 l 1,34,-1
 616 650 l 1,35,-1
 616 396 l 1,36,-1
 892 396 l 1,37,-1
 892 338 l 1,38,-1
 616 338 l 1,39,-1
 616 58 l 1,40,-1
 924 58 l 1,41,-1
 924 0 l 1,42,-1
 556 0 l 1,43,-1
 556 108 l 1,44,45
 520 46 520 46 462.5 13.5 c 128,-1,46
 405 -19 405 -19 329 -19 c 0,47,48
 260 -19 260 -19 207 7.5 c 128,-1,49
 154 34 154 34 118 82 c 128,-1,50
 82 130 82 130 63.5 198 c 128,-1,51
 45 266 45 266 45 350 c 0,52,53
 45 432 45 432 63.5 501 c 128,-1,54
 82 570 82 570 118 617.5 c 128,-1,55
 154 665 154 665 207 692 c 128,-1,56
 260 719 260 719 329 719 c 0,20,21
EndSplineSet
EndChar
StartChar: oe
Encoding: 339 339 196
Width: 896
VWidth: 1494
Flags: W
HStem: -1 55<187.72 323.273 606.875 640.122 640.122 655.871 655.871 678 689 728.983> 233 55<471 791> 468 54<191.316 321.865 553.477 708.01>
VStem: 49 59<212.324 307.892> 407 64<214.82 233 288 301.999> 791 57<288 298.762 298.762 309.734 309.734 332 332 347.5>
Fore
632 520 m 0,0,1
 704 520 704 520 746.5 488.5 c 128,-1,2
 789 457 789 457 811.5 415.5 c 128,-1,3
 834 374 834 374 841 332 c 128,-1,4
 848 290 848 290 848 269 c 0,5,6
 848 245 848 245 839 240 c 128,-1,7
 830 235 830 235 806 233 c 2,8,-1
 471 233 l 1,9,10
 471 166 471 166 499.5 124 c 128,-1,11
 528 82 528 82 575 63 c 0,12,13
 608 49 608 49 636.5 49 c 128,-1,14
 665 49 665 49 689 56 c 128,-1,15
 713 63 713 63 729.5 72 c 128,-1,16
 746 81 746 81 753 87 c 1,17,-1
 786 43 l 1,18,19
 770 31 770 31 741 20 c 128,-1,20
 712 9 712 9 678 3 c 128,-1,21
 644 -3 644 -3 607.5 -1.5 c 128,-1,22
 571 0 571 0 540 16 c 256,23,24
 508 33 508 33 481 58.5 c 128,-1,25
 454 84 454 84 435 121 c 1,26,27
 411 69 411 69 367.5 34 c 128,-1,28
 324 -1 324 -1 257 -1 c 0,29,30
 203 -1 203 -1 164.5 21 c 128,-1,31
 126 43 126 43 100.5 80.5 c 128,-1,32
 75 118 75 118 62 164.5 c 128,-1,33
 49 211 49 211 49 260 c 256,34,35
 49 309 49 309 62 355.5 c 128,-1,36
 75 402 75 402 100.5 439.5 c 128,-1,37
 126 477 126 477 164.5 499.5 c 128,-1,38
 203 522 203 522 257 522 c 0,39,40
 324 522 324 522 368.5 486 c 128,-1,41
 413 450 413 450 436 395 c 1,42,43
 462 447 462 447 510 483.5 c 128,-1,44
 558 520 558 520 632 520 c 0,0,1
257 54 m 0,45,46
 294 54 294 54 322.5 73.5 c 128,-1,47
 351 93 351 93 370 122 c 128,-1,48
 389 151 389 151 398 187 c 128,-1,49
 407 223 407 223 407 257 c 256,50,51
 407 291 407 291 398.5 328.5 c 128,-1,52
 390 366 390 366 372 397 c 128,-1,53
 354 428 354 428 325.5 448 c 128,-1,54
 297 468 297 468 257 468 c 256,55,56
 217 468 217 468 188.5 448.5 c 128,-1,57
 160 429 160 429 142 398.5 c 128,-1,58
 124 368 124 368 116 331 c 128,-1,59
 108 294 108 294 108 260 c 256,60,61
 108 226 108 226 116 190 c 128,-1,62
 124 154 124 154 142 123.5 c 128,-1,63
 160 93 160 93 188.5 73.5 c 128,-1,64
 217 54 217 54 257 54 c 0,45,46
791 288 m 1,65,66
 792 315 792 315 784 347.5 c 128,-1,67
 776 380 776 380 756.5 407.5 c 128,-1,68
 737 435 737 435 706.5 453.5 c 128,-1,69
 676 472 676 472 631 472 c 256,70,71
 586 472 586 472 554.5 452.5 c 128,-1,72
 523 433 523 433 503.5 405 c 128,-1,73
 484 377 484 377 475 344.5 c 128,-1,74
 466 312 466 312 466 288 c 1,75,-1
 791 288 l 1,65,66
EndSplineSet
EndChar
StartChar: florin
Encoding: 402 402 202
Width: 503
VWidth: 1494
Flags: W
HStem: -84 42<24 49.2719 49.2719 90.2112> 387 36<103 205 262 360> 692 20G<318.5 391.5>
VStem: 211 51<423 436.512 436.512 450.263>
Fore
425 649 m 1,0,1
 372 683 372 683 334 658.5 c 128,-1,2
 296 634 296 634 281 571 c 2,3,-1
 262 423 l 1,4,-1
 369 423 l 1,5,-1
 360 387 l 1,6,-1
 257 387 l 1,7,8
 254 360 254 360 249 320.5 c 128,-1,9
 244 281 244 281 238 239 c 128,-1,10
 232 197 232 197 226.5 157.5 c 128,-1,11
 221 118 221 118 217 91 c 0,12,13
 208 28 208 28 187.5 -9 c 128,-1,14
 167 -46 167 -46 139.5 -65.5 c 128,-1,15
 112 -85 112 -85 78.5 -88 c 128,-1,16
 45 -91 45 -91 7 -84 c 1,17,-1
 24 -42 l 1,18,19
 81 -51 81 -51 115 -25.5 c 128,-1,20
 149 0 149 0 160 66 c 2,21,-1
 205 387 l 1,22,-1
 94 387 l 1,23,-1
 103 423 l 1,24,-1
 211 423 l 1,25,26
 211 429 211 429 214 450.5 c 128,-1,27
 217 472 217 472 220 497 c 128,-1,28
 223 522 223 522 226 543.5 c 128,-1,29
 229 565 229 565 230 573 c 0,30,31
 259 712 259 712 378 712 c 0,32,33
 405 712 405 712 427.5 700 c 128,-1,34
 450 688 450 688 457 682 c 1,35,-1
 425 649 l 1,0,1
EndSplineSet
EndChar
StartChar: circumflex
Encoding: 710 710 203
Width: 436
VWidth: 1494
Flags: W
HStem: 709 130<197 302 197 197>
VStem: 72 293<709 709 709 709>
Fore
302 709 m 1,0,-1
 217 788 l 1,1,-1
 138 709 l 1,2,-1
 72 709 l 1,3,-1
 197 839 l 1,4,-1
 238 839 l 1,5,-1
 365 709 l 1,6,-1
 302 709 l 1,0,-1
EndSplineSet
EndChar
StartChar: caron
Encoding: 711 711 204
Width: 506
VWidth: 1494
Flags: W
HStem: 709 130<265 392 392 392>
VStem: 105 287<839 839 839 839>
Fore
392 839 m 1,0,-1
 265 709 l 1,1,-1
 226 709 l 1,2,-1
 105 839 l 1,3,-1
 164 839 l 1,4,-1
 244 753 l 1,5,-1
 329 839 l 1,6,-1
 392 839 l 1,0,-1
EndSplineSet
EndChar
StartChar: breve
Encoding: 728 728 205
Width: 448
VWidth: 1494
Flags: W
HStem: 577 49<173.901 289.409>
VStem: 64 54<705.665 738> 330 54<705.665 738>
Fore
384 738 m 1,0,1
 384 706 384 706 371.5 676.5 c 128,-1,2
 359 647 359 647 338 624.5 c 128,-1,3
 317 602 317 602 288 589.5 c 128,-1,4
 259 577 259 577 224 577 c 0,5,6
 191 577 191 577 161.5 589.5 c 128,-1,7
 132 602 132 602 111 624.5 c 128,-1,8
 90 647 90 647 77 676.5 c 128,-1,9
 64 706 64 706 64 738 c 1,10,-1
 118 738 l 1,11,12
 118 688 118 688 146.5 657 c 128,-1,13
 175 626 175 626 224 626 c 256,14,15
 274 626 274 626 302 657 c 128,-1,16
 330 688 330 688 330 738 c 1,17,-1
 384 738 l 1,0,1
EndSplineSet
EndChar
StartChar: dotaccent
Encoding: 729 729 206
Width: 236
VWidth: 1494
Flags: W
HStem: 637 107<79.4709 156.529>
VStem: 64 108<652.986 727.499>
Fore
64 691 m 0,0,1
 64 712 64 712 79 728 c 128,-1,2
 94 744 94 744 118 744 c 256,3,4
 142 744 142 744 157 728 c 128,-1,5
 172 712 172 712 172 691 c 0,6,7
 172 668 172 668 157 652.5 c 128,-1,8
 142 637 142 637 118 637 c 256,9,10
 94 637 94 637 79 652.5 c 128,-1,11
 64 668 64 668 64 691 c 0,0,1
EndSplineSet
EndChar
StartChar: ring
Encoding: 730 730 207
Width: 415
VWidth: 1494
Flags: W
HStem: 604 45<166.325 249.445> 756 47<166.325 249.445>
VStem: 108 46<661.71 743.546> 262 44<661.71 743.546>
Fore
108 703 m 256,0,1
 108 744 108 744 136 773.5 c 128,-1,2
 164 803 164 803 206 803 c 256,3,4
 248 803 248 803 277 773.5 c 128,-1,5
 306 744 306 744 306 703 c 256,6,7
 306 661 306 661 277 632.5 c 128,-1,8
 248 604 248 604 206 604 c 256,9,10
 164 604 164 604 136 632.5 c 128,-1,11
 108 661 108 661 108 703 c 256,0,1
154 703 m 256,12,13
 154 679 154 679 169 664 c 128,-1,14
 184 649 184 649 208 649 c 256,15,16
 232 649 232 649 247 664 c 128,-1,17
 262 679 262 679 262 703 c 256,18,19
 262 726 262 726 247 741 c 128,-1,20
 232 756 232 756 208 756 c 256,21,22
 184 756 184 756 169 741 c 128,-1,23
 154 726 154 726 154 703 c 256,12,13
EndSplineSet
EndChar
StartChar: tilde
Encoding: 732 732 209
Width: 331
VWidth: 1494
Flags: W
HStem: 611 95<59.6139 78 254 273.244 78 296 296 296> 655 48<84.0472 125.017>
VStem: 34 44<605 629.763> 254 42<677.884 706>
Fore
296 706 m 1,0,1
 296 665 296 665 277.5 638 c 128,-1,2
 259 611 259 611 223 611 c 0,3,4
 211 611 211 611 194.5 618 c 128,-1,5
 178 625 178 625 161.5 633 c 128,-1,6
 145 641 145 641 130 648 c 128,-1,7
 115 655 115 655 105 655 c 0,8,9
 91 655 91 655 85 640.5 c 128,-1,10
 79 626 79 626 78 605 c 1,11,-1
 34 605 l 1,12,13
 33 644 33 644 51.5 673.5 c 128,-1,14
 70 703 70 703 103 703 c 0,15,16
 120 703 120 703 137 697 c 128,-1,17
 154 691 154 691 169.5 683.5 c 128,-1,18
 185 676 185 676 200 669 c 128,-1,19
 215 662 215 662 229 661 c 0,20,21
 238 659 238 659 246 669 c 128,-1,22
 254 679 254 679 254 706 c 1,23,-1
 296 706 l 1,0,1
EndSplineSet
EndChar
StartChar: uni0E01
Encoding: 3585 3585 212
Width: 636
VWidth: 1494
Flags: W
HStem: 0 21G<135 193 490 549> 559 51<220.445 403.569>
VStem: 135 58<0 330.041> 490 59<0 448.117>
Fore
490 436 m 2,0,1
 490 456 490 456 498 468 c 1,2,3
 493 474 493 474 480.5 489.5 c 128,-1,4
 468 505 468 505 446.5 520 c 128,-1,5
 425 535 425 535 392.5 547 c 128,-1,6
 360 559 360 559 317 559 c 0,7,8
 266 559 266 559 231 546.5 c 128,-1,9
 196 534 196 534 172 516 c 128,-1,10
 148 498 148 498 134 478.5 c 128,-1,11
 120 459 120 459 114 445 c 1,12,-1
 172 408 l 1,13,14
 181 420 181 420 200.5 434 c 128,-1,15
 220 448 220 448 236 451 c 0,16,17
 238 451 238 451 248.5 436.5 c 128,-1,18
 259 422 259 422 266 411 c 1,19,20
 221 390 221 390 207 359.5 c 128,-1,21
 193 329 193 329 193 306 c 2,22,-1
 193 0 l 1,23,-1
 135 0 l 1,24,-1
 135 308 l 2,25,26
 135 326 135 326 140 341.5 c 128,-1,27
 145 357 145 357 148 363 c 1,28,-1
 45 425 l 1,29,30
 46 433 46 433 60.5 462.5 c 128,-1,31
 75 492 75 492 105.5 525 c 128,-1,32
 136 558 136 558 187 583 c 128,-1,33
 238 608 238 608 315 610 c 0,34,35
 402 610 402 610 453 579.5 c 128,-1,36
 504 549 504 549 531 513 c 1,37,38
 534 516 534 516 542 514.5 c 128,-1,39
 550 513 550 513 562 501 c 0,40,41
 575 484 575 484 572.5 476.5 c 128,-1,42
 570 469 570 469 559 459 c 256,43,44
 549 448 549 448 549 428 c 2,45,-1
 549 0 l 1,46,-1
 490 0 l 1,47,-1
 490 436 l 2,0,1
EndSplineSet
EndChar
StartChar: uni0E02
Encoding: 3586 3586 213
Width: 562
VWidth: 1494
Flags: W
HStem: 0 57<239 415.612> 360 53<90.3778 167.133> 557.5 50.5<175.58 237.062>
VStem: 28 51<424.342 499.109> 179 51<424.907 499.422> 194 59<66.9375 84 84 290.438> 296 54<429.143 474 474 518.435> 416 58<57.345 598>
Fore
416 598 m 1,0,-1
 474 598 l 1,1,-1
 474 58 l 2,2,3
 474 37 474 37 457 21 c 0,4,5
 439 0 439 0 401 0 c 2,6,-1
 211 0 l 2,7,8
 203 0 203 0 201.5 -2 c 128,-1,9
 200 -4 200 -4 193 -7 c 0,10,11
 181 -10 181 -10 174 -8.5 c 128,-1,12
 167 -7 167 -7 155 13 c 0,13,14
 149 24 149 24 153 29 c 128,-1,15
 157 34 157 34 169 42 c 0,16,17
 185 52 185 52 189.5 64 c 128,-1,18
 194 76 194 76 194 84 c 2,19,-1
 194 269 l 2,20,21
 194 300 194 300 210.5 321 c 128,-1,22
 227 342 227 342 244 359 c 0,23,24
 265 380 265 380 281 404.5 c 128,-1,25
 297 429 297 429 296 474 c 0,26,27
 294 501 294 501 282.5 519 c 128,-1,28
 271 537 271 537 252 546.5 c 128,-1,29
 233 556 233 556 212 557.5 c 128,-1,30
 191 559 191 559 172 553 c 1,31,32
 197 541 197 541 213.5 516.5 c 128,-1,33
 230 492 230 492 230 462 c 0,34,35
 230 419 230 419 201 389.5 c 128,-1,36
 172 360 172 360 129 360 c 0,37,38
 87 360 87 360 57.5 389.5 c 128,-1,39
 28 419 28 419 28 462 c 0,40,41
 28 516 28 516 73 564 c 0,42,43
 93 583 93 583 120.5 594 c 128,-1,44
 148 605 148 605 178 608 c 128,-1,45
 208 611 208 611 238 604.5 c 128,-1,46
 268 598 268 598 291 581 c 0,47,48
 317 564 317 564 332.5 535.5 c 128,-1,49
 348 507 348 507 350 477 c 0,50,51
 351 445 351 445 344.5 420.5 c 128,-1,52
 338 396 338 396 326.5 378 c 128,-1,53
 315 360 315 360 301.5 346 c 128,-1,54
 288 332 288 332 278 320 c 0,55,56
 262 303 262 303 257.5 293 c 128,-1,57
 253 283 253 283 253 269 c 2,58,-1
 253 91 l 2,59,60
 253 66 253 66 239 57 c 1,61,-1
 416 57 l 1,62,-1
 416 598 l 1,0,-1
129 413 m 256,63,64
 149 413 149 413 164 427 c 128,-1,65
 179 441 179 441 179 462 c 256,66,67
 179 483 179 483 164 497 c 128,-1,68
 149 511 149 511 129 511 c 256,69,70
 108 511 108 511 93.5 497 c 128,-1,71
 79 483 79 483 79 462 c 256,72,73
 79 441 79 441 93.5 427 c 128,-1,74
 108 413 108 413 129 413 c 256,63,64
EndSplineSet
EndChar
StartChar: uni0E03
Encoding: 3587 3587 214
Width: 615
VWidth: 1494
Flags: W
HStem: 0 57<300 473.058> 323 48<108.278 183.591> 466 50<117.851 183.591> 578 20G<474 531>
VStem: 33 64<384.924 452.077> 194 50<381.559 455.165> 256 58<68.1562 317.678> 474 57<57.345 598>
Fore
531 58 m 2,0,1
 531 37 531 37 514 21 c 0,2,3
 496 0 496 0 457 0 c 2,4,-1
 272 0 l 2,5,6
 265 0 265 0 263.5 -2 c 128,-1,7
 262 -4 262 -4 254 -7 c 0,8,9
 242 -10 242 -10 235.5 -8.5 c 128,-1,10
 229 -7 229 -7 217 13 c 0,11,12
 211 24 211 24 214.5 29 c 128,-1,13
 218 34 218 34 230 42 c 0,14,15
 247 52 247 52 251.5 65 c 128,-1,16
 256 78 256 78 256 85 c 2,17,-1
 256 287 l 2,18,19
 256 314 256 314 265 335 c 128,-1,20
 274 356 274 356 287 371.5 c 128,-1,21
 300 387 300 387 315 400 c 128,-1,22
 330 413 330 413 344 423 c 0,23,24
 369 444 369 444 376 457.5 c 128,-1,25
 383 471 383 471 378 487 c 0,26,27
 374 507 374 507 363.5 528.5 c 128,-1,28
 353 550 353 550 341 558 c 1,29,30
 333 552 333 552 322 543 c 128,-1,31
 311 534 311 534 297 522 c 1,32,33
 308 505 308 505 305.5 497 c 128,-1,34
 303 489 303 489 293 484 c 0,35,36
 269 472 269 472 257 493 c 0,37,38
 236 537 236 537 200 552.5 c 128,-1,39
 164 568 164 568 135 556 c 0,40,41
 118 550 118 550 104 532 c 128,-1,42
 90 514 90 514 87 493 c 1,43,44
 99 502 99 502 114.5 509 c 128,-1,45
 130 516 130 516 146 516 c 0,46,47
 187 516 187 516 215.5 487.5 c 128,-1,48
 244 459 244 459 244 419 c 256,49,50
 244 378 244 378 215.5 350.5 c 128,-1,51
 187 323 187 323 146 323 c 0,52,53
 112 323 112 323 87.5 339.5 c 128,-1,54
 63 356 63 356 49.5 382 c 128,-1,55
 36 408 36 408 33 438.5 c 128,-1,56
 30 469 30 469 37 499 c 0,57,58
 55 570 55 570 117 598 c 0,59,60
 154 616 154 616 198 609 c 128,-1,61
 242 602 242 602 277 559 c 1,62,63
 300 581 300 581 316 591.5 c 128,-1,64
 332 602 332 602 341 606.5 c 128,-1,65
 350 611 350 611 356 609.5 c 128,-1,66
 362 608 362 608 366 607 c 1,67,68
 380 598 380 598 392 582.5 c 128,-1,69
 404 567 404 567 413 549.5 c 128,-1,70
 422 532 422 532 427.5 516.5 c 128,-1,71
 433 501 433 501 435 493 c 0,72,73
 439 471 439 471 435.5 455 c 128,-1,74
 432 439 432 439 423 427.5 c 128,-1,75
 414 416 414 416 401.5 406 c 128,-1,76
 389 396 389 396 377 386 c 0,77,78
 351 365 351 365 332.5 343 c 128,-1,79
 314 321 314 321 314 287 c 2,80,-1
 314 91 l 2,81,82
 314 66 314 66 300 57 c 1,83,-1
 474 57 l 1,84,-1
 474 598 l 1,85,-1
 531 598 l 1,86,-1
 531 58 l 2,0,1
146 466 m 256,87,88
 126 466 126 466 111.5 452.5 c 128,-1,89
 97 439 97 439 97 419 c 256,90,91
 97 398 97 398 111.5 384.5 c 128,-1,92
 126 371 126 371 146 371 c 256,93,94
 167 371 167 371 180.5 384.5 c 128,-1,95
 194 398 194 398 194 419 c 256,96,97
 194 439 194 439 180.5 452.5 c 128,-1,98
 167 466 167 466 146 466 c 256,87,88
EndSplineSet
EndChar
StartChar: uni0E04
Encoding: 3588 3588 215
Width: 650
VWidth: 1494
Flags: W
HStem: 0 21G<123.75 135.25 505 564> 275 49<294.484 369.343> 420 51<294.414 369.343> 559 51<232.179 395.407>
VStem: 87 57.5<223.58 273 273 335.874 335.874 341.485 341.485 472.113> 380 51<334.807 409.126> 505 59<0 448.117>
Fore
513 474 m 1,0,1
 514 474 514 474 504.5 486.5 c 128,-1,2
 495 499 495 499 472.5 515.5 c 128,-1,3
 450 532 450 532 415 545.5 c 128,-1,4
 380 559 380 559 329 559 c 0,5,6
 248 559 248 559 198 514 c 128,-1,7
 148 469 148 469 144 384 c 0,8,9
 141 341 141 341 144.5 299 c 128,-1,10
 148 257 148 257 152.5 222.5 c 128,-1,11
 157 188 157 188 161.5 163 c 128,-1,12
 166 138 166 138 166 126 c 1,13,14
 187 194 187 194 198 241 c 128,-1,15
 209 288 209 288 216 321 c 128,-1,16
 223 354 223 354 226.5 374.5 c 128,-1,17
 230 395 230 395 238 410 c 0,18,19
 253 441 253 441 277.5 456 c 128,-1,20
 302 471 302 471 332 471 c 0,21,22
 372 471 372 471 401.5 442 c 128,-1,23
 431 413 431 413 431 372 c 256,24,25
 431 332 431 332 401.5 303.5 c 128,-1,26
 372 275 372 275 332 275 c 256,27,28
 291 275 291 275 263 303 c 1,29,30
 256 275 256 275 247.5 240 c 128,-1,31
 239 205 239 205 226.5 165.5 c 128,-1,32
 214 126 214 126 195 86 c 128,-1,33
 176 46 176 46 148 9 c 0,34,35
 141 -1 141 -1 129.5 -1 c 128,-1,36
 118 -1 118 -1 109 6 c 0,37,38
 97 16 97 16 95.5 22 c 128,-1,39
 94 28 94 28 106 46 c 0,40,41
 121 69 121 69 118 102 c 128,-1,42
 115 135 115 135 107.5 177.5 c 128,-1,43
 100 220 100 220 92 273 c 128,-1,44
 84 326 84 326 87 389 c 0,45,46
 91 490 91 490 154.5 550 c 128,-1,47
 218 610 218 610 327 610 c 0,48,49
 371 610 371 610 405 601 c 128,-1,50
 439 592 439 592 465.5 578.5 c 128,-1,51
 492 565 492 565 512 548 c 128,-1,52
 532 531 532 531 546 513 c 1,53,54
 549 516 549 516 557 514.5 c 128,-1,55
 565 513 565 513 577 501 c 0,56,57
 590 484 590 484 587 476.5 c 128,-1,58
 584 469 584 469 574 459 c 256,59,60
 564 448 564 448 564 428 c 2,61,-1
 564 0 l 1,62,-1
 505 0 l 1,63,-1
 505 442 l 2,64,65
 505 462 505 462 513 474 c 1,0,1
380 372 m 256,66,67
 380 393 380 393 366.5 406.5 c 128,-1,68
 353 420 353 420 332 420 c 256,69,70
 311 420 311 420 297.5 406.5 c 128,-1,71
 284 393 284 393 284 372 c 256,72,73
 284 351 284 351 297.5 337.5 c 128,-1,74
 311 324 311 324 332 324 c 256,75,76
 353 324 353 324 366.5 337.5 c 128,-1,77
 380 351 380 351 380 372 c 256,66,67
EndSplineSet
EndChar
StartChar: uni0E05
Encoding: 3589 3589 216
Width: 650
VWidth: 1494
Flags: W
HStem: 0 21G<123.75 135.25 505 564> 256 50<298.143 373.126> 402 51<297.915 373.126>
VStem: 384 51<316.732 391.126> 505 59<0 448.117>
Fore
513 471 m 1,0,1
 504 489 504 489 481.5 516 c 128,-1,2
 459 543 459 543 422 555 c 1,3,4
 414 552 414 552 396 536 c 128,-1,5
 378 520 378 520 360 499 c 1,6,7
 359 496 359 496 356 491 c 128,-1,8
 353 486 353 486 348 483 c 0,9,10
 338 475 338 475 329.5 480.5 c 128,-1,11
 321 486 321 486 314 495 c 0,12,13
 266 555 266 555 236 558 c 1,14,15
 190 546 190 546 167 513.5 c 128,-1,16
 144 481 144 481 137 438.5 c 128,-1,17
 130 396 130 396 134.5 346.5 c 128,-1,18
 139 297 139 297 147 253 c 128,-1,19
 155 209 155 209 162 175 c 128,-1,20
 169 141 169 141 166 126 c 1,21,22
 188 185 188 185 200 228 c 128,-1,23
 212 271 212 271 219 302 c 128,-1,24
 226 333 226 333 230.5 354 c 128,-1,25
 235 375 235 375 242 392 c 0,26,27
 272 453 272 453 336 453 c 0,28,29
 377 453 377 453 406 424 c 128,-1,30
 435 395 435 395 435 354 c 256,31,32
 435 314 435 314 406 285 c 128,-1,33
 377 256 377 256 336 256 c 0,34,35
 294 256 294 256 268 286 c 1,36,37
 260 257 260 257 251 224 c 128,-1,38
 242 191 242 191 228.5 156 c 128,-1,39
 215 121 215 121 195.5 83.5 c 128,-1,40
 176 46 176 46 148 9 c 0,41,42
 141 -1 141 -1 129.5 -1 c 128,-1,43
 118 -1 118 -1 109 6 c 0,44,45
 97 16 97 16 96.5 23 c 128,-1,46
 96 30 96 30 106 46 c 0,47,48
 121 70 121 70 119 108 c 128,-1,49
 117 146 117 146 108.5 194 c 128,-1,50
 100 242 100 242 90.5 296.5 c 128,-1,51
 81 351 81 351 82 410 c 0,52,53
 85 486 85 486 118 531.5 c 128,-1,54
 151 577 151 577 223 602 c 0,55,56
 248 610 248 610 279.5 590 c 128,-1,57
 311 570 311 570 335 543 c 1,58,59
 359 570 359 570 385 589 c 128,-1,60
 411 608 411 608 435 602 c 0,61,62
 478 586 478 586 506.5 560.5 c 128,-1,63
 535 535 535 535 549 514 c 1,64,65
 553 516 553 516 560.5 513.5 c 128,-1,66
 568 511 568 511 577 501 c 0,67,68
 590 484 590 484 587 476.5 c 128,-1,69
 584 469 584 469 574 459 c 256,70,71
 564 448 564 448 564 428 c 2,72,-1
 564 0 l 1,73,-1
 505 0 l 1,74,-1
 505 439 l 2,75,76
 505 459 505 459 513 471 c 1,0,1
384 354 m 256,77,78
 384 375 384 375 370.5 388.5 c 128,-1,79
 357 402 357 402 336 402 c 256,80,81
 315 402 315 402 301 388.5 c 128,-1,82
 287 375 287 375 287 354 c 256,83,84
 287 333 287 333 301 319.5 c 128,-1,85
 315 306 315 306 336 306 c 256,86,87
 357 306 357 306 370.5 319.5 c 128,-1,88
 384 333 384 333 384 354 c 256,77,78
EndSplineSet
EndChar
StartChar: uni0E06
Encoding: 3590 3590 217
Width: 717
VWidth: 1494
Flags: W
HStem: 0 21G<573 631> 209 51<229.216 257.336> 320 48<110.67 185.343> 465 46<119.665 185.446> 578 20G<573 631>
VStem: 43.5 56.5<382.439 451.076> 196 51<378.919 454.482> 268 58<48.7057 72 72 209 260 344.121> 573 58<0 51 141 598>
Fore
631 0 m 1,0,-1
 573 0 l 1,1,-1
 573 51 l 1,2,3
 546 102 546 102 507.5 133 c 128,-1,4
 469 164 469 164 432 180.5 c 128,-1,5
 395 197 395 197 365 203 c 128,-1,6
 335 209 335 209 326 211 c 1,7,-1
 326 84 l 2,8,9
 326 48 326 48 310 24 c 128,-1,10
 294 0 294 0 265 -6 c 0,11,12
 235 -10 235 -10 209.5 -0.5 c 128,-1,13
 184 9 184 9 165 28.5 c 128,-1,14
 146 48 146 48 137.5 75 c 128,-1,15
 129 102 129 102 132 132 c 0,16,17
 138 188 138 188 178 219.5 c 128,-1,18
 218 251 218 251 269 260 c 1,19,-1
 269 314 l 2,20,21
 269 341 269 341 278 360.5 c 128,-1,22
 287 380 287 380 300.5 395 c 128,-1,23
 314 410 314 410 329 421 c 128,-1,24
 344 432 344 432 357 442 c 0,25,26
 383 463 383 463 391 477.5 c 128,-1,27
 399 492 399 492 396 508 c 0,28,29
 393 529 393 529 380.5 544 c 128,-1,30
 368 559 368 559 363 562 c 1,31,32
 356 555 356 555 341 544.5 c 128,-1,33
 326 534 326 534 312 522 c 1,34,35
 321 504 321 504 318 496.5 c 128,-1,36
 315 489 315 489 306 486 c 1,37,38
 294 478 294 478 284.5 481 c 128,-1,39
 275 484 275 484 271 493 c 0,40,41
 250 538 250 538 217.5 552.5 c 128,-1,42
 185 567 185 567 151 555 c 0,43,44
 139 552 139 552 122.5 535.5 c 128,-1,45
 106 519 106 519 103 496 c 1,46,47
 112 504 112 504 125 507.5 c 128,-1,48
 138 511 138 511 148 511 c 0,49,50
 190 511 190 511 218.5 484 c 128,-1,51
 247 457 247 457 247 417 c 0,52,53
 247 375 247 375 217.5 347.5 c 128,-1,54
 188 320 188 320 148 320 c 0,55,56
 112 320 112 320 89.5 337 c 128,-1,57
 67 354 67 354 56 380.5 c 128,-1,58
 45 407 45 407 43.5 438 c 128,-1,59
 42 469 42 469 49 496 c 0,60,61
 58 534 58 534 81.5 560 c 128,-1,62
 105 586 105 586 126 596 c 0,63,64
 163 613 163 613 210 607.5 c 128,-1,65
 257 602 257 602 291 561 c 1,66,67
 315 581 315 581 330 592.5 c 128,-1,68
 345 604 345 604 354 607.5 c 128,-1,69
 363 611 363 611 369 609.5 c 128,-1,70
 375 608 375 608 380 607 c 0,71,72
 393 601 393 601 404.5 589.5 c 128,-1,73
 416 578 416 578 424.5 565 c 128,-1,74
 433 552 433 552 438.5 539 c 128,-1,75
 444 526 444 526 445 519 c 0,76,77
 450 496 450 496 447 479.5 c 128,-1,78
 444 463 444 463 435 450.5 c 128,-1,79
 426 438 426 438 420 433 c 0,80,-1
 390 407 l 0,81,82
 365 387 365 387 345.5 367 c 128,-1,83
 326 347 326 347 326 314 c 2,84,-1
 326 260 l 1,85,86
 335 260 335 260 360.5 256.5 c 128,-1,87
 386 253 386 253 421 241 c 128,-1,88
 456 229 456 229 496.5 205 c 128,-1,89
 537 181 537 181 573 141 c 1,90,-1
 573 598 l 1,91,-1
 631 598 l 1,92,-1
 631 0 l 1,0,-1
148 465 m 256,93,94
 127 465 127 465 113.5 451.5 c 128,-1,95
 100 438 100 438 100 417 c 256,96,97
 100 396 100 396 113.5 382 c 128,-1,98
 127 368 127 368 148 368 c 256,99,100
 169 368 169 368 182.5 382 c 128,-1,101
 196 396 196 396 196 417 c 256,102,103
 196 438 196 438 182.5 451.5 c 128,-1,104
 169 465 169 465 148 465 c 256,93,94
268 209 m 1,105,106
 254 206 254 206 240.5 201 c 128,-1,107
 227 196 227 196 215 187 c 128,-1,108
 203 178 203 178 194 163 c 128,-1,109
 185 148 185 148 182 126 c 0,110,111
 179 97 179 97 196.5 67 c 128,-1,112
 214 37 214 37 250 40 c 0,113,114
 262 42 262 42 265 48.5 c 128,-1,115
 268 55 268 55 268 72 c 2,116,-1
 268 209 l 1,105,106
EndSplineSet
EndChar
StartChar: uni0E07
Encoding: 3591 3591 218
Width: 485
VWidth: 1494
Flags: W
HStem: 410 50<264.554 331.075> 556 51<264.554 338.678>
VStem: 203 51<470.732 545.126> 345 54<87.1252 96 96 420 473.924 542.076>
Fore
42 369 m 1,0,1
 45 366 45 366 66.5 344.5 c 128,-1,2
 88 323 88 323 120 291 c 128,-1,3
 152 259 152 259 189 222 c 128,-1,4
 226 185 226 185 257 153 c 128,-1,5
 288 121 288 121 310.5 98 c 128,-1,6
 333 75 333 75 336 72 c 1,7,8
 339 75 339 75 340.5 79.5 c 128,-1,9
 342 84 342 84 344 87 c 0,10,11
 345 91 345 91 345 96 c 2,12,-1
 345 420 l 1,13,14
 324 410 324 410 302 410 c 0,15,16
 260 410 260 410 231.5 439 c 128,-1,17
 203 468 203 468 203 508 c 256,18,19
 203 549 203 549 231.5 578 c 128,-1,20
 260 607 260 607 302 607 c 0,21,22
 342 607 342 607 370.5 578.5 c 128,-1,23
 399 550 399 550 399 510 c 2,24,-1
 399 115 l 2,25,26
 399 88 399 88 396 72.5 c 128,-1,27
 393 57 393 57 387 45 c 128,-1,28
 381 33 381 33 372 23 c 128,-1,29
 363 13 363 13 353 0 c 0,30,31
 342 -12 342 -12 335.5 -10.5 c 128,-1,32
 329 -9 329 -9 312 0 c 0,33,34
 302 6 302 6 302.5 11 c 128,-1,35
 303 16 303 16 309 28 c 1,36,-1
 169 169 l 2,37,38
 128.5 209.5 l 0,39,40
 88 250 88 250 65.5 272 c 128,-1,41
 43 294 43 294 27.5 310 c 128,-1,42
 12 326 12 326 6 330 c 1,43,-1
 42 369 l 1,0,1
302 460 m 0,44,45
 321 460 321 460 335.5 473.5 c 128,-1,46
 350 487 350 487 350 508 c 256,47,48
 350 529 350 529 335.5 542.5 c 128,-1,49
 321 556 321 556 302 556 c 0,50,51
 281 556 281 556 267.5 542.5 c 128,-1,52
 254 529 254 529 254 508 c 256,53,54
 254 487 254 487 267.5 473.5 c 128,-1,55
 281 460 281 460 302 460 c 0,44,45
EndSplineSet
EndChar
StartChar: uni0E08
Encoding: 3592 3592 219
Width: 597
VWidth: 1494
Flags: W
HStem: 254 49<226.335 300.632> 401 49<225.807 300.655> 558 50<188.009 357.177>
VStem: 37 50<312 390.733> 166 49<314.527 389.678>
Fore
454 61 m 2,0,1
 451 43 451 43 436.5 26.5 c 128,-1,2
 422 10 422 10 404 -4 c 0,3,4
 387 -15 387 -15 368 4 c 0,5,6
 360 10 360 10 361 16 c 128,-1,7
 362 22 362 22 365.5 26.5 c 128,-1,8
 369 31 369 31 374.5 35 c 128,-1,9
 380 39 380 39 381 43 c 1,10,-1
 324 275 l 1,11,12
 299 254 299 254 263 254 c 0,13,14
 223 254 223 254 194.5 282.5 c 128,-1,15
 166 311 166 311 166 353 c 0,16,17
 166 393 166 393 194.5 421.5 c 128,-1,18
 223 450 223 450 263 450 c 0,19,20
 302 450 302 450 328 425.5 c 128,-1,21
 354 401 354 401 362 363 c 2,22,-1
 414 91 l 1,23,-1
 460 445 l 1,24,25
 463 454 463 454 465.5 461.5 c 128,-1,26
 468 469 468 469 474 475 c 1,27,28
 465 486 465 486 448 500 c 128,-1,29
 431 514 431 514 407 527 c 128,-1,30
 383 540 383 540 352 549 c 128,-1,31
 321 558 321 558 287 558 c 0,32,33
 184 558 184 558 133 490 c 128,-1,34
 82 422 82 422 87 312 c 1,35,-1
 37 312 l 1,36,37
 34 390 34 390 53 446 c 128,-1,38
 72 502 72 502 106.5 538 c 128,-1,39
 141 574 141 574 187 591 c 128,-1,40
 233 608 233 608 287 608 c 0,41,42
 363 608 363 608 417.5 578.5 c 128,-1,43
 472 549 472 549 507 513 c 1,44,45
 510 516 510 516 518 514.5 c 128,-1,46
 526 513 526 513 538 498 c 0,47,48
 550 481 550 481 546.5 473.5 c 128,-1,49
 543 466 543 466 532 456 c 0,50,51
 528 453 528 453 522.5 447 c 128,-1,52
 517 441 517 441 514 429 c 2,53,-1
 454 61 l 2,0,1
263 303 m 256,54,55
 284 303 284 303 298 317.5 c 128,-1,56
 312 332 312 332 312 353 c 0,57,58
 312 372 312 372 298 386.5 c 128,-1,59
 284 401 284 401 263 401 c 256,60,61
 242 401 242 401 228.5 386.5 c 128,-1,62
 215 372 215 372 215 353 c 0,63,64
 215 332 215 332 228.5 317.5 c 128,-1,65
 242 303 242 303 263 303 c 256,54,55
EndSplineSet
EndChar
StartChar: uni0E09
Encoding: 3593 3593 220
Width: 636
VWidth: 1494
Flags: W
HStem: -1 50<453.264 539.843> 227 45<125.807 190.383> 369 47<125.807 200.193> 558 52<228.821 394.055>
VStem: 39 49<436 495.935> 66 49<282.855 358.006> 193 57<132 151.15 151.15 192.515 192.515 231.929> 211 49<289.851 358.006> 384 54<65.0427 138.945> 487 57<232 458.654> 555 52<64.2137 141.476>
Fore
487 441 m 2,0,1
 487 460 487 460 495 472 c 1,2,3
 492 474 492 474 480 487.5 c 128,-1,4
 468 501 468 501 444 516.5 c 128,-1,5
 420 532 420 532 383.5 545 c 128,-1,6
 347 558 347 558 296 558 c 0,7,8
 263 558 263 558 230 549 c 128,-1,9
 197 540 197 540 169.5 523.5 c 128,-1,10
 142 507 142 507 120.5 480.5 c 128,-1,11
 99 454 99 454 88 422 c 1,12,13
 76 425 76 425 66 428 c 0,14,15
 57 431 57 431 49.5 433 c 128,-1,16
 42 435 42 435 39 436 c 1,17,18
 46 468 46 468 68 499.5 c 128,-1,19
 90 531 90 531 123.5 555.5 c 128,-1,20
 157 580 157 580 200.5 595 c 128,-1,21
 244 610 244 610 296 610 c 0,22,23
 386 610 386 610 442 578.5 c 128,-1,24
 498 547 498 547 526 513 c 1,25,26
 529 516 529 516 537.5 514.5 c 128,-1,27
 546 513 546 513 558 501 c 0,28,29
 571 484 571 484 568 476.5 c 128,-1,30
 565 469 565 469 555 459 c 256,31,32
 544 448 544 448 544 428 c 2,33,-1
 544 208 l 1,34,35
 580 191 580 191 593.5 162 c 128,-1,36
 607 133 607 133 607 108 c 0,37,38
 607 61 607 61 575 30 c 128,-1,39
 543 -1 543 -1 496 -1 c 0,40,41
 453 -1 453 -1 418.5 27 c 128,-1,42
 384 55 384 55 384 108 c 0,43,44
 384 126 384 126 397 151 c 128,-1,45
 410 176 410 176 433 188 c 1,46,47
 377 182 377 182 338.5 150 c 128,-1,48
 300 118 300 118 274 83 c 128,-1,49
 248 48 248 48 232.5 20.5 c 128,-1,50
 217 -7 217 -7 206 -4 c 1,51,52
 196 -4 196 -4 186 3 c 128,-1,53
 176 10 176 10 173 18 c 1,54,55
 170 31 170 31 180.5 40 c 128,-1,56
 191 49 191 49 191 63 c 2,57,-1
 193 232 l 1,58,59
 179 227 179 227 163 227 c 0,60,61
 123 227 123 227 94.5 253.5 c 128,-1,62
 66 280 66 280 66 320 c 0,63,64
 66 362 66 362 94.5 389 c 128,-1,65
 123 416 123 416 163 416 c 256,66,67
 203 416 203 416 231.5 389 c 128,-1,68
 260 362 260 362 260 320 c 0,69,70
 260 296 260 296 251 277 c 1,71,72
 251 271 251 271 250.5 253.5 c 128,-1,73
 250 236 250 236 250 214.5 c 128,-1,74
 250 193 250 193 249 170.5 c 128,-1,75
 248 148 248 148 248 132 c 1,76,77
 271 161 271 161 300 182 c 128,-1,78
 329 203 329 203 362 216 c 128,-1,79
 395 229 395 229 427 232.5 c 128,-1,80
 459 236 459 236 487 232 c 1,81,-1
 487 441 l 2,0,1
115 320 m 0,82,83
 115 300 115 300 128.5 286 c 128,-1,84
 142 272 142 272 163 272 c 256,85,86
 184 272 184 272 197.5 286 c 128,-1,87
 211 300 211 300 211 320 c 0,88,89
 211 341 211 341 197.5 355 c 128,-1,90
 184 369 184 369 163 369 c 256,91,92
 142 369 142 369 128.5 355 c 128,-1,93
 115 341 115 341 115 320 c 0,82,83
496 49 m 256,94,95
 522 49 522 49 538.5 66.5 c 128,-1,96
 555 84 555 84 555 108 c 256,97,98
 555 132 555 132 538.5 149.5 c 128,-1,99
 522 167 522 167 496 167 c 0,100,101
 474 167 474 167 456 150 c 128,-1,102
 438 133 438 133 438 108 c 0,103,104
 438 85 438 85 454.5 67 c 128,-1,105
 471 49 471 49 496 49 c 256,94,95
EndSplineSet
EndChar
StartChar: uni0E0A
Encoding: 3594 3594 221
Width: 566
VWidth: 1494
Flags: W
HStem: 0 57<239 421.612> 348 50<78.3965 152.688> 546.5 49.5<132.595 202.621 202.621 209.711 209.711 221.5 242 259.969>
VStem: 18 49<409.542 482.96> 164 50<409.312 475.144> 194 59<66.9375 282.628> 422 58<57.345 371>
Fore
480 58 m 2,0,1
 480 37 480 37 463 21 c 0,2,3
 445 0 445 0 407 0 c 2,4,-1
 211 0 l 2,5,6
 203 0 203 0 201.5 -2 c 128,-1,7
 200 -4 200 -4 193 -7 c 0,8,9
 181 -10 181 -10 174 -8.5 c 128,-1,10
 167 -7 167 -7 155 13 c 0,11,12
 149 24 149 24 153 29 c 128,-1,13
 157 34 157 34 169 42 c 0,14,15
 185 52 185 52 189.5 64 c 128,-1,16
 194 76 194 76 194 84 c 2,17,-1
 194 262 l 2,18,19
 194 291 194 291 209 315 c 128,-1,20
 224 339 224 339 241 362 c 0,21,22
 263 392 263 392 278.5 420 c 128,-1,23
 294 448 294 448 284 487 c 0,24,25
 277 511 277 511 260.5 524.5 c 128,-1,26
 244 538 244 538 221.5 543.5 c 128,-1,27
 199 549 199 549 175 546.5 c 128,-1,28
 151 544 151 544 132 535 c 1,29,30
 148 537 148 537 163 530 c 128,-1,31
 178 523 178 523 189 510.5 c 128,-1,32
 200 498 200 498 207 480.5 c 128,-1,33
 214 463 214 463 214 447 c 0,34,35
 214 405 214 405 185.5 376.5 c 128,-1,36
 157 348 157 348 115 348 c 0,37,38
 75 348 75 348 47 376 c 128,-1,39
 19 404 19 404 18 447 c 0,40,41
 18 487 18 487 41 522.5 c 128,-1,42
 64 558 64 558 103 578 c 0,43,44
 136 593 136 593 172.5 596 c 128,-1,45
 209 599 209 599 242 590 c 128,-1,46
 275 581 275 581 300.5 559.5 c 128,-1,47
 326 538 326 538 336 504 c 0,48,49
 348 459 348 459 334.5 419.5 c 128,-1,50
 321 380 321 380 291 341 c 0,51,52
 268 309 268 309 260.5 293.5 c 128,-1,53
 253 278 253 278 253 256 c 2,54,-1
 253 91 l 2,55,56
 253 66 253 66 239 57 c 1,57,-1
 422 57 l 1,58,-1
 422 371 l 1,59,60
 417 384 417 384 404.5 394 c 128,-1,61
 392 404 392 404 380 411 c 0,62,63
 365 419 365 419 348 426 c 1,64,65
 350 429 350 429 354.5 449 c 128,-1,66
 359 469 359 469 377 501.5 c 128,-1,67
 395 534 395 534 430 574 c 128,-1,68
 465 614 465 614 526 659 c 1,69,70
 535 647 535 647 543 638 c 0,71,72
 549 631 549 631 554 623.5 c 128,-1,73
 559 616 559 616 561 616 c 1,74,75
 496 573 496 573 459 533 c 128,-1,76
 422 493 422 493 407 451 c 1,77,78
 416 450 416 450 425 444 c 0,79,80
 432 439 432 439 441.5 432.5 c 128,-1,81
 451 426 451 426 460 416 c 0,82,83
 475 399 475 399 477.5 376 c 128,-1,84
 480 353 480 353 480 342 c 2,85,-1
 480 58 l 2,0,1
164 447 m 0,86,87
 164 466 164 466 150 480.5 c 128,-1,88
 136 495 136 495 115 495 c 0,89,90
 96 495 96 495 81.5 480.5 c 128,-1,91
 67 466 67 466 67 447 c 0,92,93
 67 426 67 426 81.5 412 c 128,-1,94
 96 398 96 398 115 398 c 0,95,96
 136 398 136 398 150 412 c 128,-1,97
 164 426 164 426 164 447 c 0,86,87
EndSplineSet
EndChar
StartChar: uni0E0B
Encoding: 3595 3595 222
Width: 635
VWidth: 1494
Flags: W
HStem: 0 57<308 489.977> 312 50<100.797 174.236> 459 49<100.673 167.247> 552.5 51.5<135.208 189.531>
VStem: 24.5 65.5<376.439 428.967> 185 51<372.77 447.977> 263 58<66.9375 311.871> 490 59<57.345 368>
Fore
549 58 m 2,0,1
 549 37 549 37 532 21 c 0,2,3
 514 0 514 0 475 0 c 2,4,-1
 280 0 l 2,5,6
 272 0 272 0 270.5 -2 c 128,-1,7
 269 -4 269 -4 262 -7 c 0,8,9
 250 -10 250 -10 243 -8.5 c 128,-1,10
 236 -7 236 -7 224 13 c 0,11,12
 218 24 218 24 222 29 c 128,-1,13
 226 34 226 34 238 42 c 0,14,15
 254 52 254 52 258.5 64 c 128,-1,16
 263 76 263 76 263 84 c 2,17,-1
 263 281 l 2,18,19
 263 309 263 309 273 332.5 c 128,-1,20
 283 356 283 356 309 387 c 0,21,22
 335 417 335 417 354.5 440 c 128,-1,23
 374 463 374 463 372 475 c 0,24,25
 371 486 371 486 366.5 498.5 c 128,-1,26
 362 511 362 511 356 522.5 c 128,-1,27
 350 534 350 534 344.5 541.5 c 128,-1,28
 339 549 339 549 336 547 c 1,29,30
 329 541 329 541 318.5 532 c 128,-1,31
 308 523 308 523 294 511 c 1,32,33
 300 499 300 499 295.5 492.5 c 128,-1,34
 291 486 291 486 278 480 c 0,35,36
 257 472 257 472 247 498 c 1,37,38
 224 532 224 532 201 544 c 128,-1,39
 178 556 178 556 155.5 552.5 c 128,-1,40
 133 549 133 549 114.5 531.5 c 128,-1,41
 96 514 96 514 84 490 c 1,42,43
 109 508 109 508 136 508 c 128,-1,44
 163 508 163 508 185.5 496 c 128,-1,45
 208 484 208 484 222 461.5 c 128,-1,46
 236 439 236 439 236 411 c 0,47,48
 236 369 236 369 207 340.5 c 128,-1,49
 178 312 178 312 138 312 c 0,50,51
 103 312 103 312 79 329.5 c 128,-1,52
 55 347 55 347 41.5 373 c 128,-1,53
 28 399 28 399 24.5 429.5 c 128,-1,54
 21 460 21 460 28 487 c 0,55,56
 36 522 36 522 60.5 551 c 128,-1,57
 85 580 85 580 114 593 c 0,58,59
 151 610 151 610 193 604 c 128,-1,60
 235 598 235 598 269 555 c 1,61,62
 293 577 293 577 308 587.5 c 128,-1,63
 323 598 323 598 332 601.5 c 128,-1,64
 341 605 341 605 347 603.5 c 128,-1,65
 353 602 353 602 357 601 c 0,66,67
 368 596 368 596 379 582 c 128,-1,68
 390 568 390 568 399 550 c 128,-1,69
 408 532 408 532 414 513.5 c 128,-1,70
 420 495 420 495 420 481 c 0,71,72
 420 462 420 462 416.5 448.5 c 128,-1,73
 413 435 413 435 404 421.5 c 128,-1,74
 395 408 395 408 381.5 392.5 c 128,-1,75
 368 377 368 377 348 353 c 0,76,77
 336 339 336 339 328.5 325 c 128,-1,78
 321 311 321 311 321 278 c 2,79,-1
 321 91 l 2,80,81
 321 66 321 66 308 57 c 1,82,-1
 490 57 l 1,83,-1
 490 368 l 1,84,85
 487 384 487 384 475 394.5 c 128,-1,86
 463 405 463 405 451 411 c 0,87,88
 436 417 436 417 419 420 c 1,89,90
 420 423 420 423 424.5 444 c 128,-1,91
 429 465 429 465 447 498 c 128,-1,92
 465 531 465 531 499.5 572.5 c 128,-1,93
 534 614 534 614 595 659 c 1,94,95
 604 647 604 647 611 638 c 0,96,97
 617 631 617 631 622.5 623.5 c 128,-1,98
 628 616 628 616 629 616 c 1,99,100
 565 573 565 573 527.5 533 c 128,-1,101
 490 493 490 493 475 451 c 1,102,103
 484 450 484 450 493 444 c 0,104,105
 501 439 501 439 510.5 432.5 c 128,-1,106
 520 426 520 426 529 416 c 0,107,108
 544 399 544 399 546.5 376 c 128,-1,109
 549 353 549 353 549 342 c 2,110,-1
 549 58 l 2,0,1
138 459 m 256,111,112
 117 459 117 459 103.5 445 c 128,-1,113
 90 431 90 431 90 411 c 0,114,115
 90 390 90 390 103.5 376 c 128,-1,116
 117 362 117 362 138 362 c 256,117,118
 158 362 158 362 171.5 376 c 128,-1,119
 185 390 185 390 185 411 c 0,120,121
 185 431 185 431 171.5 445 c 128,-1,122
 158 459 158 459 138 459 c 256,111,112
EndSplineSet
EndChar
StartChar: uni0E0C
Encoding: 3596 3596 223
Width: 917
VWidth: 1494
Flags: W
HStem: 0 46<194.742 270.156 461.16 486.925> 139 51<203.218 270.156> 215 54<555.995 584.42> 559 51<220.445 403.922>
VStem: 135 49<56.9237 125.076> 135 58<181 330.041> 281 49<53.7318 128.126> 495 58<53.8733 212 269 458.654> 773 58<0 46 148 598>
Fore
495 436 m 2,0,1
 495 456 495 456 502 468 c 1,2,3
 498 474 498 474 484.5 489.5 c 128,-1,4
 471 505 471 505 448.5 520 c 128,-1,5
 426 535 426 535 393 547 c 128,-1,6
 360 559 360 559 317 559 c 0,7,8
 266 559 266 559 231 546.5 c 128,-1,9
 196 534 196 534 172 516 c 128,-1,10
 148 498 148 498 134 478.5 c 128,-1,11
 120 459 120 459 114 445 c 1,12,-1
 172 408 l 1,13,14
 181 420 181 420 200.5 434 c 128,-1,15
 220 448 220 448 236 451 c 0,16,17
 238 451 238 451 248.5 436.5 c 128,-1,18
 259 422 259 422 266 411 c 1,19,20
 221 390 221 390 207 359.5 c 128,-1,21
 193 329 193 329 193 306 c 2,22,-1
 193 181 l 1,23,24
 212 190 212 190 232 190 c 0,25,26
 274 190 274 190 302 161 c 128,-1,27
 330 132 330 132 330 91 c 256,28,29
 330 51 330 51 302 22 c 128,-1,30
 274 -7 274 -7 232 -7 c 0,31,32
 191 -7 191 -7 163 22 c 128,-1,33
 135 51 135 51 135 91 c 2,34,-1
 135 308 l 2,35,36
 135 326 135 326 140 341.5 c 128,-1,37
 145 357 145 357 148 363 c 1,38,-1
 45 425 l 1,39,40
 46 433 46 433 60.5 462.5 c 128,-1,41
 75 492 75 492 105.5 525 c 128,-1,42
 136 558 136 558 187 583 c 128,-1,43
 238 608 238 608 315 610 c 0,44,45
 404 610 404 610 456 579.5 c 128,-1,46
 508 549 508 549 535 513 c 1,47,48
 538 516 538 516 546.5 514.5 c 128,-1,49
 555 513 555 513 567 501 c 0,50,51
 580 484 580 484 577 476.5 c 128,-1,52
 574 469 574 469 564 459 c 256,53,54
 553 448 553 448 553 428 c 2,55,-1
 553 269 l 1,56,57
 571 268 571 268 597 262 c 128,-1,58
 623 256 623 256 653 242.5 c 128,-1,59
 683 229 683 229 714.5 206.5 c 128,-1,60
 746 184 746 184 773 148 c 1,61,-1
 773 598 l 1,62,-1
 831 598 l 1,63,-1
 831 0 l 1,64,-1
 773 0 l 1,65,-1
 773 46 l 1,66,67
 758 93 758 93 728 124 c 128,-1,68
 698 155 698 155 665 174.5 c 128,-1,69
 632 194 632 194 601.5 204 c 128,-1,70
 571 214 571 214 553 215 c 1,71,-1
 553 85 l 2,72,73
 553 48 553 48 535 27 c 128,-1,74
 517 6 517 6 487 0 c 0,75,76
 465 -3 465 -3 443.5 6 c 128,-1,77
 422 15 422 15 404.5 33.5 c 128,-1,78
 387 52 387 52 377.5 81.5 c 128,-1,79
 368 111 368 111 372 146 c 0,80,81
 375 176 375 176 388 197 c 128,-1,82
 401 218 401 218 418.5 233 c 128,-1,83
 436 248 436 248 456.5 256.5 c 128,-1,84
 477 265 477 265 495 268 c 1,85,-1
 495 436 l 2,0,1
232 139 m 0,86,87
 212 139 212 139 198 125.5 c 128,-1,88
 184 112 184 112 184 91 c 256,89,90
 184 70 184 70 198 56.5 c 128,-1,91
 212 43 212 43 232 43 c 0,92,93
 253 43 253 43 267 56.5 c 128,-1,94
 281 70 281 70 281 91 c 256,95,96
 281 112 281 112 267 125.5 c 128,-1,97
 253 139 253 139 232 139 c 0,86,87
495 212 m 1,98,99
 472 206 472 206 450 187.5 c 128,-1,100
 428 169 428 169 425 130 c 0,101,102
 423 121 423 121 425.5 107 c 128,-1,103
 428 93 428 93 434.5 79.5 c 128,-1,104
 441 66 441 66 451.5 56 c 128,-1,105
 462 46 462 46 477 46 c 0,106,107
 481 46 481 46 488 50 c 128,-1,108
 495 54 495 54 495 75 c 2,109,-1
 495 212 l 1,98,99
EndSplineSet
EndChar
StartChar: uni0E0D
Encoding: 3597 3597 224
Width: 919
VWidth: 1494
Flags: W
HStem: -246 47<614 653.23> -94 48<527.296 590.115> -7 50<194.742 270.156> 4 53<535 774> 139 51<203.218 270.156> 559 51<220.445 403.569>
VStem: 135 49<56.9237 125.076> 135 58<181 330.041> 281 49<53.7318 128.126> 463 48<-172.479 -110.327> 490 59<71.9219 448.117> 774 59<-25.125 4 57 598>
Fore
523 -106 m 1,0,1
 511 -121 511 -121 511 -139 c 256,2,3
 511 -157 511 -157 524 -169.5 c 128,-1,4
 537 -182 537 -182 555 -182 c 0,5,6
 574 -182 574 -182 586.5 -169.5 c 128,-1,7
 599 -157 599 -157 599 -139 c 0,8,9
 599 -118 599 -118 587 -106 c 128,-1,10
 575 -94 575 -94 555 -94 c 0,11,12
 538 -94 538 -94 523 -106 c 1,0,1
490 436 m 2,13,14
 490 456 490 456 498 468 c 1,15,16
 493 474 493 474 480.5 489.5 c 128,-1,17
 468 505 468 505 446.5 520 c 128,-1,18
 425 535 425 535 392.5 547 c 128,-1,19
 360 559 360 559 317 559 c 0,20,21
 266 559 266 559 231 546.5 c 128,-1,22
 196 534 196 534 172 516 c 128,-1,23
 148 498 148 498 134 478.5 c 128,-1,24
 120 459 120 459 114 445 c 1,25,-1
 172 408 l 1,26,27
 181 420 181 420 200.5 434 c 128,-1,28
 220 448 220 448 236 451 c 0,29,30
 238 451 238 451 248.5 436.5 c 128,-1,31
 259 422 259 422 266 411 c 1,32,33
 221 390 221 390 207 359.5 c 128,-1,34
 193 329 193 329 193 306 c 2,35,-1
 193 181 l 1,36,37
 212 190 212 190 232 190 c 0,38,39
 274 190 274 190 302 161 c 128,-1,40
 330 132 330 132 330 91 c 256,41,42
 330 51 330 51 302 22 c 128,-1,43
 274 -7 274 -7 232 -7 c 0,44,45
 191 -7 191 -7 163 22 c 128,-1,46
 135 51 135 51 135 91 c 2,47,-1
 135 308 l 2,48,49
 135 326 135 326 140 341.5 c 128,-1,50
 145 357 145 357 148 363 c 1,51,-1
 45 425 l 1,52,53
 46 433 46 433 60.5 462.5 c 128,-1,54
 75 492 75 492 105.5 525 c 128,-1,55
 136 558 136 558 187 583 c 128,-1,56
 238 608 238 608 315 610 c 0,57,58
 402 610 402 610 453 579.5 c 128,-1,59
 504 549 504 549 531 513 c 1,60,61
 534 516 534 516 542 514.5 c 128,-1,62
 550 513 550 513 562 501 c 0,63,64
 575 484 575 484 572.5 476.5 c 128,-1,65
 570 469 570 469 559 459 c 256,66,67
 549 448 549 448 549 428 c 2,68,-1
 549 91 l 2,69,70
 549 66 549 66 535 57 c 1,71,-1
 774 57 l 1,72,-1
 774 598 l 1,73,-1
 833 598 l 1,74,-1
 833 36 l 2,75,76
 833 -4 833 -4 827 -46 c 128,-1,77
 821 -88 821 -88 805 -125.5 c 128,-1,78
 789 -163 789 -163 760 -192 c 128,-1,79
 731 -221 731 -221 685 -235 c 0,80,81
 646 -247 646 -247 606.5 -246 c 128,-1,82
 567 -245 567 -245 535.5 -233 c 128,-1,83
 504 -221 504 -221 483.5 -197 c 128,-1,84
 463 -173 463 -173 463 -139 c 0,85,86
 463 -100 463 -100 489.5 -73 c 128,-1,87
 516 -46 516 -46 555 -46 c 0,88,89
 586 -46 586 -46 608.5 -62 c 128,-1,90
 631 -78 631 -78 640.5 -102 c 128,-1,91
 650 -126 650 -126 644 -152 c 128,-1,92
 638 -178 638 -178 614 -199 c 1,93,94
 703 -197 703 -197 739.5 -141 c 128,-1,95
 776 -85 776 -85 776 4 c 1,96,-1
 507 4 l 2,97,98
 499 4 499 4 497.5 2 c 128,-1,99
 496 0 496 0 489 -3 c 0,100,101
 477 -6 477 -6 470 -4.5 c 128,-1,102
 463 -3 463 -3 451 18 c 0,103,104
 445 28 445 28 449 33.5 c 128,-1,105
 453 39 453 39 465 46 c 0,106,107
 481 57 481 57 485.5 69 c 128,-1,108
 490 81 490 81 490 88 c 2,109,-1
 490 436 l 2,13,14
232 139 m 0,110,111
 212 139 212 139 198 125.5 c 128,-1,112
 184 112 184 112 184 91 c 256,113,114
 184 70 184 70 198 56.5 c 128,-1,115
 212 43 212 43 232 43 c 0,116,117
 253 43 253 43 267 56.5 c 128,-1,118
 281 70 281 70 281 91 c 256,119,120
 281 112 281 112 267 125.5 c 128,-1,121
 253 139 253 139 232 139 c 0,110,111
EndSplineSet
Substitution2: "Single Substitution lookup 22 subtable" uni0E0D.alt1
Substitution2: "Single Substitution lookup 22 subtable" uni0E0D.alt1
EndChar
StartChar: uni0E0E
Encoding: 3598 3598 225
Width: 653
VWidth: 1494
Flags: W
HStem: -345 52<148.317 223.055> -184 48<174.875 228.804> -6 49<83.3121 157.408> 141 49<83.3121 145.47> 559 51<239.723 423.1>
VStem: 22 50<54.5273 129.15> 76 53<-269.257 -206.007> 154 58<184 330.041> 169 49<54.5273 116.093 106.14 126.046> 229 58<-254.669 -208.983 -136 -60> 508 59<-215.116 -202 -202 448.117>
Fore
567 -202 m 2,0,1
 567 -227 567 -227 552.5 -249.5 c 128,-1,2
 538 -272 538 -272 518 -292 c 128,-1,3
 498 -312 498 -312 476 -327 c 128,-1,4
 454 -342 454 -342 441 -351 c 0,5,6
 431 -357 431 -357 419.5 -354 c 128,-1,7
 408 -351 408 -351 401 -341 c 0,8,9
 395 -332 395 -332 397 -320.5 c 128,-1,10
 399 -309 399 -309 410 -302 c 1,11,12
 387 -268 387 -268 352 -235.5 c 128,-1,13
 317 -203 317 -203 287 -194 c 1,14,15
 290 -238 290 -238 280 -271 c 0,16,17
 271 -299 271 -299 248.5 -322 c 128,-1,18
 226 -345 226 -345 181 -345 c 0,19,20
 129 -345 129 -345 102.5 -311.5 c 128,-1,21
 76 -278 76 -278 76 -241 c 0,22,23
 76 -211 76 -211 89.5 -189 c 128,-1,24
 103 -167 103 -167 124.5 -154 c 128,-1,25
 146 -141 146 -141 174 -136.5 c 128,-1,26
 202 -132 202 -132 229 -136 c 1,27,-1
 229 -60 l 1,28,-1
 287 -60 l 1,29,-1
 287 -149 l 1,30,31
 303 -152 303 -152 325 -163.5 c 128,-1,32
 347 -175 347 -175 369.5 -191.5 c 128,-1,33
 392 -208 392 -208 413.5 -229 c 128,-1,34
 435 -250 435 -250 450 -274 c 1,35,36
 475 -254 475 -254 491.5 -234.5 c 128,-1,37
 508 -215 508 -215 508 -202 c 2,38,-1
 508 436 l 2,39,40
 508 456 508 456 516 468 c 1,41,42
 511 474 511 474 498.5 489.5 c 128,-1,43
 486 505 486 505 465 520 c 128,-1,44
 444 535 444 535 412 547 c 128,-1,45
 380 559 380 559 336 559 c 0,46,47
 286 559 286 559 250.5 546.5 c 128,-1,48
 215 534 215 534 191 516 c 128,-1,49
 167 498 167 498 153 478.5 c 128,-1,50
 139 459 139 459 133 445 c 1,51,-1
 191 408 l 1,52,53
 200 420 200 420 219.5 434 c 128,-1,54
 239 448 239 448 256 451 c 0,55,56
 257 451 257 451 267.5 436.5 c 128,-1,57
 278 422 278 422 286 411 c 1,58,59
 241 390 241 390 226.5 359.5 c 128,-1,60
 212 329 212 329 212 306 c 2,61,-1
 212 126 l 1,62,63
 218 112 218 112 218 93 c 0,64,65
 218 51 218 51 189.5 22.5 c 128,-1,66
 161 -6 161 -6 121 -6 c 0,67,68
 79 -6 79 -6 50.5 22.5 c 128,-1,69
 22 51 22 51 22 93 c 0,70,71
 22 133 22 133 50.5 161.5 c 128,-1,72
 79 190 79 190 121 190 c 0,73,74
 130 190 130 190 137.5 188.5 c 128,-1,75
 145 187 145 187 154 184 c 1,76,-1
 154 308 l 2,77,78
 154 326 154 326 159 341.5 c 128,-1,79
 164 357 164 357 167 363 c 1,80,-1
 64 425 l 1,81,82
 66 433 66 433 80 462.5 c 128,-1,83
 94 492 94 492 124.5 525 c 128,-1,84
 155 558 155 558 206 583 c 128,-1,85
 257 608 257 608 335 610 c 0,86,87
 422 610 422 610 472 579.5 c 128,-1,88
 522 549 522 549 549 513 c 1,89,90
 552 516 552 516 560 514.5 c 128,-1,91
 568 513 568 513 580 501 c 0,92,93
 593 484 593 484 590 476.5 c 128,-1,94
 587 469 587 469 577 459 c 256,95,96
 567 448 567 448 567 428 c 2,97,-1
 567 -202 l 2,0,1
121 43 m 0,98,99
 141 43 141 43 155 57.5 c 128,-1,100
 169 72 169 72 169 93 c 0,101,102
 169 112 169 112 155 126.5 c 128,-1,103
 141 141 141 141 121 141 c 0,104,105
 100 141 100 141 86 126.5 c 128,-1,106
 72 112 72 112 72 93 c 0,107,108
 72 72 72 72 86 57.5 c 128,-1,109
 100 43 100 43 121 43 c 0,98,99
235 -232 m 0,110,111
 235 -224 235 -224 234 -208.5 c 128,-1,112
 233 -193 233 -193 232 -185 c 1,113,114
 215 -184 215 -184 197 -184 c 128,-1,115
 179 -184 179 -184 163.5 -188.5 c 128,-1,116
 148 -193 148 -193 138.5 -205.5 c 128,-1,117
 129 -218 129 -218 129 -241 c 0,118,119
 129 -245 129 -245 130.5 -254 c 128,-1,120
 132 -263 132 -263 138 -272 c 128,-1,121
 144 -281 144 -281 153.5 -287 c 128,-1,122
 163 -293 163 -293 181 -293 c 0,123,124
 211 -293 211 -293 223 -273.5 c 128,-1,125
 235 -254 235 -254 235 -232 c 0,110,111
EndSplineSet
Substitution2: "Single Substitution lookup 22 subtable" uni0E0E.alt1
Substitution2: "Single Substitution lookup 22 subtable" uni0E0E.alt1
EndChar
StartChar: uni0E0F
Encoding: 3599 3599 226
Width: 653
VWidth: 1494
Flags: W
HStem: -348 54<105.487 172.506> -299.5 49<420.176 449.85 449.85 456.665> -184 43<127.844 163.961 163.961 181> -6 49<83.3121 157.408> 141 49<83.3121 145.47> 559 51<239.723 423.213>
VStem: 27 52<-262.185 -208.666 52.9195 131.246> 154 58<184 330.041> 169 49<54.5273 116.093 106.14 126.046> 181 57<-260.176 -222.515 -222.515 -209.056 -141 -63> 510 58<-245.732 -218.454 -218.454 -203 -203 448.117>
Fore
568 -203 m 2,0,1
 568 -239 568 -239 560.5 -262.5 c 128,-1,2
 553 -286 553 -286 542 -300.5 c 128,-1,3
 531 -315 531 -315 518 -323.5 c 128,-1,4
 505 -332 505 -332 495 -335 c 0,5,6
 483 -338 483 -338 472.5 -332.5 c 128,-1,7
 462 -327 462 -327 459 -315 c 1,8,9
 454 -309 454 -309 457 -300 c 1,10,11
 453 -300 453 -300 442.5 -299.5 c 128,-1,12
 432 -299 432 -299 418.5 -303.5 c 128,-1,13
 405 -308 405 -308 391 -319 c 128,-1,14
 377 -330 377 -330 366 -351 c 0,15,16
 360 -362 360 -362 349.5 -364 c 128,-1,17
 339 -366 339 -366 330 -360 c 0,18,19
 321 -353 321 -353 318 -342.5 c 128,-1,20
 315 -332 315 -332 323 -323 c 2,21,-1
 326 -320 l 1,22,23
 308 -287 308 -287 286.5 -258 c 128,-1,24
 265 -229 265 -229 238 -209 c 1,25,26
 239 -250 239 -250 230 -280 c 0,27,28
 221 -305 221 -305 199.5 -326.5 c 128,-1,29
 178 -348 178 -348 132 -348 c 0,30,31
 105 -348 105 -348 85.5 -338.5 c 128,-1,32
 66 -329 66 -329 53 -314 c 128,-1,33
 40 -299 40 -299 33.5 -279.5 c 128,-1,34
 27 -260 27 -260 27 -242 c 0,35,36
 27 -212 27 -212 41 -190.5 c 128,-1,37
 55 -169 55 -169 77.5 -155.5 c 128,-1,38
 100 -142 100 -142 127 -138.5 c 128,-1,39
 154 -135 154 -135 181 -141 c 1,40,-1
 181 -63 l 1,41,-1
 238 -63 l 1,42,-1
 238 -160 l 1,43,44
 272 -179 272 -179 303.5 -210.5 c 128,-1,45
 335 -242 335 -242 360 -281 c 1,46,47
 372 -266 372 -266 391.5 -258.5 c 128,-1,48
 411 -251 411 -251 432 -250.5 c 128,-1,49
 453 -250 453 -250 471.5 -254.5 c 128,-1,50
 490 -259 490 -259 499 -265 c 1,51,52
 508 -251 508 -251 509 -234 c 128,-1,53
 510 -217 510 -217 510 -203 c 2,54,-1
 510 436 l 2,55,56
 510 456 510 456 517 468 c 1,57,58
 513 474 513 474 500 489.5 c 128,-1,59
 487 505 487 505 465.5 520 c 128,-1,60
 444 535 444 535 412 547 c 128,-1,61
 380 559 380 559 336 559 c 0,62,63
 286 559 286 559 250.5 546.5 c 128,-1,64
 215 534 215 534 191 516 c 128,-1,65
 167 498 167 498 153 478.5 c 128,-1,66
 139 459 139 459 133 445 c 1,67,-1
 191 408 l 1,68,69
 200 420 200 420 219.5 434 c 128,-1,70
 239 448 239 448 256 451 c 0,71,72
 257 451 257 451 267.5 436.5 c 128,-1,73
 278 422 278 422 286 411 c 1,74,75
 241 390 241 390 226.5 359.5 c 128,-1,76
 212 329 212 329 212 306 c 2,77,-1
 212 126 l 1,78,79
 218 112 218 112 218 93 c 0,80,81
 218 51 218 51 189.5 22.5 c 128,-1,82
 161 -6 161 -6 121 -6 c 0,83,84
 79 -6 79 -6 50.5 22.5 c 128,-1,85
 22 51 22 51 22 93 c 0,86,87
 22 133 22 133 50.5 161.5 c 128,-1,88
 79 190 79 190 121 190 c 0,89,90
 130 190 130 190 137.5 188.5 c 128,-1,91
 145 187 145 187 154 184 c 1,92,-1
 154 308 l 2,93,94
 154 326 154 326 159 341.5 c 128,-1,95
 164 357 164 357 167 363 c 1,96,-1
 64 425 l 1,97,98
 66 433 66 433 80 462.5 c 128,-1,99
 94 492 94 492 124.5 525 c 128,-1,100
 155 558 155 558 206 583 c 128,-1,101
 257 608 257 608 335 610 c 0,102,103
 422 610 422 610 472.5 579.5 c 128,-1,104
 523 549 523 549 550 513 c 1,105,106
 553 516 553 516 561.5 514.5 c 128,-1,107
 570 513 570 513 581 501 c 0,108,109
 595 484 595 484 592 476.5 c 128,-1,110
 589 469 589 469 578 459 c 256,111,112
 568 448 568 448 568 428 c 2,113,-1
 568 -203 l 2,0,1
121 43 m 0,114,115
 141 43 141 43 155 57.5 c 128,-1,116
 169 72 169 72 169 93 c 0,117,118
 169 112 169 112 155 126.5 c 128,-1,119
 141 141 141 141 121 141 c 0,120,121
 100 141 100 141 86 126.5 c 128,-1,122
 72 112 72 112 72 93 c 0,123,124
 72 72 72 72 86 57.5 c 128,-1,125
 100 43 100 43 121 43 c 0,114,115
132 -294 m 0,126,127
 154 -294 154 -294 169.5 -279.5 c 128,-1,128
 185 -265 185 -265 185 -242 c 0,129,130
 185 -239 185 -239 185 -231 c 128,-1,131
 185 -223 185 -223 184.5 -214 c 128,-1,132
 184 -205 184 -205 183 -197.5 c 128,-1,133
 182 -190 182 -190 182 -185 c 1,134,135
 164 -184 164 -184 146.5 -184 c 128,-1,136
 129 -184 129 -184 114 -190 c 128,-1,137
 99 -196 99 -196 89 -208 c 128,-1,138
 79 -220 79 -220 79 -242 c 0,139,140
 79 -247 79 -247 80.5 -256 c 128,-1,141
 82 -265 82 -265 88 -274 c 128,-1,142
 94 -283 94 -283 104 -288.5 c 128,-1,143
 114 -294 114 -294 132 -294 c 0,126,127
EndSplineSet
Substitution2: "Single Substitution lookup 22 subtable" uni0E0F.alt1
Substitution2: "Single Substitution lookup 22 subtable" uni0E0F.alt1
EndChar
